*
G04 Mass Parameters ***
*
G04 Image ***
*
%IND:\UTENTI\00.LAVORI IN CORSO\METALTRONICA\22-304A-0\22-304A-0.BOT*%
%ICAS*%
%MOIN*%
%IPPOS*%
%ASAXBY*%
G74*%FSLAN2X34Y34*%
*
G04 Aperture Definitions ***
*
%ADD10C,0.1260*%
%ADD11C,0.0394*%
%ADD12R,0.0380X0.0320*%
%ADD13R,0.0501X0.0404*%
%ADD14R,0.0630X0.1260*%
%ADD15R,0.0710X0.0400*%
%ADD16R,0.0550X0.0350*%
%ADD17R,0.0350X0.0550*%
%ADD18R,0.0550X0.0350*%
%ADD19R,0.0197X0.0315*%
%ADD20R,0.0501X0.0404*%
%ADD21R,0.0118X0.0472*%
%ADD22R,0.1063X0.1181*%
%ADD23R,0.0590X0.0590*%
%ADD24C,0.0590*%
%ADD25R,0.0500X0.0400*%
%ADD26R,0.0400X0.0500*%
%ADD27R,0.0380X0.0320*%
%ADD28R,0.0710X0.0400*%
%ADD29R,0.1701X0.1181*%
%ADD30R,0.0177X0.0649*%
%ADD31R,0.0350X0.0250*%
%ADD32R,0.0250X0.0350*%
%ADD33C,0.0276*%
%ADD34C,0.0250*%
%ADD35C,0.0100*%
%ADD36C,0.0080*%
%ADD37C,0.0170*%
%ADD38C,0.0276*%
%ADD39C,0.0200*%
%ADD40C,0.0060*%
%ADD41C,0.0276*%
*
G04 Plot Data ***
*
G54D34*
G01X0013250Y0000250D02*
X0011750D01*
X0010450D02*
X0011750D01*
X0004800Y0001450D02*
Y0002603D01*
X0005200Y0003000D01*
X0010000D01*
Y0002500D01*
X0003500Y-0004050D02*
X0002938Y-0003488D01*
X0002250D01*
X0009750Y-0001100D02*
X0011150D01*
X0011400Y-0000850D01*
X0011800D01*
X0013250D01*
X0006250Y-0009087D02*
X0006850Y-0008487D01*
Y-0007324D01*
X0006250Y-0006724D01*
X0009750Y-0001100D02*
X0011150D01*
X0011400Y-0000850D01*
X0011800D01*
X0003450Y-0005550D02*
X0003150D01*
X0002663Y-0005063D01*
X0002250D01*
X0009820Y0002500D02*
X0009670D01*
G54D35*
G01X0007170Y0002745D02*
Y0001355D01*
X0006900Y0000975D02*
Y-0000520D01*
X0005832Y-0003650D02*
X0003460D01*
X0007980Y0002745D02*
Y0000543D01*
X0006090Y0002745D02*
Y-0000520D01*
X0004578Y0001300D02*
X0004322D01*
X0008070Y0001210D02*
X0007315D01*
X0008070Y-0000230D02*
X0008034D01*
X0008070Y-0000500D02*
X0008007D01*
X0004545Y0001543D02*
Y0001531D01*
X0006684Y0001190D02*
X0007570Y0000305D01*
X0011670Y-0005180D02*
Y-0007500D01*
X0009047Y-0008240D02*
X0007720D01*
X0003660Y-0005716D02*
Y-0009500D01*
X0005928Y-0007790D02*
X0002468D01*
X0005910Y-0006979D02*
Y-0007257D01*
X0006000Y-0006281D02*
Y-0006380D01*
X0006450Y-0003162D02*
Y-0003200D01*
X0005842Y-0005270D02*
X0003230D01*
X0008070Y0001120D02*
X0007405D01*
X0003930Y0002393D02*
Y0001657D01*
X0003840Y0002536D02*
Y0001513D01*
X0008160Y0002745D02*
Y0001656D01*
X0004757Y0002920D02*
X0004687D01*
X0008250Y0002745D02*
Y0001680D01*
X0004539Y0001390D02*
X0004361D01*
X0008070Y0000940D02*
X0007585D01*
X0008070Y0000850D02*
X0007675D01*
X0008070Y0000760D02*
X0007765D01*
X0007980Y-0000543D02*
Y-0009500D01*
X0007352Y-0004820D02*
X0006870D01*
X0008070Y-0004640D02*
X0006780D01*
X0007285Y-0008690D02*
X0007270D01*
X0013800Y-0006440D02*
X0007720D01*
X0007380Y-0006980D02*
X0007120D01*
X0013800Y-0007250D02*
X0007720D01*
X0005956Y-0005630D02*
X0003705D01*
X0003368Y-0005805D02*
X0003150D01*
X0003480Y0003250D02*
Y-0003669D01*
X0006082Y-0005540D02*
X0003717D01*
X0002846Y-0004885D02*
X0003255Y-0005295D01*
X0008854Y-0008600D02*
X0007813D01*
X0002779Y-0005540D02*
X0002540D01*
X0007530Y-0001005D02*
Y-0004733D01*
X0005884Y-0005720D02*
X0003657D01*
X0002575Y-0005336D02*
X0002967Y-0005727D01*
X0003570Y-0005789D02*
Y-0009500D01*
X0005899Y-0004910D02*
X0002870D01*
X0002580Y-0005340D02*
Y-0005582D01*
X0003861Y-0009320D02*
X0002675D01*
X0004285Y-0008960D02*
X0004270D01*
X0003930Y-0008800D02*
Y-0008993D01*
X0005935Y-0003290D02*
X0003098D01*
X0003934Y-0009410D02*
X0002675D01*
X0003970Y-0008690D02*
X0002675D01*
X0003931Y-0008780D02*
X0002675D01*
X0003300Y-0005805D02*
Y-0009500D01*
X0004200Y0001202D02*
Y-0008460D01*
X0004280Y-0008380D02*
X0003981Y-0008678D01*
X0003120Y-0004031D02*
Y-0005159D01*
X0003930Y-0008960D02*
X0002675D01*
X0005826Y-0005180D02*
X0003140D01*
X0005826Y-0008330D02*
X0004401D01*
X0004920Y-0008970D02*
Y-0009500D01*
X0005910Y-0006980D02*
X0002502D01*
X0006900Y-0009290D02*
Y-0009500D01*
X0005539Y-0009230D02*
X0004366D01*
X0006037Y-0004730D02*
X0002514D01*
X0006540Y-0003886D02*
Y-0004051D01*
X0006630Y-0003765D02*
Y-0004172D01*
X0005973Y-0003110D02*
X0002443D01*
X0008070Y-0004550D02*
X0006690D01*
X0005949Y-0005450D02*
X0003698D01*
X0003930Y0001243D02*
Y-0008800D01*
X0008070Y-0003650D02*
X0006668D01*
X0009820Y0001840D02*
X0005055D01*
X0005844Y-0005810D02*
X0003513D01*
X0007170Y-0000980D02*
Y-0007029D01*
X0007380Y-0007880D02*
X0007270D01*
X0003300Y-0004228D02*
Y-0005295D01*
X0007380Y-0008150D02*
X0007270D01*
X0005910Y-0006192D02*
Y-0006469D01*
X0007380Y-0007070D02*
X0007210D01*
X0002599Y-0005360D02*
X0002554D01*
X0007270Y-0007200D02*
Y-0008850D01*
X0006870Y-0004800D02*
Y-0006729D01*
X0007380Y-0006080D02*
X0006870D01*
X0006990Y-0009200D02*
Y-0009500D01*
X0007380Y-0005207D02*
Y-0008443D01*
X0007260Y-0000980D02*
Y-0007142D01*
X0007316Y-0008780D02*
X0007270D01*
X0005279Y-0008970D02*
X0004707D01*
X0005640Y-0009330D02*
Y-0009500D01*
X0004560Y-0001828D02*
Y-0008330D01*
X0005719Y-0009410D02*
X0004266D01*
X0004470Y-0001737D02*
Y-0008330D01*
X0005640Y-0000985D02*
Y-0008330D01*
X0005370Y-0009060D02*
Y-0009500D01*
X0004920Y-0001752D02*
Y-0008330D01*
X0004270Y-0008937D02*
Y-0008993D01*
X0013800Y-0006530D02*
X0007720D01*
X0005280Y-0001345D02*
Y-0008330D01*
X0008070Y-0002210D02*
X0006675D01*
X0003930Y0001840D02*
X0001950D01*
X0008070Y-0002570D02*
X0006615D01*
X0008070Y-0002660D02*
X0006655D01*
X0012660Y-0005180D02*
Y-0007500D01*
X0010770Y-0005180D02*
Y-0007500D01*
X0008070Y-0003920D02*
X0006498D01*
X0008070Y-0003560D02*
X0006675D01*
X0008070Y-0002930D02*
X0006650D01*
X0010410Y-0005180D02*
Y-0007484D01*
X0008070Y-0003470D02*
X0006662D01*
X0008070Y-0002480D02*
X0006543D01*
X0008070Y-0002840D02*
X0006672D01*
X0013800Y-0005180D02*
Y-0007500D01*
X0008070Y-0003380D02*
X0006627D01*
X0008070Y-0003290D02*
X0006565D01*
X0012030Y-0005180D02*
Y-0007500D01*
X0012930Y-0005180D02*
Y-0007500D01*
X0012480Y-0005180D02*
Y-0007500D01*
X0008070Y-0003200D02*
X0006450D01*
X0008070Y-0002750D02*
X0006673D01*
X0009820Y0002245D02*
X0009695D01*
X0003930Y0001930D02*
X0001950D01*
X0003930Y0002110D02*
X0001950D01*
X0005825Y-0001575D02*
Y-0002425D01*
X0005844Y-0002660D02*
X0002673D01*
X0006675Y-0001575D02*
Y-0002425D01*
Y-0001575D02*
X0005825D01*
X0005910Y-0003830D02*
Y-0004107D01*
X0009584Y0002740D02*
X0005300D01*
X0005910Y-0003042D02*
Y-0003320D01*
Y-0004617D02*
Y-0004895D01*
X0006649Y-0004509D02*
X0006818Y-0004678D01*
X0007440Y-0001017D02*
Y-0004756D01*
X0006810Y-0000980D02*
Y-0004669D01*
X0008070Y-0005000D02*
Y-0009500D01*
X0006037Y-0007880D02*
X0002514D01*
X0006870Y-0006729D02*
X0007218Y-0007077D01*
X0006810Y0002745D02*
Y0001711D01*
X0004240Y-0008420D02*
X0002621D01*
X0007080Y0002745D02*
Y0001445D01*
X0006900Y0002745D02*
Y0001672D01*
X0005449Y-0009140D02*
X0004361D01*
X0008750Y-0009500D02*
X0006690D01*
X0013800Y-0005270D02*
X0007720D01*
X0002675Y-0008575D02*
Y-0009425D01*
X0002670Y-0008278D02*
Y-0009500D01*
X0002490Y-0009425D02*
Y-0009500D01*
X0002400Y-0009425D02*
Y-0009500D01*
X0010132Y-0007520D02*
X0007720D01*
X0002580Y-0009425D02*
Y-0009500D01*
X0003834Y-0009230D02*
X0002675D01*
X0001950Y-0009425D02*
Y-0009500D01*
X0002220Y-0009425D02*
Y-0009500D01*
X0002663Y-0004808D02*
X0002590D01*
X0003839Y-0009140D02*
X0002675D01*
X0005881Y-0005360D02*
X0003638D01*
X0003120Y0003250D02*
Y-0003310D01*
X0002938Y-0003233D02*
X0002590D01*
X0013800Y-0006980D02*
X0007720D01*
X0002670Y-0002766D02*
Y-0003233D01*
X0003660Y0003250D02*
Y-0003835D01*
X0002212Y-0001490D02*
X0001950D01*
X0013800Y-0005180D02*
X0008250D01*
X0005910Y0002745D02*
Y-0000520D01*
X0013800Y-0007500D02*
X0010750D01*
X0012570Y-0005180D02*
Y-0007500D01*
X0013290Y-0005180D02*
Y-0007500D01*
X0013560Y-0005180D02*
Y-0007500D01*
X0013110Y-0005180D02*
Y-0007500D01*
X0013020Y-0005180D02*
Y-0007500D01*
X0012390Y-0005180D02*
Y-0007500D01*
X0012210Y-0005180D02*
Y-0007500D01*
X0011220Y-0005180D02*
Y-0007500D01*
X0011490Y-0005180D02*
Y-0007500D01*
X0011580Y-0005180D02*
Y-0007500D01*
X0009960Y-0005180D02*
Y-0007565D01*
X0004650Y-0009022D02*
Y-0009500D01*
X0009420Y-0005180D02*
Y-0007848D01*
X0009330Y-0005180D02*
Y-0007923D01*
X0009240Y-0005180D02*
Y-0008008D01*
X0009150Y-0005180D02*
Y-0008106D01*
X0008970Y-0005180D02*
Y-0008361D01*
X0008880Y-0005180D02*
Y-0008539D01*
X0008790Y-0005180D02*
Y-0008797D01*
X0008700Y-0005180D02*
Y-0009500D01*
X0008610Y-0005180D02*
Y-0009500D01*
X0008430Y-0005180D02*
Y-0009500D01*
X0008340Y-0005180D02*
Y-0009500D01*
X0007570Y0000130D02*
X0001950D01*
X0007570Y0000040D02*
X0001950D01*
X0007352Y-0005180D02*
X0006870D01*
X0008822Y-0008690D02*
X0007814D01*
X0007397Y-0008870D02*
X0007269D01*
X0002760Y0003250D02*
Y-0003233D01*
X0007620Y-0008908D02*
Y-0009500D01*
X0007080Y-0000980D02*
Y-0006939D01*
X0009837Y-0007610D02*
X0007720D01*
X0009647Y-0007700D02*
X0007720D01*
X0009500Y-0007790D02*
X0007720D01*
X0008893Y-0008510D02*
X0007778D01*
X0007800Y-0008745D02*
Y-0009500D01*
X0007322Y-0008510D02*
X0007270D01*
X0003210Y-0005805D02*
Y-0009500D01*
X0007350Y-0000998D02*
Y-0004822D01*
X0008094Y-0005090D02*
X0007802D01*
X0009690Y0002245D02*
Y0001680D01*
X0005460Y-0009150D02*
Y-0009500D01*
X0006990Y0002745D02*
Y0001568D01*
X0007287Y-0008600D02*
X0007270D01*
X0004740Y-0001864D02*
Y-0008330D01*
X0008755Y-0008960D02*
X0007229D01*
X0008735Y-0009140D02*
X0007050D01*
X0004290Y0001261D02*
Y-0008371D01*
X0007465Y-0000410D02*
X0001950D01*
X0003840Y-0009263D02*
Y-0009500D01*
X0005550Y-0009240D02*
Y-0009500D01*
X0005100Y-0008970D02*
Y-0009500D01*
X0005010Y-0008970D02*
Y-0009500D01*
X0004110Y0001182D02*
Y-0008550D01*
X0005280Y-0008970D02*
Y-0009500D01*
X0013800Y-0006080D02*
X0007720D01*
X0008742Y-0009050D02*
X0007140D01*
X0004830Y-0008970D02*
Y-0009500D01*
X0004060Y-0008600D02*
X0002675D01*
X0005829Y-0005090D02*
X0003050D01*
X0005279Y-0008970D02*
X0005809Y-0009500D01*
X0004290Y-0009388D02*
Y-0009500D01*
X0004020Y-0009455D02*
Y-0009500D01*
X0003570Y-0004308D02*
Y-0005311D01*
X0003386Y-0005810D02*
X0002673D01*
X0004380Y-0009039D02*
Y-0009500D01*
X0003189Y-0004100D02*
X0002637D01*
X0002832Y-0003743D02*
X0003262Y-0004173D01*
X0007620Y-0000957D02*
Y-0004741D01*
X0003750Y0003250D02*
Y-0003954D01*
Y-0004145D02*
Y-0009500D01*
X0005852Y-0005000D02*
X0002960D01*
X0002869Y-0005630D02*
X0002613D01*
X0003030Y-0005775D02*
Y-0009500D01*
X0003390Y-0005811D02*
Y-0009500D01*
X0006540Y0002745D02*
Y0001616D01*
X0007620Y0002745D02*
Y0000905D01*
X0005150Y0003250D02*
X0001950D01*
X0003872Y0002740D02*
X0001950D01*
X0004290Y0003250D02*
Y0003134D01*
X0003930Y0002380D02*
X0001950D01*
X0003861Y0001570D02*
X0001950D01*
X0003878Y0001300D02*
X0001950D01*
X0003835Y0002560D02*
X0001950D01*
X0003834Y0001480D02*
X0001950D01*
X0003930Y0002290D02*
X0001950D01*
X0003866Y0002470D02*
X0001950D01*
X0004470Y0001517D02*
Y-0001463D01*
X0006845Y0001030D02*
X0001950D01*
X0003837Y0002650D02*
X0001950D01*
X0003930Y0001750D02*
X0001950D01*
X0006935Y0000940D02*
X0001950D01*
X0005025Y-0000950D02*
X0001950D01*
X0010950Y-0005180D02*
Y-0007500D01*
X0007535Y-0000140D02*
X0001950D01*
X0003839Y0001390D02*
X0001950D01*
X0003981Y0001210D02*
X0001950D01*
X0007025Y0000850D02*
X0001950D01*
X0007205Y0000670D02*
X0001950D01*
X0007295Y0000580D02*
X0001950D01*
X0007385Y0000490D02*
X0001950D01*
X0007260Y0002745D02*
Y0001265D01*
X0007565Y0000310D02*
X0001950D01*
X0007570Y0000220D02*
X0001950D01*
X0007570Y-0000237D02*
Y-0000305D01*
X0006755Y0001120D02*
X0001950D01*
X0007537Y-0000050D02*
X0001950D01*
X0007566Y-0000230D02*
X0001950D01*
X0011760Y-0005180D02*
Y-0007500D01*
X0005387Y-0000587D02*
X0004634Y-0001340D01*
X0004153Y0002920D02*
X0001950D01*
X0010050Y-0005180D02*
Y-0007539D01*
X0004740Y0001189D02*
Y-0001235D01*
X0002040Y0003250D02*
Y-0001544D01*
X0003930Y0002200D02*
X0001950D01*
X0004755Y-0001220D02*
X0001950D01*
X0006270Y0002745D02*
Y-0000520D01*
X0004830Y-0001834D02*
Y-0008330D01*
X0005387Y-0000587D02*
X0004634Y-0001340D01*
X0005825Y-0001940D02*
X0002674D01*
X0005825Y-0002030D02*
X0002659D01*
X0005825Y-0002120D02*
X0002621D01*
X0012120Y-0005180D02*
Y-0007500D01*
X0005956Y-0002480D02*
X0002613D01*
X0005885Y-0002570D02*
X0002654D01*
X0006028Y-0002425D02*
X0005825D01*
X0005826Y-0002750D02*
X0002672D01*
X0005828Y-0002840D02*
X0002651D01*
X0002919Y-0003830D02*
X0002503D01*
X0006050Y-0003200D02*
X0002562D01*
X0002760Y-0003743D02*
Y-0004827D01*
X0002850Y-0003761D02*
Y-0004889D01*
X0013800Y-0005360D02*
X0007720D01*
X0002940Y-0003851D02*
Y-0004979D01*
X0005838Y-0003470D02*
X0003280D01*
X0003660Y-0004264D02*
Y-0005384D01*
X0005825Y-0001850D02*
X0004795D01*
X0003099Y-0004010D02*
X0002582D01*
X0003272Y-0004190D02*
X0002666D01*
X0005825Y-0004370D02*
X0002664D01*
X0005836Y-0004460D02*
X0002633D01*
X0002760Y-0005520D02*
Y-0009500D01*
X0007380Y-0007160D02*
X0007265D01*
X0002670Y-0004341D02*
Y-0004808D01*
X0005982Y-0004820D02*
X0002740D01*
X0003363Y-0004280D02*
X0002675D01*
X0003480Y-0005816D02*
Y-0009500D01*
X0002940Y-0005700D02*
Y-0009500D01*
X0002675Y-0009425D02*
X0001950D01*
X0007350Y-0008828D02*
Y-0009500D01*
X0002850Y-0005610D02*
Y-0009500D01*
X0003118Y-0003308D02*
X0003622Y-0003812D01*
X0008989Y-0008330D02*
X0007720D01*
X0003390Y-0004294D02*
Y-0005289D01*
X0005826Y-0005900D02*
X0002672D01*
X0005828Y-0005990D02*
X0002651D01*
X0002940Y0003250D02*
Y-0003233D01*
X0006003Y-0007070D02*
X0002483D01*
X0006049Y-0006350D02*
X0002562D01*
X0005934Y-0006440D02*
X0002626D01*
X0005872Y-0006530D02*
X0002661D01*
X0005838Y-0006620D02*
X0002674D01*
X0005825Y-0006710D02*
X0002669D01*
X0005832Y-0006800D02*
X0002643D01*
X0006012Y-0007160D02*
X0002582D01*
X0005915Y-0007250D02*
X0002637D01*
X0005861Y-0007340D02*
X0002666D01*
X0005833Y-0007430D02*
X0002675D01*
X0005825Y-0007520D02*
X0002664D01*
X0005836Y-0007610D02*
X0002633D01*
X0002310Y-0009425D02*
Y-0009500D01*
X0007380Y-0006890D02*
X0007030D01*
X0004150Y-0008510D02*
X0002554D01*
X0005899Y-0008060D02*
X0002646D01*
X0005852Y-0008150D02*
X0002670D01*
X0005829Y-0008240D02*
X0002674D01*
X0006584Y0001660D02*
X0005055D01*
X0004401Y-0008330D02*
X0002658D01*
X0002490Y-0008563D02*
Y-0008575D01*
X0008030Y-0000237D02*
Y-0000400D01*
X0007380Y-0006800D02*
X0006940D01*
X0005629Y-0009320D02*
X0004339D01*
X0008733D02*
X0006870D01*
X0005100Y-0001525D02*
Y-0008330D01*
X0005359Y-0009050D02*
X0004595D01*
X0004522Y-0001400D02*
X0001950D01*
X0007080Y-0009110D02*
Y-0009500D01*
X0003120Y-0005803D02*
Y-0009500D01*
X0013800Y-0006800D02*
X0007720D01*
X0005730Y-0009420D02*
Y-0009500D01*
X0006720Y-0009470D02*
Y-0009500D01*
X0013800Y-0006170D02*
X0007720D01*
X0007800Y-0005095D02*
Y-0008554D01*
X0007710Y-0008864D02*
Y-0009500D01*
X0008794Y-0008780D02*
X0007784D01*
X0007380Y-0007970D02*
X0007270D01*
X0007380Y-0006440D02*
X0006870D01*
X0007350Y-0005178D02*
Y-0008472D01*
X0007380Y-0007700D02*
X0007270D01*
X0013800Y-0005450D02*
X0007720D01*
X0008070Y-0004820D02*
X0007748D01*
X0008070Y-0004910D02*
X0007802D01*
X0008070Y-0005000D02*
X0007818D01*
X0007380Y-0005630D02*
X0006870D01*
X0007380Y-0007250D02*
X0007270D01*
X0007380Y-0007340D02*
X0007270D01*
X0007380Y-0006350D02*
X0006870D01*
X0007380Y-0007430D02*
X0007270D01*
X0009114Y-0008150D02*
X0007720D01*
X0007380Y-0005720D02*
X0006870D01*
X0007380Y-0006620D02*
X0006870D01*
X0007380Y-0005990D02*
X0006870D01*
X0007380Y-0007610D02*
X0007270D01*
X0007380Y-0005540D02*
X0006870D01*
X0004650Y-0001863D02*
Y-0008330D01*
X0007440Y-0008894D02*
Y-0009500D01*
X0005910Y-0000980D02*
Y-0001575D01*
X0005370Y-0001255D02*
Y-0008330D01*
X0007720Y-0005207D02*
Y-0008443D01*
X0007260Y-0008907D02*
Y-0009500D01*
X0005460Y-0001165D02*
Y-0008330D01*
X0002959Y-0005720D02*
X0002654D01*
X0004020Y0001194D02*
Y-0008640D01*
X0007890Y0002745D02*
Y0000635D01*
X0008070Y0001480D02*
X0007045D01*
X0009240Y0002745D02*
Y0001680D01*
X0009150Y0002745D02*
Y0001680D01*
X0008970Y0002745D02*
Y0001680D01*
X0008070Y-0000320D02*
X0008030D01*
X0008880Y0002745D02*
Y0001687D01*
X0008610Y0002745D02*
Y0001814D01*
X0008790Y0002745D02*
Y0001778D01*
X0009060Y-0005180D02*
Y-0008222D01*
X0009820Y0001750D02*
X0008828D01*
X0008070Y0000040D02*
X0008030D01*
X0008070Y-0001040D02*
X0005585D01*
X0008070Y-0000770D02*
X0007755D01*
X0004534Y0001480D02*
X0004366D01*
X0010140Y-0005180D02*
Y-0007518D01*
X0008340Y0002745D02*
Y0001680D01*
X0008070Y0000400D02*
X0008030D01*
X0008167Y0001660D02*
X0006916D01*
X0011040Y-0005180D02*
Y-0007500D01*
X0007115Y0000760D02*
X0001950D01*
X0008472Y0001750D02*
X0005055D01*
X0010230Y-0005180D02*
Y-0007502D01*
X0009780Y0002245D02*
Y0001680D01*
X0008070Y-0001490D02*
X0005135D01*
X0008070Y-0003830D02*
X0006590D01*
X0009870Y-0005180D02*
Y-0007597D01*
X0010320Y-0005180D02*
Y-0007491D01*
X0009600Y-0005180D02*
Y-0007727D01*
X0008070Y-0002120D02*
X0006675D01*
X0008070Y-0001670D02*
X0006675D01*
X0010590Y-0005180D02*
Y-0007484D01*
X0009780Y-0005180D02*
Y-0007634D01*
X0011130Y-0005180D02*
Y-0007500D01*
X0012750Y-0005180D02*
Y-0007500D01*
X0008070Y-0000410D02*
X0008030D01*
X0011850Y-0005180D02*
Y-0007500D01*
X0011400Y-0005180D02*
Y-0007500D01*
X0012840Y-0005180D02*
Y-0007500D01*
X0010500Y-0005180D02*
Y-0007482D01*
X0013200Y-0005180D02*
Y-0007500D01*
X0013740Y-0005180D02*
Y-0007500D01*
X0013380Y-0005180D02*
Y-0007500D01*
X0013470Y-0005180D02*
Y-0007500D01*
X0009510Y0002301D02*
Y0001680D01*
X0003930Y0002020D02*
X0001950D01*
X0006180Y0002745D02*
Y-0000520D01*
X0004604Y-0001850D02*
X0002670D01*
X0008070Y-0002390D02*
X0006675D01*
X0008520Y-0005180D02*
Y-0009500D01*
X0008070Y-0001760D02*
X0006675D01*
X0008070Y-0001850D02*
X0006675D01*
X0008070Y-0001940D02*
X0006675D01*
X0007080Y0000795D02*
Y-0000520D01*
X0011310Y-0005180D02*
Y-0007500D01*
X0010680Y-0005180D02*
Y-0007491D01*
X0008070Y-0001220D02*
X0005405D01*
X0006675Y-0002425D02*
X0006472D01*
X0008070Y-0002030D02*
X0006675D01*
X0008070Y-0002300D02*
X0006675D01*
X0011940Y-0005180D02*
Y-0007500D01*
X0005825Y-0002390D02*
X0002539D01*
X0006630Y-0002425D02*
Y-0002597D01*
X0006540Y-0002425D02*
Y-0002476D01*
X0005825Y-0002300D02*
X0002426D01*
X0006000Y-0002425D02*
Y-0002443D01*
X0005894Y-0003020D02*
X0002531D01*
X0006630Y-0002977D02*
Y-0003385D01*
X0006540Y-0003098D02*
Y-0003264D01*
X0006360Y0002745D02*
Y-0000520D01*
X0006000Y-0003131D02*
Y-0003231D01*
X0008070Y-0003110D02*
X0006526D01*
X0008070Y-0003740D02*
X0006641D01*
X0008070Y-0004010D02*
X0006488D01*
X0008070Y-0004100D02*
X0006584D01*
X0008070Y-0004190D02*
X0006638D01*
X0008070Y-0004280D02*
X0006667D01*
X0008070Y-0004370D02*
X0006675D01*
X0004290Y-0008966D02*
Y-0009011D01*
X0007298Y-0005090D02*
X0006870D01*
X0003480Y-0004317D02*
Y-0005284D01*
X0006720Y-0000980D02*
Y-0004580D01*
X0006630Y0002745D02*
Y0001689D01*
X0006000Y-0004706D02*
Y-0004806D01*
X0008070Y-0001130D02*
X0005495D01*
X0006000Y-0003919D02*
Y-0004018D01*
X0008070Y-0004460D02*
X0006663D01*
X0006000Y0002745D02*
Y-0000520D01*
X0003930Y-0008870D02*
X0002675D01*
X0007380Y-0007520D02*
X0007270D01*
X0007380Y-0005900D02*
X0006870D01*
X0008070Y-0004730D02*
X0006855D01*
X0007380Y-0007790D02*
X0007270D01*
X0007380Y-0005270D02*
X0006870D01*
X0005928Y-0004640D02*
X0002469D01*
X0005190Y-0001435D02*
Y-0008330D01*
X0008250Y-0005180D02*
X0007748D01*
X0005730Y0002745D02*
Y-0000520D01*
X0006000Y-0005493D02*
Y-0005593D01*
X0005910Y-0005405D02*
Y-0005682D01*
X0004404Y-0009050D02*
X0004322D01*
X0007298Y-0004910D02*
X0006870D01*
X0007282Y-0005000D02*
X0006870D01*
X0007380Y-0008330D02*
X0007270D01*
X0007380Y-0006710D02*
X0006870D01*
X0007380Y-0005360D02*
X0006870D01*
X0007380Y-0005450D02*
X0006870D01*
X0007220Y-0008970D02*
X0006690Y-0009500D01*
X0007380Y-0008240D02*
X0007270D01*
X0007380Y-0006530D02*
X0006870D01*
X0007710Y0002745D02*
Y0000815D01*
X0007380Y-0005810D02*
X0006870D01*
X0007380Y-0008420D02*
X0007270D01*
X0007380Y-0006170D02*
X0006870D01*
X0005894D02*
X0002530D01*
X0007380Y-0008060D02*
X0007270D01*
X0006450Y-0003950D02*
Y-0003987D01*
X0006000Y-0007068D02*
Y-0007168D01*
X0007380Y-0006260D02*
X0006870D01*
X0004110Y-0009467D02*
Y-0009500D01*
X0006000Y-0007856D02*
Y-0007955D01*
X0005910Y-0007767D02*
Y-0008044D01*
X0007475Y0000400D02*
X0001950D01*
X0002040Y-0009425D02*
Y-0009500D01*
X0005981Y-0007970D02*
X0002599D01*
X0006810Y-0009380D02*
Y-0009500D01*
X0004560Y-0009061D02*
Y-0009500D01*
X0004470Y-0009066D02*
Y-0009500D01*
X0002130Y-0009425D02*
Y-0009500D01*
X0008731Y-0009230D02*
X0006960D01*
X0002580Y-0008480D02*
Y-0008575D01*
X0002670Y-0007490D02*
Y-0008148D01*
X0002580Y-0007693D02*
Y-0007945D01*
X0002490Y-0007776D02*
Y-0007862D01*
X0002675Y-0008575D02*
X0002472D01*
X0005809Y-0009500D02*
X0001950D01*
X0002670Y-0006703D02*
Y-0007360D01*
X0002580Y-0006906D02*
Y-0007157D01*
X0002490Y-0006989D02*
Y-0007074D01*
X0005869Y-0007700D02*
X0002574D01*
X0002670Y-0005915D02*
Y-0006573D01*
X0002580Y-0006118D02*
Y-0006370D01*
X0002490Y-0006201D02*
Y-0006287D01*
X0005858Y-0006890D02*
X0002592D01*
X0002689Y-0005450D02*
X0002425D01*
X0002670Y-0005430D02*
Y-0005785D01*
X0002490Y-0005414D02*
Y-0005499D01*
X0005974Y-0006260D02*
X0002444D01*
X0005850Y-0006080D02*
X0002607D01*
X0003368Y-0005295D02*
X0003255D01*
X0002580Y-0004543D02*
Y-0004795D01*
X0002490Y-0004626D02*
Y-0004712D01*
X0002580Y-0003756D02*
Y-0004008D01*
X0002490Y-0003839D02*
Y-0003925D01*
X0003570Y0003250D02*
Y-0003759D01*
X0002580Y-0002969D02*
Y-0003220D01*
X0002490Y-0003052D02*
Y-0003137D01*
X0005825Y-0003560D02*
X0003370D01*
X0005910Y-0002425D02*
Y-0002532D01*
X0005849Y-0002930D02*
X0002608D01*
X0002670Y-0001978D02*
Y-0002636D01*
X0002580Y-0002181D02*
Y-0002433D01*
X0002490Y-0002264D02*
Y-0002350D01*
X0001950Y0003250D02*
Y-0001612D01*
X0005385Y-0000590D02*
X0001950D01*
X0002670Y0003250D02*
Y-0001848D01*
X0002580Y0003250D02*
Y-0001645D01*
X0002490Y0003250D02*
Y-0001562D01*
X0002400Y0003250D02*
Y-0001516D01*
X0002310Y0003250D02*
Y-0001492D01*
X0002220Y0003250D02*
Y-0001489D01*
X0002130Y0003250D02*
Y-0001505D01*
X0004441Y-0001670D02*
X0002598D01*
X0004485Y-0001760D02*
X0002646D01*
X0005825Y-0002210D02*
X0002554D01*
X0003878Y-0009050D02*
X0002675D01*
X0004242Y0003100D02*
X0001950D01*
X0008070Y0001500D02*
Y-0003800D01*
Y-0005000D01*
X0009695Y0002245D02*
X0009670D01*
X0003930Y0002393D02*
Y0001657D01*
X0006990Y-0000980D02*
Y-0006849D01*
X0009820Y0002245D02*
Y0001680D01*
X0008070Y0002745D02*
Y0001500D01*
X0003840Y0001386D02*
Y-0009136D01*
X0005055Y0002496D02*
Y0001531D01*
X0006511Y0001570D02*
X0005055D01*
X0004200Y0003250D02*
Y0003052D01*
X0008084Y0001570D02*
X0006989D01*
X0004939Y0003100D02*
X0004598D01*
X0004848Y0003010D02*
X0004664D01*
X0008070Y0000580D02*
X0007945D01*
X0008070Y0000220D02*
X0008030D01*
X0009420Y0002450D02*
Y0001680D01*
X0008416D02*
X0008250D01*
X0008700Y0002745D02*
Y0001813D01*
X0009820Y0001680D02*
X0008884D01*
X0008430Y0002745D02*
Y0001702D01*
X0009600Y0002255D02*
Y0001680D01*
X0008520Y0002745D02*
Y0001784D01*
X0008070Y-0003020D02*
X0006605D01*
X0005305Y0002745D02*
X0005055Y0002496D01*
X0004380Y0001515D02*
Y-0008331D01*
X0005640Y0002745D02*
Y-0000520D01*
X0003963Y0002830D02*
X0001950D01*
X0003840Y0003250D02*
Y0002663D01*
X0009445Y0002380D02*
X0005055D01*
X0009422Y0002560D02*
X0005119D01*
X0008739Y-0009410D02*
X0006780D01*
X0001986Y-0001580D02*
X0001950D01*
X0004560Y0001331D02*
Y-0001372D01*
X0009690Y-0005180D02*
Y-0007677D01*
X0007260Y0000615D02*
Y-0000520D01*
X0007800Y-0000725D02*
Y-0004904D01*
X0009820Y0001930D02*
X0005055D01*
X0006900Y-0000980D02*
Y-0006759D01*
X0008250Y-0005180D02*
Y-0009500D01*
X0007570Y-0000305D02*
X0007384Y-0000490D01*
X0009510Y-0005180D02*
Y-0007783D01*
X0008070Y-0000590D02*
X0007935D01*
X0007440Y0000435D02*
Y-0000435D01*
X0005820Y-0000980D02*
Y-0008330D01*
X0007350Y0000525D02*
Y-0000502D01*
X0008030Y0000400D02*
Y0000037D01*
X0006990Y0000885D02*
Y-0000520D01*
X0004650Y0001228D02*
Y-0001325D01*
X0007313Y-0000520D02*
X0005550D01*
X0007530Y0000345D02*
Y-0000345D01*
X0004456Y-0001490D02*
X0002287D01*
X0004845Y-0001130D02*
X0001950D01*
X0005825Y-0001760D02*
X0004914D01*
X0008070Y0000670D02*
X0007855D01*
X0006270Y-0000980D02*
Y-0001575D01*
X0006360Y-0000980D02*
Y-0001575D01*
X0006450Y-0000980D02*
Y-0001575D01*
X0005645Y-0000980D02*
X0004959Y-0001666D01*
X0006000Y-0000980D02*
Y-0001575D01*
X0005030Y0003190D02*
X0001950D01*
X0007313Y-0000980D02*
X0005645D01*
X0006180D02*
Y-0001575D01*
X0008070Y-0001580D02*
X0005045D01*
X0007313Y-0000980D02*
X0005645D01*
X0008070Y-0000950D02*
X0007628D01*
X0005645Y-0000980D02*
X0004959Y-0001666D01*
X0005387Y-0000587D02*
X0004634Y-0001340D01*
X0005825Y-0001670D02*
X0004958D01*
X0005010Y0001284D02*
Y-0000965D01*
X0006720Y0001155D02*
Y-0000520D01*
X0006810Y0001065D02*
Y-0000520D01*
X0005387Y-0000587D02*
X0004634Y-0001340D01*
X0005820Y0002745D02*
Y-0000520D01*
X0008070Y-0001310D02*
X0005315D01*
X0002670Y-0003743D02*
Y-0004211D01*
X0005910Y-0003830D02*
X0003652D01*
X0003030Y-0003941D02*
Y-0005069D01*
X0005190Y-0008970D02*
Y-0009500D01*
X0002832Y-0003743D02*
X0002590D01*
X0006002Y-0003920D02*
X0003734D01*
X0005858Y-0003740D02*
X0003550D01*
X0003930Y-0009407D02*
Y-0009500D01*
X0003390Y0003250D02*
Y-0003579D01*
X0013800Y-0006890D02*
X0007720D01*
X0005869Y-0004550D02*
X0002574D01*
X0004433Y-0001580D02*
X0002513D01*
X0006090Y-0000980D02*
Y-0001575D01*
X0007009Y0001516D02*
X0007962Y0000562D01*
X0006450Y0002745D02*
Y-0000520D01*
X0007800Y0002745D02*
Y0000725D01*
X0008070Y0000490D02*
X0008011D01*
X0008070Y0000130D02*
X0008030D01*
X0008070Y0000310D02*
X0008030D01*
X0009330Y0002745D02*
Y0001680D01*
X0008070Y0001030D02*
X0007495D01*
X0009060Y0002745D02*
Y0001680D01*
X0009820Y0002200D02*
X0005055D01*
X0009820Y0002110D02*
X0005055D01*
X0009820Y0002020D02*
X0005055D01*
X0008070Y0001300D02*
X0007225D01*
X0008160Y-0005156D02*
Y-0009500D01*
X0008070Y0001390D02*
X0007135D01*
X0009510Y0002745D02*
Y0002698D01*
X0006484Y0001480D02*
X0005066D01*
X0006489Y0001390D02*
X0005061D01*
X0006528Y0001300D02*
X0005022D01*
X0006631Y0001210D02*
X0004918D01*
X0005010Y0003250D02*
Y0003171D01*
X0004740Y0003250D02*
Y0002902D01*
X0004650Y0003250D02*
Y0003037D01*
X0009417Y0002470D02*
X0005055D01*
X0004920Y0003250D02*
Y0003081D01*
X0009599Y0002745D02*
X0005305D01*
X0009464Y0002650D02*
X0005209D01*
X0009525Y0002290D02*
X0005055D01*
X0004560Y0003250D02*
Y0003128D01*
X0005280Y0002720D02*
Y-0000695D01*
X0005190Y0002630D02*
Y-0000785D01*
X0005100Y0002541D02*
Y-0000875D01*
X0004830Y0003250D02*
Y0002992D01*
X0004470Y0003250D02*
Y0003163D01*
X0004665Y-0001310D02*
X0001950D01*
X0004176Y0003010D02*
X0001950D01*
X0005295Y-0000680D02*
X0001950D01*
X0005730Y-0000980D02*
Y-0008330D01*
X0007170Y0000705D02*
Y-0000520D01*
X0005645Y-0000980D02*
X0004959Y-0001666D01*
X0006720Y0002745D02*
Y0001716D01*
X0007710Y-0000815D02*
Y-0004785D01*
X0008070Y-0000680D02*
X0007845D01*
X0008070Y-0000860D02*
X0007694D01*
X0007570Y0000305D02*
Y0000037D01*
X0005100Y0003250D02*
Y0003234D01*
X0005010Y-0001615D02*
Y-0008330D01*
X0005370Y0002745D02*
Y-0000605D01*
X0004681Y0001210D02*
X0004218D01*
X0008070Y-0001400D02*
X0005225D01*
X0007555Y-0000320D02*
X0001950D01*
X0005550Y0002745D02*
Y-0000520D01*
X0004380Y0003250D02*
Y0003164D01*
X0007962Y-0000562D02*
X0007709Y-0000816D01*
X0006540Y0001284D02*
Y-0000520D01*
X0006630Y-0000980D02*
Y-0001575D01*
Y0001211D02*
Y-0000520D01*
X0006540Y-0000980D02*
Y-0001575D01*
X0005115Y-0000860D02*
X0001950D01*
X0007354Y-0000500D02*
X0001950D01*
X0004935Y-0001040D02*
X0001950D01*
X0005550Y-0001075D02*
Y-0008330D01*
X0004920Y0001211D02*
Y-0001055D01*
X0003009Y-0003920D02*
X0002482D01*
X0003300Y0003250D02*
Y-0003489D01*
X0006012Y-0004010D02*
X0003764D01*
X0005915Y-0004100D02*
X0003763D01*
X0005861Y-0004190D02*
X0003728D01*
X0005833Y-0004280D02*
X0003637D01*
X0003210Y-0004121D02*
Y-0005249D01*
X0004740Y-0008970D02*
Y-0009500D01*
X0013800Y-0005810D02*
X0007720D01*
X0005872Y-0003380D02*
X0003190D01*
X0013800Y-0006710D02*
X0007720D01*
X0008937Y-0008420D02*
X0007720D01*
X0005460Y0002745D02*
Y-0000538D01*
X0007530Y0002745D02*
Y0000995D01*
X0007440Y0002745D02*
Y0001085D01*
X0007350Y0002745D02*
Y0001175D01*
X0009420Y0002745D02*
Y0002550D01*
X0003930Y0001660D02*
X0001950D01*
X0004110Y0003250D02*
Y0002867D01*
X0004020Y0003250D02*
Y0002855D01*
X0003930Y0003250D02*
Y0002807D01*
X0005020Y0003181D02*
X0004682Y0002845D01*
X0004830Y0001184D02*
Y-0001145D01*
X0005205Y-0000770D02*
X0001950D01*
X0010860Y-0005180D02*
Y-0007500D01*
X0013650Y-0005180D02*
Y-0007500D01*
X0012300Y-0005180D02*
Y-0007500D01*
X0007890Y-0000635D02*
Y-0009500D01*
X0013800Y-0005540D02*
X0007720D01*
X0013800Y-0007160D02*
X0007720D01*
X0013800Y-0006260D02*
X0007720D01*
X0009380Y-0007880D02*
X0007720D01*
X0013800Y-0007070D02*
X0007720D01*
X0013800Y-0005630D02*
X0007720D01*
X0009278Y-0007970D02*
X0007720D01*
X0013800Y-0007340D02*
X0007720D01*
X0009190Y-0008060D02*
X0007720D01*
X0013800Y-0006350D02*
X0007720D01*
X0013800Y-0007430D02*
X0007720D01*
X0008772Y-0008870D02*
X0007702D01*
X0004200Y-0009448D02*
Y-0009500D01*
X0013800Y-0005720D02*
X0007720D01*
X0007170Y-0009020D02*
Y-0009500D01*
X0002850Y0003250D02*
Y-0003233D01*
X0007530Y-0008917D02*
Y-0009500D01*
X0013800Y-0006620D02*
X0007720D01*
X0003210Y0003250D02*
Y-0003400D01*
X0003030Y0003250D02*
Y-0003250D01*
X0013800Y-0005900D02*
X0007720D01*
X0013800Y-0005990D02*
X0007720D01*
X0013830Y0003250D02*
Y0002365D01*
X0013740Y0003250D02*
Y0002405D01*
X0013650Y0003250D02*
Y0002423D01*
X0013560Y0003250D02*
Y0002422D01*
X0013470Y0003250D02*
Y0002400D01*
X0013380Y0003250D02*
Y0002356D01*
X0010825Y0001930D02*
X0010000D01*
X0013200Y0003250D02*
Y0002199D01*
X0013900Y0002380D02*
X0013802D01*
X0011119Y-0000770D02*
X0008250D01*
X0009420Y0001500D02*
Y-0005000D01*
X0010500Y-0001355D02*
Y-0005000D01*
X0011580Y-0001105D02*
Y-0005000D01*
X0010050Y-0001355D02*
Y-0005000D01*
X0011044Y-0000845D02*
X0009831D01*
X0010770Y0003250D02*
Y-0000845D01*
X0009600Y-0001322D02*
Y-0005000D01*
X0011220Y0001575D02*
Y-0000669D01*
X0011505Y-0001105D02*
X0011333Y-0001277D01*
X0009510Y0001500D02*
Y-0000981D01*
X0011310Y0001575D02*
Y-0000611D01*
X0010500Y0003250D02*
Y-0000845D01*
X0011044D02*
X0009831D01*
X0013186Y-0000590D02*
X0011863D01*
X0011736D02*
X0008250D01*
X0013900Y-0004910D02*
X0008250D01*
X0013900Y-0001220D02*
X0011390D01*
X0011670Y-0001105D02*
Y-0005000D01*
X0009484Y-0001130D02*
X0008250D01*
X0011760Y0001678D02*
Y-0000585D01*
X0010320Y0003250D02*
Y-0000845D01*
X0013020Y0001622D02*
Y-0000595D01*
X0011400Y0001575D02*
Y-0000595D01*
X0009780Y0001500D02*
Y-0000834D01*
X0010950Y0001575D02*
Y-0000845D01*
X0009960Y-0001355D02*
Y-0005000D01*
X0011310Y-0001298D02*
Y-0005000D01*
X0013900Y-0000500D02*
X0008250D01*
X0011490Y-0001120D02*
Y-0005000D01*
X0010230Y0003250D02*
Y-0000845D01*
X0011718Y-0001105D02*
X0011505D01*
X0011220Y-0001345D02*
Y-0005000D01*
X0011850Y-0001113D02*
Y-0005000D01*
X0013900Y-0000680D02*
X0013457D01*
X0010230Y-0001355D02*
Y-0005000D01*
X0013900Y-0001130D02*
X0011480D01*
X0011670Y0001575D02*
Y-0000595D01*
X0011209Y-0000680D02*
X0008250D01*
X0011675Y0002425D02*
X0010825D01*
Y0001575D01*
X0011675D02*
X0010825D01*
Y0001840D02*
X0010000D01*
X0011130Y0003250D02*
Y0002425D01*
X0013290Y0003250D02*
Y0002277D01*
X0011675Y0001778D02*
Y0001575D01*
X0010825Y0002020D02*
X0010000D01*
X0013900Y0001660D02*
X0013867D01*
X0008250Y0001500D02*
Y-0003800D01*
X0010000Y0001500D02*
X0008250D01*
X0013900Y0003250D02*
X0010000D01*
X0013900Y-0005000D02*
X0008250D01*
Y-0003800D02*
Y-0005000D01*
X0013900Y0001687D02*
Y-0005000D01*
X0011940Y-0001105D02*
Y-0005000D01*
X0013830Y0001635D02*
Y-0005000D01*
X0013740Y0001595D02*
Y-0005000D01*
X0013650Y0001577D02*
Y-0005000D01*
X0013560Y0001578D02*
Y-0005000D01*
X0013470Y-0001002D02*
Y-0005000D01*
X0013380Y-0001084D02*
Y-0005000D01*
X0013290Y-0001114D02*
Y-0005000D01*
X0013110Y-0001105D02*
Y-0005000D01*
X0013020Y-0001105D02*
Y-0005000D01*
X0012930Y-0001105D02*
Y-0005000D01*
X0012840Y-0001105D02*
Y-0005000D01*
X0012750Y-0001105D02*
Y-0005000D01*
X0012570Y-0001105D02*
Y-0005000D01*
X0012480Y-0001105D02*
Y-0005000D01*
X0012390Y-0001105D02*
Y-0005000D01*
X0012300Y-0001105D02*
Y-0005000D01*
X0010590Y0003250D02*
Y-0000845D01*
X0013168Y-0001105D02*
X0011881D01*
X0009870Y0001500D02*
Y-0000845D01*
X0013900Y-0001040D02*
X0013438D01*
X0012120Y-0001105D02*
Y-0005000D01*
X0011760Y-0001114D02*
Y-0005000D01*
X0011130Y0001575D02*
Y-0000759D01*
X0011718Y-0001105D02*
X0011505D01*
X0013900Y-0000950D02*
X0013498D01*
X0011400Y-0001210D02*
Y-0005000D01*
X0011217Y-0000672D02*
X0011044Y-0000845D01*
X0009870Y-0001355D02*
Y-0005000D01*
X0011040Y-0001355D02*
Y-0005000D01*
X0010770Y-0001355D02*
Y-0005000D01*
X0010680Y-0001355D02*
Y-0005000D01*
X0010590Y-0001355D02*
Y-0005000D01*
X0009631Y-0000860D02*
X0008250D01*
X0009528Y-0000950D02*
X0008250D01*
X0008340Y0001500D02*
Y-0005000D01*
X0010000Y0003250D02*
Y0002680D01*
X0011040Y0001575D02*
Y-0000845D01*
X0012030Y-0001105D02*
Y-0005000D01*
X0010860Y-0001355D02*
Y-0005000D01*
X0011130Y-0001355D02*
Y-0005000D01*
X0009780Y-0001366D02*
Y-0005000D01*
X0009690Y-0001361D02*
Y-0005000D01*
X0009600Y0001500D02*
Y-0000878D01*
X0009489Y-0001040D02*
X0008250D01*
X0009330Y0001500D02*
Y-0005000D01*
X0009150Y0001500D02*
Y-0005000D01*
X0009060Y0001500D02*
Y-0005000D01*
X0008970Y0001500D02*
Y-0005000D01*
X0008880Y0001500D02*
Y-0005000D01*
X0008790Y0001500D02*
Y-0005000D01*
X0008700Y0001500D02*
Y-0005000D01*
X0008610Y0001500D02*
Y-0005000D01*
X0008520Y0001500D02*
Y-0005000D01*
X0008430Y0001500D02*
Y-0005000D01*
X0010860Y0003250D02*
Y0002425D01*
X0013900Y0003190D02*
X0010000D01*
X0013900Y0003100D02*
X0010000D01*
X0013900Y0003010D02*
X0010000D01*
X0013900Y0002920D02*
X0010000D01*
X0013900Y0002560D02*
X0010068D01*
X0009690Y0001500D02*
Y-0000839D01*
X0012660Y-0001105D02*
Y-0005000D01*
X0010825Y0002290D02*
X0010000D01*
X0010680Y0003250D02*
Y-0000845D01*
X0013900Y0002470D02*
X0010073D01*
X0009240Y0001500D02*
Y-0005000D01*
X0010825Y0002200D02*
X0010000D01*
X0010825Y0002110D02*
X0010000D01*
X0010825Y0001660D02*
X0010000D01*
X0013900Y0001570D02*
X0010000D01*
X0013900Y0001480D02*
X0008250D01*
X0013900Y0001390D02*
X0008250D01*
X0013900Y0001300D02*
X0008250D01*
X0013900Y0001210D02*
X0008250D01*
X0013900Y0001120D02*
X0008250D01*
X0013900Y0001030D02*
X0008250D01*
X0013900Y0000940D02*
X0008250D01*
X0013900Y0000850D02*
X0008250D01*
X0013900Y0000760D02*
X0008250D01*
X0013900Y0000670D02*
X0008250D01*
X0013900Y0000580D02*
X0008250D01*
X0013900Y0000490D02*
X0008250D01*
X0013900Y0000400D02*
X0008250D01*
X0013900Y0000310D02*
X0008250D01*
X0013900Y0000220D02*
X0008250D01*
X0013900Y0000130D02*
X0008250D01*
X0013900Y0000040D02*
X0008250D01*
X0013900Y-0000050D02*
X0008250D01*
X0013900Y-0000140D02*
X0008250D01*
X0013900Y-0000230D02*
X0008250D01*
X0013900Y-0000320D02*
X0008250D01*
X0013900Y-0000410D02*
X0008250D01*
X0012210Y-0001105D02*
Y-0005000D01*
X0009511Y-0001220D02*
X0008250D01*
X0013168Y-0000595D02*
X0011881D01*
X0011505Y-0001105D02*
X0011333Y-0001277D01*
X0010410Y0003250D02*
Y-0000845D01*
Y-0001355D02*
Y-0005000D01*
X0010320Y-0001355D02*
Y-0005000D01*
X0010140Y-0001355D02*
Y-0005000D01*
X0009584Y-0001310D02*
X0008250D01*
X0013900Y-0001400D02*
X0008250D01*
X0013900Y-0001490D02*
X0008250D01*
X0013900Y-0001580D02*
X0008250D01*
X0013900Y-0001670D02*
X0008250D01*
X0013900Y-0001760D02*
X0008250D01*
X0013900Y-0001850D02*
X0008250D01*
X0013900Y-0001940D02*
X0008250D01*
X0013900Y-0002030D02*
X0008250D01*
X0013900Y-0002120D02*
X0008250D01*
X0013900Y-0002210D02*
X0008250D01*
X0013900Y-0002300D02*
X0008250D01*
X0013900Y-0002390D02*
X0008250D01*
X0013900Y-0002480D02*
X0008250D01*
X0013900Y-0002570D02*
X0008250D01*
X0013900Y-0002660D02*
X0008250D01*
X0013900Y-0002750D02*
X0008250D01*
X0013900Y-0002840D02*
X0008250D01*
X0013900Y-0002930D02*
X0008250D01*
X0013900Y-0003020D02*
X0008250D01*
X0013900Y-0003110D02*
X0008250D01*
X0013900Y-0003200D02*
X0008250D01*
X0013900Y-0003290D02*
X0008250D01*
X0013900Y-0003380D02*
X0008250D01*
X0013900Y-0003470D02*
X0008250D01*
X0013900Y-0003560D02*
X0008250D01*
X0013900Y-0003650D02*
X0008250D01*
X0013900Y-0003740D02*
X0008250D01*
X0013900Y-0003830D02*
X0008250D01*
X0013900Y-0003920D02*
X0008250D01*
X0013900Y-0004010D02*
X0008250D01*
X0013900Y-0004100D02*
X0008250D01*
X0013900Y-0004190D02*
X0008250D01*
X0013900Y-0004280D02*
X0008250D01*
X0013900Y-0004370D02*
X0008250D01*
X0013900Y-0004460D02*
X0008250D01*
X0013900Y-0004550D02*
X0008250D01*
X0013900Y-0004640D02*
X0008250D01*
X0013900Y-0004730D02*
X0008250D01*
X0013900Y-0004820D02*
X0008250D01*
X0009960Y0001500D02*
Y-0000845D01*
X0012930Y0001588D02*
Y-0000595D01*
X0012840Y0001575D02*
Y-0000595D01*
X0012750Y0001581D02*
Y-0000595D01*
X0012660Y0001608D02*
Y-0000595D01*
X0012570Y0001660D02*
Y-0000595D01*
X0012480Y0001751D02*
Y-0000595D01*
X0012390Y0001763D02*
Y-0000595D01*
X0012300Y0001666D02*
Y-0000595D01*
X0012210Y0001611D02*
Y-0000595D01*
X0012120Y0001583D02*
Y-0000595D01*
X0013900Y-0000590D02*
X0013313D01*
X0013900Y-0000860D02*
X0013517D01*
X0013470Y0001599D02*
Y-0000697D01*
X0013380Y0001644D02*
Y-0000616D01*
X0013290Y0001722D02*
Y-0000585D01*
X0013200Y0001800D02*
Y-0000587D01*
X0010860Y0001575D02*
Y-0000845D01*
X0011940Y0001586D02*
Y-0000595D01*
X0010050Y0003250D02*
Y0002610D01*
X0011150Y-0001355D02*
X0009831D01*
X0010050Y0002390D02*
Y-0000845D01*
X0013200Y-0001113D02*
Y-0005000D01*
X0009510Y-0001218D02*
Y-0005000D01*
X0011580Y0001575D02*
Y-0000595D01*
X0010950Y-0001355D02*
Y-0005000D01*
X0011217Y-0000672D02*
X0011044Y-0000845D01*
X0011490Y0001575D02*
Y-0000595D01*
X0013900Y-0001310D02*
X0011294D01*
X0013110Y0001685D02*
Y-0000595D01*
X0012030Y0001575D02*
Y-0000595D01*
X0011850Y0001618D02*
Y-0000587D01*
X0010825Y0001750D02*
X0010000D01*
X0011718Y-0000595D02*
X0011400D01*
X0010140Y0003250D02*
Y-0000845D01*
X0013900Y0002650D02*
X0010026D01*
X0013900Y0002740D02*
X0010000D01*
Y0002319D02*
Y0001500D01*
X0013900Y0002830D02*
X0010000D01*
X0010825Y0002380D02*
X0010045D01*
X0013900Y-0000770D02*
X0013505D01*
X0011580Y0003250D02*
Y0002425D01*
X0011490Y0003250D02*
Y0002425D01*
X0011400Y0003250D02*
Y0002425D01*
X0011310Y0003250D02*
Y0002425D01*
X0011220Y0003250D02*
Y0002425D01*
X0011040Y0003250D02*
Y0002425D01*
X0010950Y0003250D02*
Y0002425D01*
X0011847Y0002380D02*
X0011675D01*
X0011726Y0002290D02*
X0011675D01*
X0011693Y0001750D02*
X0011675D01*
X0011782Y0001660D02*
X0011675D01*
X0011670Y0003250D02*
Y0002425D01*
X0012390Y0003250D02*
Y0002237D01*
X0012300Y0003250D02*
Y0002334D01*
X0012210Y0003250D02*
Y0002388D01*
X0012120Y0003250D02*
Y0002417D01*
X0012030Y0003250D02*
Y0002425D01*
X0011940Y0003250D02*
Y0002414D01*
X0011850Y0003250D02*
Y0002381D01*
X0011505Y-0001105D02*
X0011333Y-0001277D01*
X0012634Y0002380D02*
X0012227D01*
X0012514Y0002290D02*
X0012348D01*
X0012450Y0002200D02*
X0012412D01*
X0012481Y0001750D02*
X0012381D01*
X0012570Y0001660D02*
X0012292D01*
X0011675Y0002425D02*
Y0002222D01*
X0011760Y0003250D02*
Y0002322D01*
X0013110Y0003250D02*
Y0002315D01*
X0013020Y0003250D02*
Y0002377D01*
X0012930Y0003250D02*
Y0002412D01*
X0012840Y0003250D02*
Y0002425D01*
X0012750Y0003250D02*
Y0002418D01*
X0012660Y0003250D02*
Y0002392D01*
X0012570Y0003250D02*
Y0002340D01*
X0013422Y0002380D02*
X0013015D01*
X0013301Y0002290D02*
X0013135D01*
X0013237Y0002200D02*
X0013200D01*
X0013268Y0001750D02*
X0013168D01*
X0013357Y0001660D02*
X0013080D01*
X0013900Y0003250D02*
Y0002312D01*
X0012480Y0003250D02*
Y0002248D01*
G01X0006750Y0001718D02*
G03X0006482Y0001450I0000000J0000268D01*
G01X0007532Y-0000100D02*
G03X0007570Y-0000237I0000268J0000000D01*
G01X0008030D02*
G03X0008068Y-0000100I0000230J0000137D01*
G01X0007532D02*
G03X0007570Y-0000237I0000268J0000000D01*
G01X0008068Y-0000100D02*
G03X0008030Y0000037I0000268J0000000D01*
Y-0000237D02*
G03X0008068Y-0000100I0000230J0000137D01*
G01X0006870Y-0004800D02*
G03X0006820Y-0004680I0000170J0000000D01*
G01X0004358Y0001519D02*
G03X0004420Y0001512I0000062J0000261D01*
G01X0004152Y0002900D02*
G03X0004155Y0002862I0000268J0000000D01*
G01X0003832Y0002600D02*
G03X0003930Y0002393I0000268J0000000D01*
G01X0004100Y0002868D02*
G03X0003832Y0002600I0000000J0000268D01*
Y0001450D02*
G03X0004100Y0001182I0000268J0000000D01*
G03X0004368Y0001450I0000000J0000268D01*
G01X0007282Y-0008650D02*
G03X0007550Y-0008918I0000268J0000000D01*
G03X0007818Y-0008650I0000000J0000268D01*
G03X0007720Y-0008443I0000268J0000000D01*
G01X0007380D02*
G03X0007282Y-0008650I0000170J0000207D01*
Y-0005000D02*
G03X0007380Y-0005207I0000268J0000000D01*
G01X0007818Y-0005000D02*
G03X0007550Y-0004732I0000268J0000000D01*
G03X0007282Y-0005000I0000000J0000268D01*
G01X0002970Y-0005730D02*
G03X0003150Y-0005805I0000180J0000180D01*
G01X0003450Y-0005818D02*
G03X0003718Y-0005550I0000000J0000268D01*
G03X0003450Y-0005282I0000268J0000000D01*
G01X0002590Y-0004808D02*
G03X0002410Y-0004669I0000340J0000255D01*
G01X0003450Y-0005282D02*
G03X0003368Y-0005295I0000000J0000268D01*
G01X0002472Y-0008575D02*
G03X0002675Y-0008213I0000222J0000362D01*
G01X0002843Y-0004883D02*
G03X0002663Y-0004808I0000180J0000180D01*
G01X0003980Y-0008680D02*
G03X0003930Y-0008800I0000120J0000120D01*
G01X0003832Y-0009200D02*
G03X0004100Y-0009468I0000268J0000000D01*
G03X0004368Y-0009200I0000000J0000268D01*
G01X0004270Y-0008937D02*
G03X0004500Y-0009068I0000230J0000137D01*
G01X0004401Y-0008330D02*
G03X0004280Y-0008380I0000000J0000170D01*
G01X0004401Y-0008330D02*
G03X0004280Y-0008380I0000000J0000170D01*
G01X0006028Y-0002425D02*
G03X0005825Y-0002787I0000222J0000362D01*
G01X0006649Y-0004509D02*
G03X0006675Y-0004362I0000399J0000147D01*
G01X0006870Y-0004800D02*
G03X0006820Y-0004680I0000170J0000000D01*
G01X0007220Y-0008970D02*
G03X0007270Y-0008850I0000120J0000120D01*
Y-0007200D02*
G03X0007220Y-0007080I0000170J0000000D01*
G01X0008030Y0000400D02*
G03X0007962Y0000562I0000230J0000000D01*
G01X0004500Y-0009068D02*
G03X0004707Y-0008970I0000000J0000268D01*
G01X0005825Y-0002787D02*
G03X0006090Y-0003181I0000425J0000000D01*
G01X0006675Y-0002787D02*
G03X0006472Y-0002425I0000425J0000000D01*
G01X0005825Y-0003575D02*
G03X0006090Y-0003969I0000425J0000000D01*
G01X0006675Y-0003575D02*
G03X0006410Y-0003181I0000425J0000000D01*
G01X0005825Y-0004362D02*
G03X0006090Y-0004756I0000425J0000000D01*
G01X0006410Y-0003181D02*
G03X0006675Y-0002787I0000160J0000394D01*
Y-0004362D02*
G03X0006410Y-0003969I0000425J0000000D01*
G01X0005825Y-0005150D02*
G03X0006090Y-0005543I0000425J0000000D01*
G01X0006410Y-0003969D02*
G03X0006675Y-0003575I0000160J0000394D01*
G01X0005825Y-0005937D02*
G03X0006090Y-0006331I0000425J0000000D01*
G01X0005825Y-0006724D02*
G03X0006090Y-0007118I0000425J0000000D01*
G01X0005825Y-0008299D02*
G03X0005826Y-0008330I0000425J0000000D01*
G01X0005825Y-0007512D02*
G03X0006090Y-0007906I0000425J0000000D01*
G01X0002675Y-0008213D02*
G03X0002410Y-0007819I0000425J0000000D01*
G01X0002675Y-0007425D02*
G03X0002410Y-0007032I0000425J0000000D01*
G01X0004368Y-0009200D02*
G03X0004270Y-0008993I0000268J0000000D01*
G01X0002675Y-0006638D02*
G03X0002410Y-0006244I0000425J0000000D01*
G01X0002675Y-0005850D02*
G03X0002410Y-0005457I0000425J0000000D01*
G01X0006090Y-0006331D02*
G03X0005826Y-0006724I0000160J0000393D01*
G01X0002675Y-0004276D02*
G03X0002410Y-0003882I0000425J0000000D01*
G01X0006090Y-0003181D02*
G03X0005825Y-0003575I0000160J0000394D01*
G01X0002675Y-0002701D02*
G03X0002410Y-0002307I0000425J0000000D01*
G01X0002675Y-0001913D02*
G03X0002250Y-0001488I0000425J0000000D01*
G01X0010750Y-0007500D02*
G03X0010497Y-0007482I0000253J0001748D01*
G03X0008731Y-0009248I0000000J0001766D01*
G03X0008750Y-0009500I0001766J0000000D01*
G01X0007270Y-0007200D02*
G03X0007220Y-0007080I0000170J0000000D01*
G01X0003930Y-0008993D02*
G03X0003832Y-0009200I0000170J0000207D01*
G01X0002410Y-0003095D02*
G03X0002675Y-0002701I0000160J0000394D01*
G01X0003118Y-0003308D02*
G03X0002938Y-0003233I0000180J0000180D01*
G01X0002410Y-0004669D02*
G03X0002674Y-0004276I0000160J0000393D01*
G01X0003368Y-0005805D02*
G03X0003450Y-0005818I0000082J0000255D01*
G01X0005150Y0003250D02*
G03X0005020Y0003181I0000050J0000250D01*
G01X0007570Y0000037D02*
G03X0007532Y-0000100I0000230J0000137D01*
G01X0004634Y-0001340D02*
G03X0004432Y-0001600I0000066J0000260D01*
G01X0002410Y-0002307D02*
G03X0002675Y-0001913I0000160J0000394D01*
G01X0002410Y-0007032D02*
G03X0002675Y-0006638I0000160J0000394D01*
G01X0006090Y-0004756D02*
G03X0005825Y-0005150I0000160J0000394D01*
G01X0002410Y-0007819D02*
G03X0002675Y-0007425I0000160J0000394D01*
G01X0002410Y-0005457D02*
G03X0002575Y-0005336I0000160J0000394D01*
G01X0006090Y-0007906D02*
G03X0005826Y-0008299I0000160J0000393D01*
G01X0002590Y-0003233D02*
G03X0002410Y-0003095I0000340J0000255D01*
G01X0005150Y0003250D02*
G03X0005020Y0003181I0000050J0000250D01*
G01X0007720Y-0005207D02*
G03X0007818Y-0005000I0000170J0000207D01*
G01X0005550Y-0000520D02*
G03X0005387Y-0000587I0000000J0000230D01*
G01X0006090Y-0007118D02*
G03X0005825Y-0007512I0000160J0000394D01*
G01X0006090Y-0005543D02*
G03X0005825Y-0005937I0000160J0000394D01*
G01X0002843Y-0004883D02*
G03X0002663Y-0004808I0000180J0000180D01*
G01X0002410Y-0003882D02*
G03X0002590Y-0003743I0000160J0000394D01*
G01X0006090Y-0003969D02*
G03X0005826Y-0004362I0000160J0000393D01*
G01X0002410Y-0006244D02*
G03X0002675Y-0005850I0000160J0000394D01*
G01X0008250Y0001680D02*
G03X0008070Y0001500I0000000J0000180D01*
Y-0005000D02*
G03X0008250Y-0005180I0000180J0000000D01*
G01X0009415Y0002500D02*
G03X0009670Y0002245I0000255J0000000D01*
G01X0008650Y0001818D02*
G03X0008416Y0001680I0000000J0000268D01*
G01X0009599Y0002745D02*
G03X0009415Y0002500I0000071J0000245D01*
G01X0004688Y0002900D02*
G03X0004420Y0003168I0000268J0000000D01*
G03X0004152Y0002900I0000000J0000268D01*
G01X0004155Y0002862D02*
G03X0004100Y0002868I0000055J0000262D01*
G01X0008884Y0001680D02*
G03X0008650Y0001818I0000234J0000130D01*
G01X0004682Y0002845D02*
G03X0004688Y0002900I0000262J0000055D01*
G01X0004532Y0001450D02*
G03X0004800Y0001182I0000268J0000000D01*
G03X0005068Y0001450I0000000J0000268D01*
G01X0004368D02*
G03X0004358Y0001519I0000268J0000000D01*
G01X0005068Y0001450D02*
G03X0005055Y0001531I0000268J0000000D01*
G01X0004545D02*
G03X0004532Y0001450I0000255J0000081D01*
G01X0007962Y-0000562D02*
G03X0008029Y-0000400I0000162J0000162D01*
G01X0008068Y-0000100D02*
G03X0008030Y0000037I0000268J0000000D01*
G01X0007384Y-0000490D02*
G03X0007313Y-0000520I0000066J0000260D01*
G01X0007570Y0000037D02*
G03X0007532Y-0000100I0000230J0000137D01*
G01X0007450Y-0001018D02*
G03X0007709Y-0000816I0000000J0000268D01*
G01X0002250Y-0001488D02*
G03X0001950Y-0001612I0000000J0000425D01*
G01X0007313Y-0000980D02*
G03X0007450Y-0001018I0000137J0000230D01*
G01X0004432Y-0001600D02*
G03X0004700Y-0001868I0000268J0000000D01*
G01X0003500Y-0004318D02*
G03X0003768Y-0004050I0000000J0000268D01*
G01X0003262Y-0004173D02*
G03X0003500Y-0004318I0000238J0000123D01*
G01X0003768Y-0004050D02*
G03X0003622Y-0003812I0000268J0000000D01*
G01X0004700Y-0001868D02*
G03X0004959Y-0001666I0000000J0000268D01*
G01X0003118Y-0003308D02*
G03X0002938Y-0003233I0000180J0000180D01*
G01X0007009Y0001516D02*
G03X0006750Y0001717I0000259J0000066D01*
G01X0006482Y0001450D02*
G03X0006684Y0001190I0000268J0000000D01*
G01X0004420Y0001512D02*
G03X0004545Y0001543I0000000J0000268D01*
G01X0003930Y0001657D02*
G03X0003832Y0001450I0000170J0000207D01*
G01X0010000Y0002319D02*
G03X0010075Y0002500I0000180J0000181D01*
G01X0011800Y-0000582D02*
G03X0011718Y-0000595I0000000J0000268D01*
G01X0011400D02*
G03X0011220Y-0000670I0000000J0000255D01*
G01X0011881Y-0000595D02*
G03X0011800Y-0000582I0000081J0000255D01*
G01X0009831Y-0000845D02*
G03X0009750Y-0000832I0000081J0000255D01*
G01X0011800Y-0001118D02*
G03X0011881Y-0001105I0000000J0000268D01*
G01X0013250Y-0001118D02*
G03X0013518Y-0000850I0000000J0000268D01*
G03X0013250Y-0000582I0000268J0000000D01*
G01X0011881Y-0000595D02*
G03X0011800Y-0000582I0000081J0000255D01*
G01X0011718Y-0001105D02*
G03X0011800Y-0001118I0000082J0000255D01*
G01X0011150Y-0001355D02*
G03X0011330Y-0001280I0000000J0000255D01*
G01X0009482Y-0001100D02*
G03X0009750Y-0001368I0000268J0000000D01*
Y-0000832D02*
G03X0009482Y-0001100I0000000J0000268D01*
G01X0011800Y-0000582D02*
G03X0011718Y-0000595I0000000J0000268D01*
G01X0009750Y-0001368D02*
G03X0009831Y-0001355I0000000J0000268D01*
G01X0011400Y-0000595D02*
G03X0011220Y-0000670I0000000J0000255D01*
G01X0013250Y-0000582D02*
G03X0013168Y-0000595I0000000J0000268D01*
G01X0012037Y0001575D02*
G03X0012431Y0001840I0000000J0000425D01*
G01X0011675Y0001778D02*
G03X0012037Y0001575I0000362J0000222D01*
G01X0012825D02*
G03X0013218Y0001840I0000000J0000425D01*
G01X0012431D02*
G03X0012825Y0001575I0000394J0000160D01*
G01X0012431Y0002160D02*
G03X0012037Y0002425I0000394J0000160D01*
G01X0013612Y0001575D02*
G03X0013900Y0001687I0000000J0000425D01*
G01X0013218Y0001840D02*
G03X0013612Y0001575I0000394J0000160D01*
Y0002425D02*
G03X0013218Y0002160I0000000J0000425D01*
G01X0013168Y-0001105D02*
G03X0013250Y-0001118I0000082J0000255D01*
G01X0011800D02*
G03X0011881Y-0001105I0000000J0000268D01*
G01X0011718D02*
G03X0011800Y-0001118I0000082J0000255D01*
G01X0012037Y0002425D02*
G03X0011675Y0002222I0000000J0000425D01*
G01X0010075Y0002500D02*
G03X0010000Y0002680I0000255J0000000D01*
G01X0012825Y0002425D02*
G03X0012431Y0002160I0000000J0000425D01*
G01X0013218D02*
G03X0012825Y0002424I0000393J0000160D01*
G01X0013900Y0002312D02*
G03X0013612Y0002425I0000288J0000312D01*
G54D36*
G01X0004420Y0001780D02*
Y0002900D01*
X0008650Y0001550D02*
Y0001500D01*
X0008850Y0001300D01*
X0009700D01*
X0010000Y0001600D01*
Y0002500D01*
X0004100Y0002600D02*
Y0001450D01*
X0007550Y-0008650D02*
Y-0005000D01*
X0004100Y-0009200D02*
Y-0008800D01*
X0004401Y-0008500D01*
X0006050D01*
X0006250Y-0008299D01*
Y-0004362D02*
X0006262D01*
X0006700Y-0004800D01*
Y-0006800D01*
X0007100Y-0007200D01*
Y-0008850D01*
X0006400Y-0009550D01*
X0006100D01*
X0005350Y-0008800D01*
X0004500D01*
G54D39*
G01X0008750Y-0009300D02*
Y-0008600D01*
X0007800Y-0000100D02*
Y-0000400D01*
X0007450Y-0000750D01*
X0005550D01*
X0004700Y-0001600D01*
X0007450Y-0000750D02*
X0005550D01*
X0004700Y-0001600D01*
X0006750Y0001450D02*
X0007800Y0000400D01*
Y-0000100D01*
G54D40*
G01X0016123Y-0010340D02*
X0016057Y-0010293D01*
X0015990Y-0010270D01*
X0015857D01*
X0015790Y-0010293D01*
X0015723Y-0010340D01*
Y-0010387D01*
X0015790Y-0010433D01*
X0015857Y-0010457D01*
X0015990D01*
X0016057Y-0010433D01*
X0016123Y-0010387D01*
Y-0010340D01*
X0015923Y-0010127D02*
Y-0009940D01*
X0015990Y-0009797D02*
Y-0009610D01*
X0016123Y-0009797D02*
X0015923D01*
X0015723Y-0009727D01*
Y-0009680D01*
X0015923Y-0009610D01*
X0016123D01*
X0015990Y-0009467D02*
Y-0009280D01*
X0015723Y-0009373D01*
Y-0009420D01*
X0016123D01*
Y-0009020D02*
X0016057Y-0008973D01*
X0015990Y-0008950D01*
X0015857D01*
X0015790Y-0008973D01*
X0015723Y-0009020D01*
Y-0009067D01*
X0015790Y-0009113D01*
X0015857Y-0009137D01*
X0015990D01*
X0016057Y-0009113D01*
X0016123Y-0009067D01*
Y-0009020D01*
X0016057Y-0008620D02*
X0016123Y-0008667D01*
Y-0008760D01*
X0016057Y-0008807D01*
X0015990D01*
X0015857Y-0008713D01*
X0015723Y-0008807D01*
Y-0008620D01*
X0015923Y-0008477D02*
Y-0008290D01*
X0016123Y-0008147D02*
Y-0007960D01*
X0015857Y-0008147D01*
X0015790D01*
X0015723Y-0008123D01*
Y-0007983D01*
X0015790Y-0007960D01*
X0016123Y-0007817D02*
Y-0007630D01*
X0015857Y-0007817D01*
X0015790D01*
X0015723Y-0007793D01*
Y-0007653D01*
X0015790Y-0007630D01*
X0004857Y-0010833D02*
X0004810D01*
Y-0010767D01*
X0004857D01*
Y-0010833D01*
X0005047Y-0010500D02*
X0005070Y-0010433D01*
X0005210D01*
X0005233Y-0010500D01*
Y-0010567D01*
X0005210Y-0010633D01*
X0005070D01*
X0005047Y-0010700D01*
Y-0010767D01*
X0005070Y-0010833D01*
X0005210D01*
X0005233Y-0010767D01*
X0005423Y-0010833D02*
X0005377D01*
Y-0010767D01*
X0005423D01*
Y-0010833D01*
X0005613D02*
X0005777D01*
Y-0010433D01*
G54D10*
X0011220Y-0009842D03*
X0000000Y0000000D03*
G54D23*
X0011250Y0002000D03*
X0006250Y-0002000D03*
X0002250Y-0009000D03*
G54D24*
X0013612Y0002000D03*
X0012825D03*
X0012037D03*
X0006250Y-0009087D03*
Y-0008299D03*
Y-0007512D03*
Y-0006724D03*
Y-0005937D03*
Y-0005150D03*
Y-0004362D03*
Y-0003575D03*
Y-0002787D03*
X0002250Y-0001913D03*
Y-0002701D03*
Y-0003488D03*
Y-0004276D03*
Y-0005063D03*
Y-0005850D03*
Y-0006638D03*
Y-0007425D03*
Y-0008213D03*
G54D31*
X0009500Y0002500D03*
X0010000D03*
G54D33*
X0008750Y-0009300D03*
X0009050Y-0002050D03*
X0008550D03*
X0010150Y-0001500D03*
X0009600D03*
X0010350Y-0002050D03*
X0010450Y0000750D03*
X0010150Y-0000500D03*
X0009600D03*
Y-0002050D03*
X0010350Y-0003000D03*
Y-0003450D03*
X0009600D03*
Y-0003000D03*
Y-0002550D03*
X0010350D03*
X0011150Y-0003450D03*
Y-0003000D03*
Y-0002550D03*
X0013750Y-0003400D03*
Y-0003000D03*
Y-0002600D03*
X0011850Y-0003450D03*
Y-0003000D03*
X0012500D03*
Y-0003450D03*
X0013200D03*
Y-0003000D03*
Y-0002600D03*
X0012500D03*
X0011850D03*
G54D38*
X0004420Y0001780D03*
Y0002900D03*
X0013250Y0000250D03*
X0010450D03*
X0011750D03*
X0008650Y0001550D03*
X0004800Y0001450D03*
X0008750Y-0008600D03*
X0003470Y-0000870D03*
X0007450Y-0000750D03*
X0004700Y-0001600D03*
X0003500Y-0004050D03*
X0002400Y-0001000D03*
X0006750Y0001450D03*
X0007800Y-0000100D03*
X0007050Y-0000350D03*
X0012750Y-0006750D03*
X0012000D03*
X0013250Y-0000850D03*
X0010500Y-0006750D03*
X0011250D03*
X0002850Y0001700D03*
X0009400Y0001950D03*
X0004100Y0002600D03*
Y0001450D03*
X0009750Y-0001100D03*
X0011800Y-0000850D03*
X0013500Y-0006750D03*
X0007550Y-0008650D03*
Y-0005000D03*
X0003450Y-0005550D03*
X0009500Y-0006300D03*
X0008600Y-0008000D03*
X0004100Y-0009200D03*
G54D41*
X0004500Y-0008800D03*
M02*
