*
G04 Mass Parameters ***
*
G04 Image ***
*
%IND:\UTENTI\00.LAVORI IN CORSO\METALTRONICA\22-304A-0\22-304A-0.TOP*%
%ICAS*%
%MOIN*%
%IPPOS*%
%ASAXBY*%
G74*%FSLAN2X34Y34*%
*
G04 Aperture Definitions ***
*
%ADD10C,0.1260*%
%ADD11C,0.0394*%
%ADD12R,0.0380X0.0320*%
%ADD13R,0.0501X0.0404*%
%ADD14R,0.0630X0.1260*%
%ADD15R,0.0710X0.0400*%
%ADD16R,0.0550X0.0350*%
%ADD17R,0.0350X0.0550*%
%ADD18R,0.0550X0.0350*%
%ADD19R,0.0197X0.0315*%
%ADD20R,0.0501X0.0404*%
%ADD21R,0.0118X0.0472*%
%ADD22R,0.1063X0.1181*%
%ADD23R,0.0590X0.0590*%
%ADD24C,0.0590*%
%ADD25R,0.0500X0.0400*%
%ADD26R,0.0400X0.0500*%
%ADD27R,0.0380X0.0320*%
%ADD28R,0.0710X0.0400*%
%ADD29R,0.1701X0.1181*%
%ADD30R,0.0177X0.0649*%
%ADD31R,0.0350X0.0250*%
%ADD32R,0.0250X0.0350*%
%ADD33C,0.0276*%
%ADD34C,0.0250*%
%ADD35C,0.0100*%
%ADD36C,0.0080*%
%ADD37C,0.0170*%
%ADD38C,0.0276*%
%ADD39C,0.0200*%
%ADD40C,0.0060*%
*
G04 Plot Data ***
*
G54D34*
G01X0006250Y-0009087D02*
X0006287Y-0009050D01*
X0006450D01*
X0007470Y-0008030D01*
X0007500D01*
X0013250Y0000910D02*
Y0000250D01*
X0011750D02*
Y0000910D01*
Y0000250D02*
Y0000910D01*
X0008250Y-0008000D02*
Y-0008600D01*
X0009500Y-0006910D02*
Y-0006300D01*
X0004000Y-0000870D02*
X0003470D01*
X0006250Y-0005150D02*
X0006850D01*
Y-0003400D01*
X0006250Y-0002800D01*
Y-0002787D01*
X0003500Y-0004470D02*
X0003720D01*
X0003900Y-0004650D01*
Y-0005700D01*
X0003500Y-0006100D01*
Y-0006750D01*
X0009500Y-0006300D02*
Y-0006910D01*
X0001500Y-0001500D02*
X0001900D01*
X0002400Y-0001000D01*
X0003470Y-0000870D02*
X0004000D01*
X0005000Y-0005220D02*
X0004880D01*
X0004600Y-0005500D01*
Y-0006600D01*
X0005250Y-0007250D01*
Y-0007500D01*
X0003500Y-0004470D02*
Y-0004050D01*
X0006250Y-0006724D02*
X0006850D01*
Y-0005150D01*
X0006250D01*
X0005000Y-0005220D02*
X0005050D01*
Y-0003530D01*
X0005000D01*
X0001500Y-0001500D02*
X0001900D01*
X0002400Y-0001000D01*
X0007050Y-0000350D02*
X0006950Y-0000250D01*
X0006370D01*
X0004700Y-0001600D02*
X0004750Y-0001550D01*
Y-0000780D01*
X0004700Y-0001600D02*
X0004750D01*
Y-0002550D01*
X0004250Y-0003050D01*
Y-0003500D01*
X0009084Y-0001100D02*
X0009750D01*
X0002250Y-0005850D02*
X0001550D01*
Y-0005851D01*
Y-0008000D01*
X0001763Y-0008213D01*
X0002250D01*
X0008300Y-0001100D02*
X0009050D01*
X0007250Y0000220D02*
X0007350Y0000120D01*
Y-0000150D01*
X0008300Y-0001100D01*
X0009050D01*
X0006250Y-0003575D02*
X0006205Y-0003530D01*
X0005050D01*
X0005000D01*
X0002250Y-0001913D02*
X0002163Y-0002000D01*
X0001500D01*
X0002250Y-0004276D02*
X0001550D01*
Y-0002050D01*
X0001500Y-0002000D01*
X0003500Y-0006750D02*
X0002925D01*
X0002250Y-0007425D01*
X0007500Y-0009780D02*
Y-0009800D01*
X0005650D01*
X0005250Y-0009400D01*
Y-0008000D01*
X0002250Y-0005850D02*
X0001550D01*
Y-0004276D01*
X0002250D01*
X0007500Y-0007470D02*
X0006292D01*
X0006250Y-0007512D01*
X0005000Y-0002970D02*
Y-0002900D01*
X0005900Y-0002000D01*
X0006250D01*
X0004000Y-0006750D02*
X0004200D01*
X0004800Y-0007350D01*
Y-0007800D01*
X0005000Y-0008000D01*
X0005250D01*
X0009000Y-0001016D02*
X0009050Y-0001066D01*
Y-0001100D01*
X0008300D01*
X0007350Y-0000150D01*
Y0000120D01*
X0007250Y0000220D01*
X0009000Y-0001016D02*
X0009050Y-0001066D01*
X0009084Y-0001100D02*
X0009750D01*
X0002250Y-0007425D02*
X0002545Y-0007720D01*
X0003500D01*
X0004250Y-0008280D02*
X0003530Y-0009000D01*
X0002250D01*
X0004000Y-0006750D02*
X0004200D01*
X0004250D01*
Y-0004000D01*
X0003500Y-0005030D02*
X0003450Y-0005080D01*
Y-0005550D01*
X0009500Y-0006910D02*
Y-0006300D01*
X0008600Y-0008000D02*
X0008250D01*
X0004250Y-0007720D02*
X0003500D01*
X0008250Y-0007500D02*
X0007474Y-0006724D01*
X0006850D01*
X0006250D01*
X0008250Y-0009400D02*
X0007800D01*
X0007620Y-0009220D01*
X0007500D01*
X0005000Y-0005780D02*
X0006093D01*
X0006250Y-0005937D01*
X0005250Y-0007500D02*
X0006238D01*
X0006250Y-0007512D01*
X0002250Y-0008213D02*
X0003433D01*
X0003500Y-0008280D01*
X0001500Y-0001820D02*
Y-0001670D01*
X0008250Y-0007680D02*
Y-0007830D01*
X0004250Y-0003820D02*
Y-0003670D01*
X0005250Y-0007820D02*
Y-0007670D01*
X0003820Y-0006750D02*
X0003670D01*
G54D35*
G01X0006020Y0000255D02*
Y-0001229D01*
X0007570Y0001070D02*
X0006930D01*
Y0000685D01*
X0005141Y0000270D02*
X0004570D01*
X0004495Y-0002340D02*
X0004381D01*
X0007869Y0000900D02*
X0007570D01*
X0004490Y-0001830D02*
Y-0002449D01*
X0014131Y-0009318D02*
Y-0009329D01*
X0004008Y-0002970D02*
X0003320D01*
X0004850Y-0008206D02*
Y-0011250D01*
X0006830Y-0010055D02*
Y-0011250D01*
X0008070Y-0005570D02*
Y-0006330D01*
X0008570Y-0005570D02*
X0008070D01*
X0008570Y-0006330D02*
X0008070D01*
X0007930Y-0005570D02*
X0007460D01*
X0008330Y-0004670D02*
X0007670D01*
X0007640Y-0005252D02*
Y-0005570D01*
X0008330Y-0005430D02*
X0007670D01*
X0008330Y-0004670D02*
Y-0005430D01*
X0009630Y0001620D02*
X0008908D01*
X0008520Y0002330D02*
Y0001784D01*
X0009280Y0002330D02*
Y0001670D01*
Y0002330D02*
X0008520D01*
X0011780Y0004150D02*
Y0003520D01*
X0009420Y0002430D02*
X0008600D01*
X0009280Y0002630D02*
Y0002470D01*
X0009630Y0001320D02*
X0009430D01*
X0009420Y0002630D02*
Y0002070D01*
X0009630Y0001710D02*
X0009280D01*
X0008383Y0001575D02*
X0007595D01*
X0016250Y0003060D02*
X0016230D01*
X0007620Y-0002070D02*
X0006870D01*
X0015650Y-0010643D02*
Y-0011250D01*
X0007620Y-0002700D02*
X0006870D01*
X0006470Y-0000655D02*
Y-0001380D01*
X0007620Y-0003690D02*
X0007370D01*
X0007620Y-0001800D02*
X0006870D01*
X0005072Y-0009583D02*
X0005467Y-0009977D01*
X0000630Y-0006840D02*
X-0001000D01*
X0000631Y-0008820D02*
X-0001000D01*
X0003680Y-0009710D02*
Y-0010223D01*
X0003619Y-0002610D02*
X0003320D01*
X0001755Y-0001695D02*
Y-0001745D01*
X0007869Y0001170D02*
X0005405D01*
Y0001193D02*
X0005209D01*
X0004381Y-0002068D02*
Y-0002559D01*
X0016250Y-0006660D02*
X0015420D01*
X0016250Y-0006750D02*
X0015420D01*
X0016250Y-0006570D02*
X0015420D01*
X0007869Y0001080D02*
X0005405D01*
X0016250Y-0004590D02*
X0014170D01*
X0014272Y-0009106D02*
Y-0009227D01*
X0006930Y0000720D02*
X0005431D01*
X0004815Y0000461D02*
X0004634D01*
X0004421D02*
X0004402D01*
X0005209Y0001193D02*
X0005027D01*
X0004634Y0000461D02*
X0004618D01*
X0004437D01*
X0003668Y0001530D02*
X-0001000D01*
X0003950Y0004150D02*
Y0002822D01*
X0006482Y0001440D02*
X0005067D01*
X0002530Y-0001350D02*
X0001755D01*
X0003453Y0001193D02*
X0003437D01*
X0004402Y0000438D02*
X0004770Y0000070D01*
X0003590Y0004150D02*
Y0001193D01*
X0012590Y-0010002D02*
Y-0011250D01*
X0004153Y0001800D02*
X0004008D01*
X-0000550Y0004150D02*
Y0001264D01*
X0002510Y0004150D02*
Y0001193D01*
X0004850Y0000439D02*
Y0000070D01*
X0002862Y0001193D02*
X0002846D01*
X0005210Y0004150D02*
Y0003070D01*
X0003634Y0001193D02*
X0003453D01*
X0002530Y-0001080D02*
X0001910D01*
X-0000466Y0003690D02*
X-0001000D01*
X0003410Y0004150D02*
Y0001193D01*
X-0000640Y0004150D02*
Y0001221D01*
X0002468Y0001193D02*
Y0000461D01*
X0002846Y0001193D02*
X0002665D01*
X0007869Y0000682D02*
Y0000550D01*
X0004130Y0004150D02*
Y0002866D01*
X0008360Y0001575D02*
Y0001500D01*
X0005390Y0004150D02*
Y0003070D01*
X0009350Y-0008570D02*
Y-0008830D01*
X0008631Y-0009732D02*
X0007869D01*
X0009530Y-0009170D02*
Y-0010374D01*
X0012680Y-0007510D02*
Y-0007565D01*
X0009530Y-0008570D02*
Y-0008779D01*
X0009710Y-0009080D02*
Y-0010415D01*
X0007869Y0001482D02*
Y0000818D01*
X0005030Y0004150D02*
Y0003070D01*
X0008631Y0000818D02*
X0008619D01*
X0007869D01*
X0014660Y-0008100D02*
Y-0008319D01*
X0014728Y-0008894D02*
X0014272D01*
X0014728Y-0008319D02*
Y-0008894D01*
X0014272Y-0008618D02*
Y-0008894D01*
X0014728Y-0009681D02*
X0014272D01*
X0004040Y0004150D02*
Y0002861D01*
X0014728Y-0009106D02*
X0014272D01*
X0014772Y-0008319D02*
Y-0008894D01*
X0015020D02*
Y-0009039D01*
X0014728Y-0009106D02*
Y-0009224D01*
X0015228Y-0009681D02*
X0014772D01*
X0015080Y-0008894D02*
X0014772D01*
X0015228Y-0009312D02*
Y-0009681D01*
X0008341Y0001482D02*
X0007869D01*
X0007570Y0002110D02*
Y0002010D01*
X0009800Y0004150D02*
Y0003520D01*
X0008405Y0002185D02*
X0007845D01*
X0003595Y-0000565D02*
Y-0001175D01*
X0004405D02*
X0003595D01*
X0004149Y-0000540D02*
X0003320D01*
X0004405Y-0000670D02*
Y-0001175D01*
X0004430Y-0000670D02*
Y-0001070D01*
X0003595Y-0000180D02*
X0003560D01*
X0006675Y0000155D02*
X0006065D01*
Y-0000655D01*
X0006675D02*
X0006065D01*
X0006675Y0000155D02*
Y-0000655D01*
X0005935Y0000155D02*
X0005325D01*
X0007910Y-0004135D02*
Y-0004670D01*
X0005935Y0000155D02*
Y-0000655D01*
X0004400Y0004150D02*
Y0003167D01*
X0007655Y0003565D02*
X0006845D01*
X0007820Y0004150D02*
Y0003520D01*
X0006845Y0004150D02*
Y0003565D01*
X0015470Y0004150D02*
Y0003520D01*
X0013320Y-0009700D02*
Y-0009820D01*
X0014131Y-0009982D02*
X0013369D01*
X0012860Y-0009820D02*
Y-0011250D01*
X0014131Y-0009318D02*
X0013369D01*
Y-0008518D02*
Y-0009182D01*
X0014131D02*
X0013369D01*
X0014131Y-0008518D02*
Y-0009182D01*
Y-0008518D02*
X0013369D01*
X0009985Y-0006580D02*
Y-0007240D01*
X0010180Y-0005470D02*
X0010020D01*
X0010610Y-0006570D02*
Y-0006853D01*
X0007331Y-0000990D02*
X0005780D01*
X0009985Y-0006580D02*
X0009030D01*
X0009985Y-0005920D02*
X0009030D01*
X0003619Y-0001268D02*
Y-0001932D01*
X0004381D02*
X0003619D01*
X0004381Y-0001268D02*
X0003619D01*
Y-0002068D02*
Y-0002732D01*
X0004495Y-0002250D02*
X0004381D01*
X0004207Y-0002732D02*
X0003619D01*
X0004381Y-0002068D02*
X0003619D01*
X0016250Y0004140D02*
X0007655D01*
X0006920Y0003565D02*
Y0003435D01*
X0003590Y-0009800D02*
Y-0010223D01*
X0009180Y-0008550D02*
X0008631D01*
X0007370Y-0005198D02*
Y-0005479D01*
X0014750Y0004150D02*
Y0003520D01*
X0009849Y-0009990D02*
X0007820D01*
X0010250Y-0008540D02*
Y-0008863D01*
X0010340Y-0008450D02*
Y-0008781D01*
X0012680Y-0009000D02*
X0012312D01*
X0001629Y-0000630D02*
X0001226D01*
X0000739Y-0001170D02*
X0000730D01*
X-0000560Y-0001260D02*
X-0001000D01*
X0000656D02*
X0000560D01*
X0014210Y-0009730D02*
Y-0011250D01*
X0015563Y-0007497D02*
Y-0010643D01*
X0016250Y-0007497D02*
X0015563D01*
X0004450Y-0010943D02*
X0003163D01*
X0004450Y-0010223D02*
Y-0010943D01*
Y-0010223D02*
X0003163D01*
Y-0010943D01*
X0003140Y0004150D02*
Y0001193D01*
X0008810Y0004150D02*
Y0003520D01*
X0009271Y-0010530D02*
X0004450D01*
X0016250Y-0011250D02*
X-0001000D01*
X0016250Y-0003790D02*
Y-0007497D01*
Y-0010643D02*
Y-0011250D01*
X0012140Y-0010870D02*
Y-0011250D01*
X0012050Y-0010944D02*
Y-0011250D01*
X0016100Y-0010643D02*
Y-0011250D01*
X0016250Y-0010643D02*
X0015563D01*
X0015920D02*
Y-0011250D01*
X0015830Y-0010643D02*
Y-0011250D01*
Y-0003930D02*
Y-0007497D01*
X0015650Y-0003930D02*
Y-0007497D01*
X0014953Y-0009106D02*
X0014772D01*
Y-0009564D02*
X0014728D01*
X0014570Y-0009681D02*
Y-0011250D01*
X0015200Y-0009681D02*
Y-0011250D01*
X0015290Y-0009250D02*
Y-0011250D01*
X0014750Y-0009564D02*
Y-0011250D01*
X0014629Y-0008070D02*
X0014204D01*
X0014772Y-0008820D02*
X0014728D01*
X0013220Y-0009820D02*
Y-0011250D01*
X0014660Y-0009681D02*
Y-0011250D01*
X0015380Y-0009159D02*
Y-0011250D01*
X0014480Y-0009681D02*
Y-0011250D01*
X0014830Y-0008319D02*
X0014772D01*
X0012680Y-0009450D02*
X0012542D01*
X0012230Y-0010782D02*
Y-0011250D01*
X0014030Y-0009982D02*
Y-0011250D01*
X0015542Y0003600D02*
X0007655D01*
X0013040Y-0009820D02*
Y-0011250D01*
X0013760Y-0009982D02*
Y-0011250D01*
X0014300Y-0009681D02*
Y-0011250D01*
X0014070Y-0007490D02*
Y-0007510D01*
X0013670Y-0008070D02*
Y-0008518D01*
X0012680Y-0007560D02*
X0012570D01*
X0003995Y-0003600D02*
X0003840D01*
X0016250Y-0007470D02*
X0015420D01*
X0013320Y-0008680D02*
Y-0009240D01*
X0013670Y-0009982D02*
Y-0011250D01*
X0011930Y-0007490D02*
Y-0007510D01*
X0013310Y-0008270D02*
Y-0008680D01*
X0012680Y-0009810D02*
X0012599D01*
X0012320Y-0010674D02*
Y-0011250D01*
X0002468Y0000810D02*
X0001116D01*
X0009352Y-0010440D02*
X0004450D01*
X0015563Y-0010530D02*
X0012416D01*
X0010070Y-0010603D02*
Y-0011250D01*
X0011870Y-0011059D02*
Y-0011250D01*
X0011780Y-0011103D02*
Y-0011250D01*
X0011690Y-0011139D02*
Y-0011250D01*
X0011600Y-0011168D02*
Y-0011250D01*
X0011510Y-0011191D02*
Y-0011250D01*
X0011420Y-0011207D02*
Y-0011250D01*
X0011150Y-0008270D02*
Y-0008465D01*
Y-0011220D02*
Y-0011250D01*
X0010700Y-0008270D02*
Y-0008566D01*
X0011060Y-0011212D02*
Y-0011250D01*
X0010970Y-0011198D02*
Y-0011250D01*
X0010880Y-0011179D02*
Y-0011250D01*
X0010700Y-0011119D02*
Y-0011250D01*
X0009489Y-0008820D02*
X0008631D01*
X0009985Y-0005505D02*
Y-0005920D01*
X0009284Y-0010890D02*
X0004450D01*
X0008540Y-0009732D02*
Y-0011250D01*
X0009800Y-0010910D02*
Y-0011250D01*
X0009710Y-0010985D02*
Y-0011250D01*
X0008990Y-0009170D02*
Y-0011250D01*
X0009530Y-0011026D02*
Y-0011250D01*
X0009440Y-0011007D02*
Y-0011250D01*
X0008631Y-0008268D02*
Y-0008830D01*
X0009260Y-0009170D02*
Y-0010549D01*
X0010520Y-0011030D02*
Y-0011250D01*
X0009260Y-0010850D02*
Y-0011250D01*
X0009170Y0000818D02*
Y0000690D01*
X0014930Y-0009681D02*
Y-0011250D01*
X0000630Y-0008550D02*
X-0001000D01*
X0009550Y-0009170D02*
X0008631D01*
X0010520Y-0008270D02*
Y-0008655D01*
X0002690Y0000461D02*
Y0000430D01*
X0008450Y-0006330D02*
Y-0006959D01*
X0007280Y-0010070D02*
Y-0011250D01*
X0008900Y-0008140D02*
Y-0008830D01*
X0005480Y-0009990D02*
Y-0011250D01*
X0004490Y-0009067D02*
Y-0011250D01*
X0004940Y-0008248D02*
Y-0011250D01*
X0007460Y-0005252D02*
Y-0005569D01*
X0008570Y-0006750D02*
X0008240D01*
X0005660Y-0010055D02*
Y-0011250D01*
X0003950Y-0000435D02*
Y-0000565D01*
X0005389Y-0009900D02*
X-0001000D01*
X0003590Y-0010943D02*
Y-0011250D01*
X0006650Y-0010055D02*
Y-0011250D01*
X0006560Y-0010055D02*
Y-0011250D01*
X0005750Y-0010055D02*
Y-0011250D01*
X0007010Y-0010055D02*
Y-0011250D01*
X0006200Y-0010055D02*
Y-0011250D01*
X0006065Y-0000630D02*
X0005935D01*
X0006110Y-0010055D02*
Y-0011250D01*
X0007180Y-0010055D02*
Y-0010070D01*
X0005300Y0000255D02*
Y-0000050D01*
X0016250Y-0006120D02*
X0015420D01*
X0005390Y0000255D02*
Y0000155D01*
X0008505Y-0007495D02*
X0008730Y-0007720D01*
X0006930Y0000900D02*
X0005418D01*
X0015740Y-0010643D02*
Y-0011250D01*
X0000630Y-0007020D02*
X-0001000D01*
X0004400Y-0010943D02*
Y-0011250D01*
X0004310Y-0010943D02*
Y-0011250D01*
X0004220Y-0010943D02*
Y-0011250D01*
X0004130Y-0010943D02*
Y-0011250D01*
X0004040Y-0010943D02*
Y-0011250D01*
X0003950Y-0010943D02*
Y-0011250D01*
X0003860Y-0010943D02*
Y-0011250D01*
X0003770Y-0010943D02*
Y-0011250D01*
X0003680Y-0010943D02*
Y-0011250D01*
X0004580Y-0009055D02*
Y-0011250D01*
X0003500Y-0010943D02*
Y-0011250D01*
X0003410Y-0010943D02*
Y-0011250D01*
X0002169Y-0000090D02*
X0001376D01*
X0002530Y-0000900D02*
X0002090D01*
X0001160Y0004150D02*
Y0000745D01*
X0000939Y-0009180D02*
X-0001000D01*
X-0000960Y-0000990D02*
X-0001000D01*
X0000630Y-0003150D02*
X-0001000D01*
X0000630Y-0005130D02*
X-0001000D01*
X0000630Y-0005940D02*
X-0001000D01*
X0000630Y-0006750D02*
X-0001000D01*
X0003619Y-0001890D02*
X0003320D01*
X0001070Y-0009310D02*
Y-0011250D01*
X0000980Y-0009220D02*
Y-0011250D01*
X0000680Y-0008920D02*
X0001577Y-0009818D01*
X0001520Y0004150D02*
Y-0000739D01*
X0000630Y-0007920D02*
X-0001000D01*
X0001610Y-0009844D02*
Y-0011250D01*
X0003140Y-0009870D02*
Y-0011250D01*
X0000630Y-0007650D02*
X-0001000D01*
Y-0000949D02*
Y-0011250D01*
X0001029Y-0009270D02*
X-0001000D01*
X0000620Y-0001231D02*
Y-0011250D01*
X0000530Y-0001273D02*
Y-0011250D01*
X0000440Y-0001307D02*
Y-0011250D01*
X0000350Y-0001334D02*
Y-0011250D01*
X0000260Y-0001354D02*
Y-0011250D01*
X0000170Y-0001368D02*
Y-0011250D01*
X0000080Y-0001376D02*
Y-0011250D01*
X-0000010Y-0001379D02*
Y-0011250D01*
X-0000100Y-0001375D02*
Y-0011250D01*
X-0000190Y-0001366D02*
Y-0011250D01*
X-0000280Y-0001350D02*
Y-0011250D01*
X-0000370Y-0001328D02*
Y-0011250D01*
X-0000460Y-0001300D02*
Y-0011250D01*
X-0000640Y-0001221D02*
Y-0011250D01*
X-0000730Y-0001170D02*
Y-0011250D01*
X0004000Y-0002068D02*
Y-0002400D01*
X0006845Y0003870D02*
X-0001000D01*
X0006845Y0004150D02*
X-0001000D01*
X0015632Y0003520D02*
X0007700D01*
X-0000368Y0003780D02*
X-0001000D01*
X-0000730Y0001170D02*
X-0001000D01*
X-0000190Y0003173D02*
Y0001366D01*
X-0000280Y0004150D02*
Y0003817D01*
X0006845Y0004140D02*
X-0001000D01*
X0006845Y0004050D02*
X-0001000D01*
X0006845Y0003960D02*
X-0001000D01*
X-0000820Y0004150D02*
Y0001108D01*
X-0000517Y0003420D02*
X-0001000D01*
X0006845Y0003240D02*
X-0000002D01*
X0006845Y0003435D02*
Y0003070D01*
X-0000910Y0004150D02*
Y0001036D01*
X0004324Y0003150D02*
X-0001000D01*
X0004153Y0002880D02*
X-0001000D01*
X0003911Y0002790D02*
X-0001000D01*
X0003852Y0002700D02*
X-0001000D01*
X0008900Y0001670D02*
Y0001645D01*
X0003668Y0001193D02*
X0003649D01*
X0003893Y0002430D02*
X-0001000D01*
X0007570Y0002010D02*
Y0001990D01*
X0013490Y0004150D02*
Y0003520D01*
X0003668Y0002070D02*
X-0001000D01*
X-0000857Y0001080D02*
X-0001000D01*
X0003668Y0001800D02*
X-0001000D01*
X0008270Y-0009732D02*
Y-0011250D01*
X0003668Y0001710D02*
X-0001000D01*
X0003849Y0002340D02*
X-0001000D01*
X-0000370Y0003221D02*
Y0001328D01*
X0003043Y0001193D02*
X0002862D01*
X0000260Y0004150D02*
Y0001354D01*
X0002684Y0000450D02*
X0001303D01*
X-0000560Y0001260D02*
X-0001000D01*
X0010160Y-0010724D02*
Y-0011250D01*
X-0000280Y0003183D02*
Y0001350D01*
X-0000550Y-0001264D02*
Y-0011250D01*
X0000710Y0004150D02*
Y0001182D01*
X-0000370Y0004150D02*
Y0003779D01*
X-0001000Y0004150D02*
Y0000949D01*
X0002468Y0000990D02*
X0000960D01*
X0003668Y0001260D02*
X0000560D01*
X0003759Y0002250D02*
X-0001000D01*
X0001539Y-0000720D02*
X0001176D01*
X0002468Y0001080D02*
X0000857D01*
X0001449Y-0000810D02*
X0001116D01*
X-0000730Y-0001170D02*
X-0001000D01*
X-0000460Y0004150D02*
Y0003698D01*
X0001719Y-0000540D02*
X0001269D01*
X0000630Y-0001350D02*
X0000281D01*
X0004130Y-0000520D02*
Y-0000565D01*
X0003595Y-0000630D02*
X0003320D01*
X0000630Y-0003240D02*
X-0001000D01*
X0000630Y-0002430D02*
X-0001000D01*
X0003668Y0001350D02*
X0000281D01*
X0003684Y0002160D02*
X-0001000D01*
X0000630Y-0002520D02*
X-0001000D01*
X0000630Y-0001620D02*
X-0001000D01*
X0001880Y0004150D02*
Y-0000379D01*
X0000630Y-0002070D02*
X-0001000D01*
X0001430Y0004150D02*
Y-0000829D01*
X0000630Y-0002700D02*
X-0001000D01*
X0004995Y-0008730D02*
X0004758D01*
X0008900Y-0009170D02*
Y-0011250D01*
X0000630Y-0007200D02*
X-0001000D01*
X0000630Y-0004950D02*
X-0001000D01*
X0000630Y-0003600D02*
X-0001000D01*
X0000630Y-0006300D02*
X-0001000D01*
X0000630Y-0004770D02*
X-0001000D01*
X0000630Y-0006570D02*
X-0001000D01*
X0000630Y-0004140D02*
X-0001000D01*
X0009170Y-0009170D02*
Y-0011250D01*
X0000630Y-0003690D02*
X-0001000D01*
X0000630Y-0003870D02*
X-0001000D01*
X0000630Y-0004320D02*
X-0001000D01*
X0000630Y-0007110D02*
X-0001000D01*
X0000630Y-0004680D02*
X-0001000D01*
X0000630Y-0005580D02*
X-0001000D01*
X0000630Y-0004410D02*
X-0001000D01*
X0000630Y-0004500D02*
X-0001000D01*
X0013580Y-0009982D02*
Y-0011250D01*
X0000630Y-0004590D02*
X-0001000D01*
X0000630Y-0005040D02*
X-0001000D01*
X0000630Y-0003510D02*
X-0001000D01*
X0000630Y-0004050D02*
X-0001000D01*
X0000630Y-0006390D02*
X-0001000D01*
X0000630Y-0005220D02*
X-0001000D01*
X0000630Y-0005310D02*
X-0001000D01*
X0000630Y-0005400D02*
X-0001000D01*
X0000630Y-0005850D02*
X-0001000D01*
X0000630Y-0007290D02*
X-0001000D01*
X0000630Y-0005490D02*
X-0001000D01*
X0000630Y-0003960D02*
X-0001000D01*
X0010250Y-0010822D02*
Y-0011250D01*
X0000630Y-0006480D02*
X-0001000D01*
X0000630Y-0006030D02*
X-0001000D01*
X0000630Y-0006120D02*
X-0001000D01*
X0000630Y-0006210D02*
X-0001000D01*
X0000630Y-0006660D02*
X-0001000D01*
X0000630Y-0002880D02*
X-0001000D01*
X0005570Y-0010042D02*
Y-0011250D01*
X0000849Y-0009090D02*
X-0001000D01*
X0001430Y-0009670D02*
Y-0011250D01*
X0001340Y-0009580D02*
Y-0011250D01*
X0001160Y-0009400D02*
Y-0011250D01*
X0000630Y-0007470D02*
X-0001000D01*
X0003050Y-0009870D02*
Y-0011250D01*
X0000670Y-0008910D02*
X-0001000D01*
X0001520Y-0009760D02*
Y-0011250D01*
X0000630Y-0007560D02*
X-0001000D01*
X0000630Y-0007740D02*
X-0001000D01*
X0012680Y-0008270D02*
Y-0011250D01*
X0000630Y-0006930D02*
X-0001000D01*
X0007820Y-0009655D02*
Y-0010070D01*
X0000630Y-0007380D02*
X-0001000D01*
X0001250Y-0009490D02*
Y-0011250D01*
X0000759Y-0009000D02*
X-0001000D01*
X0007869Y-0009655D02*
Y-0009732D01*
X0000630Y-0008460D02*
X-0001000D01*
X0001970Y-0009870D02*
Y-0011250D01*
X0005930Y-0010055D02*
Y-0011250D01*
X0009881Y-0010170D02*
X-0001000D01*
X0003230Y-0010943D02*
Y-0011250D01*
X0003163Y-0010260D02*
X-0001000D01*
X0003163Y-0010350D02*
X-0001000D01*
X0003163Y-0010440D02*
X-0001000D01*
X0003163Y-0010530D02*
X-0001000D01*
X0003163Y-0010620D02*
X-0001000D01*
X0003163Y-0010710D02*
X-0001000D01*
X0009239Y-0010800D02*
X0004450D01*
X0009938Y-0010350D02*
X0004450D01*
X0009382Y-0010980D02*
X-0001000D01*
X-0000526Y0003510D02*
X-0001000D01*
X0003500Y0004150D02*
Y0001193D01*
X0006470Y-0010055D02*
Y-0011250D01*
X0004570Y-0008010D02*
Y-0008541D01*
X0001340Y0004150D02*
Y0000325D01*
X0002600Y-0009870D02*
Y-0011250D01*
X0013320Y-0009260D02*
Y-0009360D01*
X0004322Y-0009000D02*
X0004278D01*
X0000890Y-0009130D02*
Y-0011250D01*
X0001209Y-0009450D02*
X-0001000D01*
X0003961Y-0009429D02*
X0003572Y-0009818D01*
X0000630Y-0007830D02*
X-0001000D01*
X0003320Y-0010943D02*
Y-0011250D01*
X0003619Y-0002520D02*
X0003320D01*
X0002330Y-0009870D02*
Y-0011250D01*
X0003595Y-0000990D02*
X0003320D01*
X0000630Y-0002250D02*
X-0001000D01*
X0000710Y-0008950D02*
Y-0011250D01*
X0001479Y-0009720D02*
X-0001000D01*
X0003995Y-0003420D02*
X0003660D01*
X0000630Y-0001980D02*
X-0001000D01*
X0001070Y0004150D02*
Y0000870D01*
X0000630Y-0001530D02*
X-0001000D01*
X0000630Y-0003420D02*
X-0001000D01*
X0001942Y-0001620D02*
X0001755D01*
X0002240Y0004150D02*
Y-0000019D01*
X0002529Y0000270D02*
X0001352D01*
X0002530Y-0000990D02*
X0002000D01*
X0004100Y0002110D02*
X0004008Y0002018D01*
X0003320Y0004150D02*
Y0001193D01*
X0002530Y-0000810D02*
X0002180D01*
X0002066Y-0001530D02*
X0001755D01*
X0002468Y0001170D02*
X0000730D01*
X0002684Y0000425D02*
X0001429Y-0000830D01*
X0004400Y-0001830D02*
Y-0002539D01*
X0002420Y0004150D02*
Y0000160D01*
X0002619Y0000360D02*
X0001331D01*
X0006930Y0000180D02*
X0004660D01*
X0003619Y-0002160D02*
X0003320D01*
X0003595Y-0000145D02*
Y-0000435D01*
X0016250Y-0004770D02*
X0014353D01*
X0004402Y0000461D02*
Y0000438D01*
X0003680Y-0000435D02*
Y-0000565D01*
X0003770Y-0000435D02*
Y-0000565D01*
X0003860Y-0000435D02*
Y-0000565D01*
X0003240Y0001193D02*
X0003059D01*
X0006930Y0000990D02*
X0005405D01*
X0006930Y0002110D02*
Y0002010D01*
X0002468Y0000900D02*
X0001045D01*
X0007869Y0000990D02*
X0007570D01*
X0003619Y-0002430D02*
X0003320D01*
X0007730Y0001575D02*
Y0000550D01*
X0008450Y-0009732D02*
Y-0011250D01*
X0010610Y-0008270D02*
Y-0008606D01*
X0007595Y0001980D02*
X0007570D01*
X0009260Y-0008570D02*
Y-0008830D01*
X0005209Y-0009720D02*
X0003670D01*
X0012770Y-0009820D02*
Y-0011250D01*
X0007869Y-0009655D02*
X0007820D01*
X0009858Y-0009630D02*
X0008631D01*
X0008435Y0001710D02*
X0008405D01*
X0002510Y0000461D02*
Y0000250D01*
X0009579Y-0008730D02*
X0008631D01*
X0005840Y-0010055D02*
Y-0011250D01*
X0005000Y-0009450D02*
X0004195D01*
X0010430Y-0007505D02*
X0009820D01*
X0009030Y-0005920D02*
Y-0006580D01*
X0008570Y-0005220D02*
X0008330D01*
X0012180Y-0006660D02*
X0011820D01*
X0009630Y0002070D02*
X0009420D01*
X0006065Y-0000540D02*
X0005935D01*
X0005325Y-0000050D02*
X0005070D01*
X0006065Y-0000450D02*
X0005935D01*
X0006065Y-0000360D02*
X0005935D01*
X0006065Y-0000270D02*
X0005935D01*
X0006065Y-0000180D02*
X0005935D01*
X0006065Y-0000090D02*
X0005935D01*
X0006065Y0000000D02*
X0005935D01*
X0006065Y0000090D02*
X0005935D01*
X0008070Y-0006300D02*
X0008020D01*
X0008780Y-0008020D02*
X0009157Y-0008398D01*
X0005390Y-0009900D02*
Y-0011250D01*
X0005300Y-0009810D02*
Y-0011250D01*
X0008570Y-0004860D02*
X0008330D01*
X0014480Y-0008070D02*
Y-0008319D01*
X0014180Y-0006495D02*
X0014130D01*
X0010430Y-0007110D02*
X0009985D01*
X0000800Y-0009040D02*
Y-0011250D01*
X0003595Y-0000360D02*
X0003380D01*
X0009170Y-0008409D02*
Y-0008830D01*
X0003995Y-0003330D02*
X0003570D01*
X0012520Y-0006570D02*
Y-0006930D01*
X0014300Y-0008070D02*
Y-0008166D01*
X0006870Y-0002829D02*
X0007318Y-0003277D01*
X0012500Y0004150D02*
Y0003520D01*
X0016250Y0003150D02*
X0016140D01*
X0000630Y-0005760D02*
X-0001000D01*
X0004040Y-0002732D02*
Y-0002905D01*
X0004060Y-0002880D02*
X0003320D01*
X0008090Y-0006330D02*
Y-0006599D01*
X0008450Y-0004675D02*
Y-0005570D01*
X0008630Y-0007620D02*
Y-0008830D01*
X0010180Y-0006390D02*
X0009030D01*
X0009180Y-0008460D02*
X0008631D01*
X0004995Y-0009090D02*
X0004344D01*
X0004570Y-0007910D02*
Y-0007990D01*
X0008859Y-0008100D02*
X0008505D01*
X0002530Y-0000540D02*
X0002450D01*
X0000630Y-0001800D02*
X-0001000D01*
X0003995Y-0003060D02*
X0003320D01*
X0006650Y0001202D02*
Y0000685D01*
X0014750Y-0003930D02*
Y-0005161D01*
X0010160Y-0008630D02*
Y-0008961D01*
X0015380Y-0003930D02*
Y-0005782D01*
X0016250Y0003600D02*
X0016058D01*
X0012680Y-0008730D02*
X0012035D01*
X0009890Y-0008900D02*
Y-0009480D01*
X0013369Y-0008550D02*
X0011700D01*
X0016250Y-0004140D02*
X0014126D01*
X0015200Y-0003930D02*
Y-0005604D01*
X0014300Y-0003930D02*
Y-0004717D01*
X0016250Y-0004050D02*
X0014126D01*
X0016250Y-0004320D02*
X0014126D01*
X0003995Y-0003500D02*
Y-0003670D01*
X0014210Y-0003930D02*
Y-0004629D01*
X0015950Y-0003930D02*
X0014126D01*
X0016250Y-0004230D02*
X0014126D01*
X0014203Y-0008550D02*
X0014131D01*
X0016250Y-0003960D02*
X0014126D01*
X0016050Y-0003920D02*
X0016009D01*
X0011341Y-0006840D02*
X0011020D01*
X0015110Y-0003930D02*
Y-0005515D01*
X0011409Y-0006750D02*
X0011020D01*
X0014126Y-0003930D02*
Y-0004546D01*
X0013320Y-0008680D02*
X0012680D01*
X0013369Y-0009700D02*
X0013320D01*
X0012680Y-0008680D02*
Y-0009240D01*
X0012950Y-0008270D02*
Y-0008680D01*
X0014272Y-0009180D02*
X0013320D01*
Y-0009820D02*
X0012680D01*
Y-0009260D02*
Y-0009820D01*
X0016190Y-0010643D02*
Y-0011250D01*
X0012320Y-0008270D02*
Y-0009011D01*
X0013320Y-0006930D02*
Y-0007070D01*
X0011480Y-0006570D02*
X0011020D01*
X0010180Y-0006010D02*
Y-0006570D01*
X0010520D02*
Y-0006930D01*
X0010180Y-0005990D02*
Y-0006010D01*
X0010020Y-0005470D02*
X0009985Y-0005505D01*
X0012180Y-0006840D02*
X0011794D01*
X0008540Y-0006330D02*
Y-0007049D01*
X0010430Y-0007380D02*
X0009455D01*
X0009739Y-0008570D02*
X0009479Y-0008830D01*
X0011330Y-0006930D02*
X0011000D01*
X0011930Y-0007565D02*
X0011820D01*
X0011180Y-0006930D02*
Y-0007490D01*
X0011930Y-0007110D02*
X0011820D01*
X0011930Y-0007020D02*
X0011820D01*
X0011180Y-0007490D02*
Y-0007510D01*
X0010430Y-0006930D02*
Y-0007490D01*
X0009350Y-0007240D02*
Y-0007275D01*
X0007915Y-0004140D02*
X0007370D01*
X0004995Y-0008550D02*
X0004595D01*
X0011240Y-0008270D02*
Y-0008464D01*
X0013820Y-0006570D02*
X0013320D01*
X0012680Y-0006930D02*
Y-0007490D01*
X0010430Y-0007470D02*
X0009820D01*
X0012860Y-0006570D02*
Y-0006930D01*
X0013320Y-0007070D02*
Y-0007189D01*
X0004490Y0004150D02*
Y0003158D01*
X0012770Y-0008270D02*
Y-0008680D01*
X0014180Y-0006495D02*
Y-0006570D01*
X0011070Y-0006930D02*
Y-0007490D01*
X0011930Y-0006930D02*
Y-0007490D01*
X0012680Y-0007380D02*
X0012570D01*
X0008730Y-0007720D02*
Y-0007900D01*
X0012770Y-0006570D02*
Y-0006930D01*
X0008730Y-0007830D02*
X0008505D01*
X0014210Y-0006570D02*
Y-0006930D01*
X0014126Y-0004546D02*
X0015368Y-0005769D01*
X0014180Y-0007435D02*
X0014070D01*
X0004490Y-0001070D02*
Y-0001370D01*
X0014390Y-0008070D02*
Y-0008256D01*
X0006200Y0004150D02*
Y0003070D01*
X0014070Y-0006930D02*
X0013430D01*
X0008505Y-0007805D02*
Y-0007830D01*
X0004495Y-0001890D02*
X0004381D01*
X0014180Y-0007510D02*
Y-0008046D01*
X0014070Y-0007510D02*
Y-0007936D01*
X0014285Y-0006570D02*
X0014180D01*
X0013760Y-0008107D02*
Y-0008518D01*
X0014180Y-0007490D02*
Y-0007510D01*
X0014070Y-0007435D02*
Y-0007490D01*
X0005070Y0000070D02*
X0004770D01*
X0004495Y-0001350D02*
X0004381D01*
X0016250Y0003330D02*
X0015960D01*
X0004760Y-0008863D02*
Y-0011250D01*
X0005325Y0000155D02*
Y-0000050D01*
X0005070Y0000070D02*
Y-0000050D01*
X0010430Y-0008360D02*
Y-0008713D01*
X0012590Y-0008270D02*
Y-0009683D01*
X0003770Y-0002732D02*
Y-0003529D01*
X0012980Y-0006930D02*
X0012680D01*
X0006830Y0001194D02*
Y0000685D01*
X0009710Y0004150D02*
Y0003520D01*
X0007869Y0001260D02*
X0007109D01*
X0011510Y0004150D02*
Y0003520D01*
X0007869Y0001350D02*
X0007205D01*
X0006930Y0002010D02*
Y0001990D01*
X0009270Y0000790D02*
X0009161Y0000682D01*
X0009440Y0002070D02*
Y0001320D01*
X0008520Y0002250D02*
X0007910D01*
X0009161Y0000682D02*
X0008631D01*
X0009630Y0001980D02*
X0009280D01*
X0007820Y-0010070D02*
X0007180D01*
X0007460D02*
Y-0011250D01*
X0013130Y-0008270D02*
Y-0008680D01*
X0008520Y0001800D02*
X0008405D01*
X0016250Y-0011070D02*
X0011849D01*
X0012950Y0004150D02*
Y0003520D01*
X0015820Y0003470D02*
X0016250Y0003040D01*
Y0003510D02*
X0015950D01*
X0006845Y0003150D02*
X0004515D01*
X0008090Y0004150D02*
Y0003520D01*
X0016100Y0003671D02*
Y0003190D01*
X0015110Y0004150D02*
Y0003520D01*
X0014930Y0004150D02*
Y0003520D01*
X0008900Y0004150D02*
Y0003520D01*
X0004670Y0004150D02*
Y0003070D01*
X0008000Y0004150D02*
Y0003520D01*
X0008360Y0004150D02*
Y0003520D01*
X0011690Y0004150D02*
Y0003520D01*
X0008630Y0004150D02*
Y0003520D01*
X0005120Y0004150D02*
Y0003070D01*
Y0002110D02*
Y0001193D01*
X0009170Y0004150D02*
Y0003520D01*
X0004036Y0001710D02*
X0004008D01*
X0006560Y0001261D02*
Y0000685D01*
X0004130Y0002110D02*
Y0001716D01*
X0004736Y0001710D02*
X0004678D01*
X0004242Y0001980D02*
X0004008D01*
X0009260Y0004150D02*
Y0003520D01*
X0004310Y0002110D02*
Y0002024D01*
X0009890Y-0005920D02*
Y-0006580D01*
X0000630Y-0005670D02*
X-0001000D01*
X0010180Y-0005580D02*
X0009985D01*
X0009842Y-0009900D02*
X0007820D01*
X0013490Y-0009982D02*
Y-0011250D01*
X0014030Y-0008377D02*
Y-0008518D01*
X0010160Y0004150D02*
Y0003520D01*
X0012680Y0004150D02*
Y0003520D01*
X0014180Y-0008010D02*
X0014144D01*
X0010340Y0004150D02*
Y0003520D01*
X0010520Y0004150D02*
Y0003520D01*
X0012320Y0004150D02*
Y0003520D01*
X0010610Y0004150D02*
Y0003520D01*
X0014120Y0004150D02*
Y0003520D01*
X0013310Y0004150D02*
Y0003520D01*
X0009980Y0004150D02*
Y0003520D01*
X0003595Y-0000145D02*
X0003320Y-0000420D01*
X0000890Y0004150D02*
Y0001053D01*
X0006930Y0002110D02*
X0004100D01*
X0009620Y0004150D02*
Y0003520D01*
X0003910Y0002400D02*
X0003720Y0002211D01*
X0003680Y0004150D02*
Y0002150D01*
X0004490Y0002110D02*
Y0002038D01*
X0011600Y0004150D02*
Y0003520D01*
X0011240Y0004150D02*
Y0003520D01*
X0004220Y0004150D02*
Y0003078D01*
X0006650Y0002110D02*
Y0001698D01*
X0009260Y0000818D02*
Y0000780D01*
X0004940Y0004150D02*
Y0003070D01*
X0009270Y0000818D02*
Y0000790D01*
X0007595Y0001710D02*
X0007570D01*
X0007595Y0001800D02*
X0007570D01*
X0007595Y0001890D02*
X0007570D01*
X0003860Y0002481D02*
Y0002350D01*
X0008619Y0000682D02*
X0007869D01*
X0002665Y0000461D02*
X0002468D01*
X0003437Y0001193D02*
X0003256D01*
X0014772Y-0009564D02*
X0014728D01*
X0006930Y0001890D02*
X0004664D01*
X0015563Y-0009450D02*
X0015228D01*
X0015563Y-0009360D02*
X0015228D01*
X0015563Y-0009180D02*
X0015360D01*
X0014772Y-0009224D02*
X0014728D01*
X0014772Y-0008550D02*
X0014728D01*
X0015563Y-0007740D02*
X0015420D01*
X0014772Y-0009224D02*
X0014728D01*
X0015563Y-0007920D02*
X0015420D01*
X0013310Y-0009820D02*
Y-0011250D01*
X0002530Y-0000720D02*
X0002270D01*
X0006561Y0001260D02*
X0004993D01*
X0007370Y-0005479D02*
X0007460Y-0005570D01*
X0015470Y-0003930D02*
Y-0011250D01*
X0011780Y-0008270D02*
Y-0008582D01*
X0011180Y-0007510D02*
Y-0007565D01*
X0011820Y-0007510D02*
Y-0007565D01*
X0006290Y0004150D02*
Y0003070D01*
X0013850Y-0008197D02*
Y-0008518D01*
X0014180Y-0007920D02*
X0014070D01*
X0014120Y-0008467D02*
Y-0008518D01*
X0014180Y-0007830D02*
X0014070D01*
X0014180Y-0007740D02*
X0014070D01*
X0014180Y-0007650D02*
X0014070D01*
X0012680Y-0007565D02*
X0012570D01*
X0013040Y-0008270D02*
Y-0008680D01*
X0006020Y0004150D02*
Y0003070D01*
X0014180Y-0007560D02*
X0014070D01*
X0006110Y0004150D02*
Y0003070D01*
X0013820Y-0006274D02*
X0013978Y-0006432D01*
X0006380Y0004150D02*
Y0003070D01*
X0009710Y-0008570D02*
Y-0008599D01*
X0010129Y-0009000D02*
X0009790D01*
X0013490Y-0008200D02*
Y-0008518D01*
X0013350Y-0008270D02*
X0010520D01*
X0009800Y-0008990D02*
Y-0010490D01*
X0010065Y-0009090D02*
X0009700D01*
X0010520Y-0008270D02*
X0009672Y-0009118D01*
X0013753Y-0008100D02*
X0013590D01*
X0007640Y-0010070D02*
Y-0011250D01*
X0008720Y-0009170D02*
Y-0011250D01*
X0011330Y-0011217D02*
Y-0011250D01*
X0008720Y-0007710D02*
Y-0008830D01*
X0011240Y-0011221D02*
Y-0011250D01*
X0013933Y-0008280D02*
X0010510D01*
X0009669Y-0008640D02*
X0008631D01*
X0009847Y-0009720D02*
X0008631D01*
X0009039Y-0008280D02*
X0008631D01*
X0009080Y-0008320D02*
Y-0008830D01*
X0008631Y-0009170D02*
Y-0009732D01*
X0007869Y0000550D02*
X0007720D01*
X0008360Y-0006330D02*
Y-0006869D01*
X0006870Y-0001650D02*
Y-0002829D01*
X0007670Y-0005239D02*
Y-0005430D01*
Y-0004670D02*
Y-0004761D01*
X0008570Y-0005310D02*
X0008330D01*
X0008570Y-0005040D02*
X0008330D01*
X0009620Y-0008570D02*
Y-0008689D01*
X0008570Y-0004950D02*
X0008330D01*
X0010180Y-0006300D02*
X0009030D01*
X0008545Y-0004770D02*
X0008330D01*
X0008570Y-0005400D02*
X0008330D01*
X0004670Y-0008030D02*
Y-0008593D01*
X0011480Y-0006570D02*
Y-0006679D01*
X0010180Y-0006210D02*
X0009030D01*
X0008570Y-0007020D02*
X0008510D01*
X0011240Y-0006570D02*
Y-0006930D01*
X0004622Y-0007983D02*
X0004817Y-0008177D01*
X0011480Y-0006660D02*
X0011020D01*
X0010581Y-0006930D02*
X0010430D01*
X0003668Y0001440D02*
X-0001000D01*
X0010070Y0004150D02*
Y0003520D01*
X0011180Y-0007200D02*
X0011070D01*
X0011180Y-0007110D02*
X0011070D01*
X0011180Y-0007020D02*
X0011070D01*
X0006930Y0002070D02*
X0004060D01*
X0010680Y-0006570D02*
Y-0006779D01*
X0011020Y-0006570D02*
Y-0006850D01*
X0011180Y-0007380D02*
X0011070D01*
Y-0006930D02*
X0011000D01*
X0009620Y-0011019D02*
Y-0011250D01*
X0012680Y-0008910D02*
X0012236D01*
X0014300Y0004150D02*
Y0003520D01*
X0010680Y-0006779D02*
X0010632Y-0006827D01*
X0012680Y-0008820D02*
X0012145D01*
X0016250Y-0005400D02*
X0014993D01*
X0015563Y-0008100D02*
X0015420D01*
X0015563Y-0008190D02*
X0015420D01*
X0015563Y-0008280D02*
X0015420D01*
X0015563Y-0009000D02*
X0015420D01*
X0010620Y-0006840D02*
X0009985D01*
X0014830Y-0008270D02*
Y-0008319D01*
X0014629Y-0008070D02*
X0014830Y-0008270D01*
X0015563Y-0008010D02*
X0015420D01*
X0013670Y-0006570D02*
Y-0006930D01*
X0013760Y-0006570D02*
Y-0006930D01*
X0003649Y0001193D02*
X0003634D01*
X0002870Y-0009870D02*
Y-0011250D01*
X0014070Y-0007936D02*
X0014180Y-0008046D01*
X0003844Y0002520D02*
X-0001000D01*
X0014180Y-0007435D02*
Y-0007490D01*
X0010430Y-0006570D02*
Y-0007505D01*
X0014480Y-0008894D02*
Y-0009106D01*
X0014204Y-0008070D02*
X0014453Y-0008319D01*
X0014285Y-0006570D02*
Y-0006930D01*
X0012570Y-0007490D02*
Y-0007510D01*
X0014120Y-0006495D02*
Y-0007005D01*
X0013320Y-0006570D02*
Y-0006930D01*
X0015563Y-0007560D02*
X0015420D01*
X0016250Y-0006300D02*
X0015420D01*
X0005325Y0000000D02*
X0005070D01*
X0005840Y-0000655D02*
Y-0001049D01*
X0014659Y-0008100D02*
X0014234D01*
X0006891Y0000255D02*
X0005220D01*
X0015080Y-0008979D02*
X0014953Y-0009106D01*
X0004831Y0000461D02*
X0004815D01*
X0016250Y-0006030D02*
X0015420D01*
X0002530Y-0000460D02*
X0001755Y-0001235D01*
X0008505Y-0007830D02*
Y-0008268D01*
X0009080Y-0005920D02*
Y-0006580D01*
Y-0009170D02*
Y-0011250D01*
X0010680Y-0006660D02*
X0009985D01*
X0010680Y-0006570D02*
X0009030D01*
X0010180Y-0005490D02*
X0010000D01*
X0010180Y-0005470D02*
Y-0005990D01*
X0012180Y-0006930D02*
X0011710D01*
X0003595Y-0000900D02*
X0003320D01*
X0016250Y-0010980D02*
X0012000D01*
X0004130Y-0009466D02*
Y-0010223D01*
X0004040Y-0009461D02*
Y-0010223D01*
X0002510Y-0009870D02*
Y-0011250D01*
X0013369Y-0009318D02*
Y-0009360D01*
X0016250Y-0006930D02*
X0015420D01*
X0006915Y0001710D02*
X0006813D01*
X0011060Y-0006570D02*
Y-0006930D01*
X0011330Y-0006570D02*
Y-0006900D01*
X0005840Y0002110D02*
Y0000685D01*
X0016250Y-0004860D02*
X0014444D01*
X0003410Y-0000330D02*
Y-0003169D01*
X0004670Y0002110D02*
Y0001875D01*
X0003770Y0004150D02*
Y0002260D01*
X0003668Y0002088D02*
Y0001193D01*
X0000980Y0004150D02*
Y0000970D01*
X0015563Y-0010620D02*
X0012359D01*
X0000630Y-0001440D02*
X-0001000D01*
X0016250Y-0005130D02*
X0014719D01*
X0009980Y-0008810D02*
Y-0009240D01*
X0003619Y-0002340D02*
X0003320D01*
X0007010Y-0000070D02*
Y-0002969D01*
X0004495Y-0001080D02*
X0004405D01*
X0002530Y-0001170D02*
X0001820D01*
X0002530Y-0001260D02*
X0001755D01*
X0008949Y-0008190D02*
X0008505D01*
X0002530Y-0000630D02*
X0002360D01*
X0001790Y-0009870D02*
Y-0011250D01*
X0012050Y-0008270D02*
Y-0008741D01*
X0001880Y-0009870D02*
Y-0011250D01*
X0008360Y-0004585D02*
Y-0005570D01*
X0008505Y-0007495D02*
Y-0007680D01*
X0008570Y-0006660D02*
X0008150D01*
X0008070Y-0006120D02*
X0008000D01*
X0007595Y0002110D02*
Y0001575D01*
X0008000Y-0005430D02*
Y-0006120D01*
X0008570Y-0006480D02*
X0008020D01*
X0003860Y-0002732D02*
Y-0003619D01*
X0014772Y-0009106D02*
Y-0009224D01*
X0003059Y0001193D02*
X0003043D01*
X0002468Y0000630D02*
X0001226D01*
X0004008Y0002018D02*
Y0001701D01*
X-0000281Y-0001350D02*
X-0001000D01*
X0004495Y-0001170D02*
X0003320D01*
X0003619Y-0001530D02*
X0003320D01*
X0002330Y0004150D02*
Y0000070D01*
X0000630Y-0008100D02*
X-0001000D01*
X0000710Y-0001182D02*
Y-0001199D01*
X0000630Y-0001710D02*
X-0001000D01*
X0002060Y0004150D02*
Y-0000199D01*
X-0000857Y-0001080D02*
X-0001000D01*
X0002150Y0004150D02*
Y-0000109D01*
X0001989Y-0000270D02*
X0001352D01*
X0000630Y-0001890D02*
X-0001000D01*
X0003595Y-0000810D02*
X0003320D01*
X0000630Y-0002340D02*
X-0001000D01*
X0001250Y-0000582D02*
Y-0000830D01*
X0001809Y-0000450D02*
X0001303D01*
X0003619Y-0002700D02*
X0003320D01*
X0000630Y-0008370D02*
X-0001000D01*
X0003595Y-0001080D02*
X0003320D01*
X0000630Y-0001350D02*
Y-0008800D01*
X0002150Y-0009870D02*
Y-0011250D01*
X0001119Y-0009360D02*
X-0001000D01*
X0000630Y-0008010D02*
X-0001000D01*
X0003320Y-0009870D02*
Y-0010223D01*
X0000630Y-0008730D02*
X-0001000D01*
X0003450Y-0009870D02*
X0001700D01*
X0004310Y-0008988D02*
Y-0009034D01*
X0003860Y-0009530D02*
Y-0010223D01*
X0004220Y-0009439D02*
Y-0010223D01*
X0001700Y-0009870D02*
Y-0011250D01*
X0003410Y-0009870D02*
Y-0010223D01*
X0003950Y-0009440D02*
Y-0010223D01*
X0002690Y-0009870D02*
Y-0011250D01*
X0003500Y-0009862D02*
Y-0010223D01*
X0005119Y-0009630D02*
X0003760D01*
X0014120Y-0009182D02*
Y-0009318D01*
X0014570Y-0008070D02*
Y-0008319D01*
X0013130Y-0009820D02*
Y-0011250D01*
X0013220Y-0008270D02*
Y-0008680D01*
X0012410Y-0010540D02*
Y-0011250D01*
X0013369Y-0009360D02*
X0013320D01*
X0014272Y-0009669D02*
X0014172Y-0009768D01*
X0012860Y-0008270D02*
Y-0008680D01*
X0009890Y-0010205D02*
Y-0011250D01*
X0007640Y0003565D02*
Y0003509D01*
Y0001575D02*
Y0000630D01*
X0008540Y-0004765D02*
Y-0005570D01*
X0007620Y-0002790D02*
X0006870D01*
X0007654Y-0003870D02*
X0007370D01*
X0007820Y-0004045D02*
Y-0004670D01*
X0006740Y0001182D02*
Y0000685D01*
X0007460Y-0001085D02*
Y-0004748D01*
X0007620Y-0001245D02*
Y-0003750D01*
X0000630Y-0003780D02*
X-0001000D01*
X0012050Y0004150D02*
Y0003520D01*
X0002684Y0000461D02*
X0002665D01*
X0010790Y0004150D02*
Y0003520D01*
X0010430Y0004150D02*
Y0003520D01*
X0013760Y0004150D02*
Y0003520D01*
X0013850Y0004150D02*
Y0003520D01*
X0015200Y0004150D02*
Y0003520D01*
X0013940Y0004150D02*
Y0003520D01*
X0014030Y0004150D02*
Y0003520D01*
X0011480Y-0006679D02*
X0011382Y-0006777D01*
X0010581Y-0006930D02*
X0009985D01*
X0007735Y-0003960D02*
X0007370D01*
X0007820Y0001575D02*
Y0000550D01*
X0007097Y-0000180D02*
X0006675D01*
X0007570Y0000700D02*
X0007720Y0000550D01*
X0013723Y-0008070D02*
X0013620D01*
X0008180Y-0004405D02*
Y-0004670D01*
X0009430Y0001320D02*
Y0001279D01*
X0007620Y-0001350D02*
X0006140D01*
X0014840Y-0009681D02*
Y-0011250D01*
X0007570Y0001990D02*
Y0001430D01*
X0007869Y0001440D02*
X0007570D01*
X0007620Y-0002250D02*
X0006870D01*
X0007280Y0001425D02*
Y0001070D01*
X0007370Y0001430D02*
Y0001070D01*
X0007460Y0001430D02*
Y0001070D01*
X0007550Y0001430D02*
Y0001070D01*
X0006920Y-0010055D02*
Y-0011250D01*
X0001970Y-0001020D02*
Y-0001593D01*
X0002060Y-0000930D02*
Y-0001533D01*
X0002150Y-0000840D02*
Y-0001500D01*
X0002240Y-0000750D02*
Y-0001488D01*
X0002330Y-0000660D02*
Y-0001496D01*
X0002420Y-0000570D02*
Y-0001524D01*
X0002510Y-0000480D02*
Y-0001577D01*
X0002420Y-0009870D02*
Y-0011250D01*
X0001755Y-0001670D02*
Y-0001695D01*
X0002960Y-0009870D02*
Y-0011250D01*
X0016250Y-0005760D02*
X0015358D01*
X0016250Y-0005580D02*
X0015175D01*
X0001755Y-0001235D02*
Y-0001670D01*
X0016250Y-0006390D02*
X0015420D01*
X0015290Y-0003930D02*
Y-0005693D01*
X0015420Y-0005892D02*
Y-0009050D01*
X0014272Y-0008820D02*
X0014131D01*
X0014840Y-0003930D02*
Y-0005249D01*
X0006740Y0004150D02*
Y0003070D01*
X0005660Y0004150D02*
Y0003070D01*
X0014969Y-0009090D02*
X0014131D01*
X0015563D02*
X0015415D01*
X0016250Y-0010800D02*
X0012213D01*
X0015563Y-0009270D02*
X0015270D01*
X0015370Y-0009170D02*
X0015228Y-0009312D01*
X0014772Y-0009630D02*
X0014728D01*
X0016250Y-0006210D02*
X0015420D01*
X0014660Y0004150D02*
Y0003520D01*
X0015563Y-0009630D02*
X0015228D01*
X0015563Y-0009540D02*
X0015228D01*
X0015563Y-0007650D02*
X0015420D01*
X0016250Y-0004950D02*
X0014536D01*
X0005030Y0002110D02*
Y0001587D01*
X0002530Y-0001440D02*
X0001755D01*
X0000630Y-0002610D02*
X-0001000D01*
X0005390Y0002110D02*
Y0001193D01*
X0006930Y0000685D02*
X0005431D01*
X0004850Y0000450D02*
X0004402D01*
X0016250Y-0005220D02*
X0014810D01*
X0016250Y-0003790D02*
X0016172Y-0003868D01*
X0006891Y0000255D02*
X0006930Y0000216D01*
X0016250Y-0004410D02*
X0014126D01*
X0016250Y-0007110D02*
X0015420D01*
X0005027Y0001193D02*
X0005012D01*
X0015020Y-0009681D02*
Y-0011250D01*
X0004940Y0000300D02*
Y0000070D01*
X0006200Y0002110D02*
Y0000685D01*
X0003770Y-0001175D02*
Y-0001268D01*
X0005480Y0000255D02*
Y0000155D01*
X0002079Y-0000180D02*
X0001367D01*
X0004220Y-0001175D02*
Y-0001268D01*
X0016250Y-0006480D02*
X0015420D01*
X0004174Y-0000565D02*
X0003595D01*
X0006290Y0000255D02*
Y0000155D01*
X0004490Y0000461D02*
Y0000350D01*
X0004437Y0000461D02*
X0004421D01*
X0004430Y-0000670D02*
X0004405D01*
X0005405Y0001193D02*
Y0000929D01*
X0003680Y-0001175D02*
Y-0001268D01*
X0003950Y-0001175D02*
Y-0001268D01*
X0004059Y-0000450D02*
X0003320D01*
X0007620Y-0001890D02*
X0006870D01*
X0008405Y0002315D02*
X0007975D01*
X0004495Y-0002070D02*
X0003320D01*
X0007280Y-0000957D02*
Y-0003239D01*
X0007620Y-0002160D02*
X0006870D01*
X0005660Y-0000655D02*
Y-0000869D01*
X0006600Y-0001380D02*
X0006170D01*
X0005930Y0000255D02*
Y-0001139D01*
X0007620Y-0003060D02*
X0007100D01*
X0007620Y-0001620D02*
X0006867D01*
X0005480Y-0000655D02*
Y-0000689D01*
X0007550Y-0001175D02*
Y-0004732D01*
X0006920Y0000226D02*
Y-0002879D01*
X0006110Y-0000655D02*
Y-0001319D01*
X0006290Y-0000655D02*
Y-0001380D01*
X0008095Y-0004320D02*
X0007370D01*
X0007620Y-0002880D02*
X0006920D01*
X0007620Y-0003240D02*
X0007280D01*
X0006200Y-0000655D02*
Y-0001380D01*
X0006720Y-0001430D02*
X0006818Y-0001527D01*
X0007550Y-0005268D02*
Y-0005570D01*
X0007620Y-0003510D02*
X0007370D01*
X0007670Y-0005400D02*
X0007370D01*
X0006380Y-0010055D02*
Y-0011250D01*
X0001860Y-0001745D02*
X0001755D01*
X0000630Y-0003330D02*
X-0001000D01*
X0006020Y-0010055D02*
Y-0011250D01*
X0007820Y-0009655D02*
Y-0011250D01*
X0001569Y-0009810D02*
X-0001000D01*
X0010790Y-0008270D02*
Y-0008532D01*
X0007730Y-0010070D02*
Y-0011250D01*
X0009842Y-0009810D02*
X0007820D01*
X0008360Y-0009732D02*
Y-0011250D01*
X0007869Y-0009720D02*
X0007820D01*
X0002600Y0000461D02*
Y0000340D01*
X0007180Y-0010055D02*
X0005650D01*
X0007910Y-0009732D02*
Y-0011250D01*
X0005120Y-0009630D02*
Y-0011250D01*
X0008731Y-0007920D02*
X0008505D01*
X0004995Y-0008280D02*
X0004570D01*
X0004995Y-0008305D02*
Y-0009400D01*
X0009440Y-0009170D02*
Y-0010392D01*
X0014772Y-0009564D02*
Y-0009681D01*
X0011690Y-0008270D02*
Y-0008546D01*
X0011870Y-0006570D02*
Y-0007565D01*
X0011780Y-0006859D02*
Y-0006930D01*
X0013400Y-0009982D02*
Y-0011250D01*
X0005037Y-0009540D02*
X0003850D01*
X0012680Y-0007290D02*
X0012570D01*
X0013399Y-0007110D02*
X0013320D01*
X0014285Y-0006840D02*
X0013320D01*
X0014285Y-0006750D02*
X0013320D01*
X0007211Y-0000630D02*
X0006675D01*
X0012980Y-0006930D02*
X0012520D01*
X0010970Y-0008270D02*
Y-0008487D01*
X0012180Y-0006570D02*
X0011820D01*
Y-0006930D02*
Y-0007490D01*
X0011420Y-0006570D02*
Y-0006739D01*
X0013850Y-0006304D02*
Y-0006930D01*
X0013580Y-0006570D02*
Y-0006930D01*
X0014660Y-0003930D02*
Y-0005072D01*
X0007544Y0003435D02*
X0006845D01*
X0000630Y-0002970D02*
X-0001000D01*
X0005570Y0000255D02*
Y0000155D01*
X0009630Y0002070D02*
Y0001320D01*
X0009270Y0000818D02*
X0008631D01*
X0014390Y0004150D02*
Y0003520D01*
X0004760Y0004150D02*
Y0003070D01*
X0007595Y0001620D02*
X0007570D01*
X0006200Y0000255D02*
Y0000155D01*
X0004495Y-0002430D02*
X0004381D01*
X0006560Y-0000655D02*
Y-0001380D01*
X0006650Y-0000655D02*
Y-0001387D01*
X0005750Y-0000655D02*
Y-0000959D01*
X0007930Y-0005570D02*
Y-0006039D01*
X0007570Y0001070D02*
Y0000700D01*
X0008570Y-0006840D02*
X0008330D01*
X0008020Y-0006529D02*
X0008572Y-0007082D01*
X0007930Y-0006039D02*
X0007970Y-0006080D01*
X0007820Y-0005430D02*
Y-0005570D01*
X0009180Y-0008417D02*
Y-0008570D01*
X0008569Y-0007560D02*
X0008505D01*
X0008540Y-0007530D02*
Y-0008268D01*
X0008070Y-0006210D02*
X0008020D01*
X0010430Y-0010972D02*
Y-0011250D01*
X0016250Y-0011160D02*
X0011628D01*
X0008505Y-0007695D02*
Y-0007805D01*
X0010295Y-0008820D02*
X0009970D01*
X0011330Y-0006930D02*
X0011180D01*
X0003595Y-0000270D02*
X0003470D01*
X0004830Y-0008190D02*
X0004570D01*
X0004739Y-0008100D02*
X0004570D01*
X0007370Y-0010070D02*
Y-0011250D01*
X0009985Y-0007240D02*
X0009315D01*
X0008810Y-0008050D02*
Y-0008830D01*
X0008631Y-0008268D02*
X0008505D01*
X0005210Y-0009720D02*
Y-0011250D01*
X0008185Y-0004410D02*
X0007370D01*
X0008275Y-0004500D02*
X0007370D01*
X0007413Y-0004770D02*
X0007370D01*
X0004310Y0004150D02*
Y0003144D01*
X0010180Y-0006120D02*
X0009030D01*
X0011820Y-0006570D02*
Y-0006750D01*
X0013320Y-0009240D02*
Y-0009260D01*
X0013620Y-0008070D02*
X0013472Y-0008218D01*
X0011820Y-0006930D02*
X0011710D01*
X0012180D02*
X0011930D01*
X0008365Y-0004590D02*
X0007370D01*
X0007825Y-0004050D02*
X0007370D01*
X0011180Y-0007290D02*
X0011070D01*
X0011930D02*
X0011820D01*
X0007620Y-0002970D02*
X0007010D01*
X0011930Y-0007200D02*
X0011820D01*
X0011770Y-0006870D02*
X0011710Y-0006930D01*
X0005660Y0002110D02*
Y0000685D01*
X0005930Y0002110D02*
Y0000685D01*
X0012570Y-0006930D02*
X0012520D01*
X0005750Y0002110D02*
Y0000685D01*
X0012980Y-0006750D02*
X0012520D01*
X0013820Y-0006274D02*
Y-0006570D01*
X0016250Y-0007290D02*
X0015420D01*
X0012180Y-0006750D02*
X0011820D01*
X0010680D02*
X0009985D01*
X0009170Y-0005920D02*
Y-0006580D01*
X0009260Y-0005920D02*
Y-0006580D01*
X0009350Y-0005920D02*
Y-0006580D01*
X0009440Y-0005920D02*
Y-0006580D01*
X0009530Y-0005920D02*
Y-0006580D01*
X0009710Y-0005920D02*
Y-0006580D01*
X0009800Y-0005920D02*
Y-0006580D01*
X0009620Y-0005920D02*
Y-0006580D01*
X0007100Y-0000200D02*
Y-0003059D01*
X0007095Y-0000090D02*
X0006675D01*
X0007095Y-0000070D02*
Y-0000150D01*
X0010610Y-0011079D02*
Y-0011250D01*
X0005030Y0000280D02*
Y0000070D01*
X0004995Y-0009360D02*
X0004314D01*
X0003619Y-0001620D02*
X0003320D01*
X0004044Y-0000435D02*
X0004174Y-0000565D01*
X0003950Y-0002732D02*
Y-0003709D01*
X0003619Y-0001710D02*
X0003320D01*
X0003619Y-0001800D02*
X0003320D01*
X0008520Y0001980D02*
X0008405D01*
X0003320Y-0000420D02*
Y-0003079D01*
X0003590Y-0000150D02*
Y-0003349D01*
X0012500Y-0008270D02*
Y-0009329D01*
X0012410Y-0008270D02*
Y-0009145D01*
X0003500Y-0000240D02*
Y-0003259D01*
X0003995Y-0003150D02*
X0003390D01*
X0003680Y-0002732D02*
Y-0003439D01*
X0014728Y-0009564D02*
Y-0009681D01*
X0011330Y-0006900D02*
Y-0006930D01*
X0009620Y-0009155D02*
Y-0010381D01*
X0009890Y-0007240D02*
Y-0007505D01*
X0011180Y-0007560D02*
X0011070D01*
X0011180Y-0007470D02*
X0011070D01*
X0009980Y-0010445D02*
Y-0011250D01*
X0011930Y-0007560D02*
X0011820D01*
X0011930Y-0007470D02*
X0011820D01*
X0011930Y-0007380D02*
X0011820D01*
X0012140Y0004150D02*
Y0003520D01*
X0009820Y-0007430D02*
Y-0007505D01*
X0015560Y0003578D02*
Y0003520D01*
X0012230Y0004150D02*
Y0003520D01*
X0008520Y0001890D02*
X0008405D01*
X0016100Y-0003912D02*
Y-0007497D01*
X0015380Y0004150D02*
Y0003520D01*
X0016250Y-0004680D02*
X0014262D01*
X0013369Y-0008640D02*
X0011895D01*
X0003995Y-0003510D02*
X0003750D01*
X0011510Y-0008270D02*
Y-0008494D01*
X0005030Y0001313D02*
Y0001193D01*
X0004176Y0001890D02*
X0004008D01*
X0004760Y0002110D02*
Y0001714D01*
X0008405Y0002185D02*
Y0001658D01*
X0005431Y0000827D02*
Y0000685D01*
X0006494Y0001530D02*
X0005055D01*
X0009440Y-0008570D02*
Y-0008830D01*
X0004850Y0000461D02*
Y0000450D01*
X0004940Y0002110D02*
Y0001678D01*
X0005299Y-0009810D02*
X0003580D01*
X0003995Y-0003695D02*
Y-0003754D01*
X0004580Y0002110D02*
Y0001994D01*
X0009420Y0002610D02*
X0009280D01*
X0007730Y0004150D02*
Y0003520D01*
X0008270Y0004150D02*
Y0003520D01*
X0008450Y0004150D02*
Y0003520D01*
X0008520Y0002070D02*
X0008405D01*
X0008520Y0002160D02*
X0008405D01*
X0010970Y0004150D02*
Y0003520D01*
X0006543Y0001620D02*
X0005007D01*
X0006686Y0001710D02*
X0004863D01*
X0006502Y0001350D02*
X0005048D01*
X0016250Y-0007380D02*
X0015420D01*
X0009080Y0004150D02*
Y0003520D01*
X0009350Y0004150D02*
Y0003520D01*
X0011870Y0004150D02*
Y0003520D01*
X0005570Y0002110D02*
Y0000685D01*
X0007620Y-0001440D02*
X0006730D01*
X0007620Y-0002520D02*
X0006870D01*
X0007620Y-0002430D02*
X0006870D01*
X0007670Y-0004680D02*
X0007370D01*
X0007620Y-0001710D02*
X0006870D01*
X0007620Y-0001530D02*
X0006820D01*
X0005935Y-0000655D02*
X0005445D01*
X0004419Y-0002520D02*
X0004381D01*
X0000630Y-0002160D02*
X-0001000D01*
X0004495D02*
X0004381D01*
X0014190Y-0009270D02*
X0013320D01*
X0011960Y-0008270D02*
Y-0008679D01*
X0015563Y-0009900D02*
X0014131D01*
X0015563Y-0009810D02*
X0014131D01*
Y-0009799D02*
Y-0009982D01*
X0013850Y-0009182D02*
Y-0009318D01*
X0014186Y-0009273D02*
X0014131Y-0009329D01*
X0013940Y-0009182D02*
Y-0009318D01*
X0014030Y-0009182D02*
Y-0009318D01*
X0014772Y-0009180D02*
X0014728D01*
X0015563Y-0009720D02*
X0014220D01*
X0014210Y-0008557D02*
Y-0009253D01*
X0009129Y-0008370D02*
X0008631D01*
X0014272Y-0009669D02*
Y-0009681D01*
X0009199Y0000720D02*
X0007570D01*
X0008631Y0000682D02*
X0008619D01*
X0006930Y0000000D02*
X0006675D01*
X0002259D02*
X0001379D01*
X0007100Y0001254D02*
Y0001070D01*
X0003680Y-0001932D02*
Y-0002068D01*
X0003860Y-0001175D02*
Y-0001268D01*
X0004760Y0000461D02*
Y0000080D01*
X0004495Y-0002444D02*
X0004381Y-0002559D01*
X0009315Y-0007240D02*
X0009505Y-0007430D01*
X0010070Y-0005470D02*
Y-0007505D01*
X0009739Y-0008570D02*
X0009180D01*
X0010323Y-0010890D02*
X0009816D01*
X0008770Y-0008010D02*
X0008505D01*
X0000630Y-0004860D02*
X-0001000D01*
X0008455Y-0004680D02*
X0008330D01*
X0008070Y-0005670D02*
X0007930D01*
X0008570Y-0006390D02*
X0008020D01*
Y-0006200D02*
Y-0006529D01*
X0007730Y-0003955D02*
Y-0004670D01*
X0007620Y-0003420D02*
X0007370D01*
X0010180Y-0006030D02*
X0009030D01*
X0004381Y-0001830D02*
Y-0001932D01*
X0008270Y-0004495D02*
Y-0004670D01*
X0008570Y-0006930D02*
X0008420D01*
X0007370Y-0001005D02*
Y-0003400D01*
X0007640Y-0003844D02*
Y-0004748D01*
X0007172Y-0000333D02*
X0007344Y-0000504D01*
X0007455Y-0001080D02*
X0005870D01*
X0007620Y-0002340D02*
X0006870D01*
X0007184Y-0000720D02*
X0005510D01*
X0004495Y-0001830D02*
X0004381D01*
X0004040Y-0001175D02*
Y-0001268D01*
X0004130Y-0001175D02*
Y-0001268D01*
X0006740Y0002110D02*
Y0001717D01*
X0004495Y-0001070D02*
Y-0001370D01*
X0007172Y-0000333D02*
X0007344Y-0000504D01*
X0007280Y-0000440D02*
Y-0000543D01*
X0008600Y0002430D02*
X0008405D01*
X-0000730Y0004150D02*
Y0001170D01*
X0009420Y0002340D02*
X0008405D01*
X0003668Y0001980D02*
X-0001000D01*
X0007595Y0002110D02*
X0007570D01*
X0007595Y0002070D02*
X0007570D01*
X0007975Y0002315D02*
X0007845Y0002185D01*
X0006650Y0004150D02*
Y0003070D01*
X0007910Y0002249D02*
Y0002185D01*
X0009280Y0002470D02*
X0008709D01*
X0007550Y-0010070D02*
Y-0011250D01*
X0016250Y-0005490D02*
X0015084D01*
X0016250Y-0010890D02*
X0012117D01*
X0012680Y-0009720D02*
X0012594D01*
X0007010Y0001222D02*
Y0001070D01*
X0007570Y0001430D02*
X0007285D01*
X0006920Y0002110D02*
Y0001715D01*
Y0001220D02*
Y0000685D01*
X0014840Y0004150D02*
Y0003520D01*
X0004580Y0004150D02*
Y0003114D01*
X0006980Y0001220D02*
X0006887D01*
X0004381Y-0001268D02*
Y-0001370D01*
X0006930Y0001725D02*
X0006885Y0001681D01*
X0007285Y0001430D02*
X0007144Y0001289D01*
X0006830Y0002110D02*
Y0001705D01*
X0007125Y-0000270D02*
X0006675D01*
X0006930Y0001990D02*
Y0001725D01*
X0007189Y-0000810D02*
X0005600D01*
X0009530Y0002070D02*
Y0001320D01*
X0014390Y-0003930D02*
Y-0004806D01*
X0009620Y0002070D02*
Y0001320D01*
X0004495Y-0001830D02*
X0004381D01*
X0004430Y-0000990D02*
X0004405D01*
X0004310Y-0001175D02*
Y-0001268D01*
X0004495Y-0001370D02*
X0004381D01*
X0004495D02*
X0004381D01*
X0004875Y0000360D02*
X0004480D01*
X0007190Y-0000813D02*
Y-0003149D01*
X0004495Y-0001830D02*
Y-0002444D01*
X0014285Y-0006570D02*
X0013320D01*
X0013940Y-0006394D02*
Y-0006930D01*
X0013846Y-0006300D02*
X0013820D01*
X0014285Y-0006660D02*
X0013320D01*
X0014030Y-0006470D02*
Y-0006930D01*
X0013843Y-0008190D02*
X0013500D01*
X0013369Y-0009900D02*
X0012598D01*
X0013580Y-0008110D02*
Y-0008518D01*
X0010430Y-0007200D02*
X0009985D01*
X0012680D02*
X0012570D01*
X0014051Y-0006480D02*
X0013820D01*
X0012140Y-0006570D02*
Y-0006930D01*
X0010180Y-0005850D02*
X0009985D01*
X0013936Y-0006390D02*
X0013820D01*
X0012050Y-0006570D02*
Y-0006930D01*
X0012950Y-0006570D02*
Y-0006930D01*
X0016250Y-0007200D02*
X0015420D01*
X0011960Y-0006570D02*
Y-0006930D01*
X0004400Y-0000670D02*
Y-0001370D01*
X0004495Y-0001830D02*
X0004381D01*
X0001160Y-0000745D02*
Y-0000830D01*
X0002684Y0000461D02*
Y0000425D01*
X0004495Y-0001830D02*
X0004381D01*
X0004495Y-0001370D02*
X0004381D01*
X0003995Y-0003050D02*
Y-0003195D01*
X0004495Y-0001370D02*
X0004381D01*
X0001899Y-0000360D02*
X0001331D01*
X0004207Y-0002732D02*
X0004072Y-0002867D01*
X0004130Y-0002732D02*
Y-0002809D01*
X0004149Y-0002790D02*
X0003320D01*
X0014180Y-0007005D02*
X0014070D01*
X0013940Y-0008287D02*
Y-0008518D01*
X0014180Y-0007470D02*
X0014070D01*
X0010430Y-0007020D02*
X0009985D01*
X0003995Y-0003695D02*
Y-0003754D01*
X0014070Y-0006930D02*
Y-0007005D01*
X0012680Y-0007470D02*
X0012570D01*
Y-0007510D02*
Y-0007565D01*
X0011820Y-0007490D02*
Y-0007510D01*
X0014120Y-0007435D02*
Y-0007986D01*
X0003995Y-0003690D02*
X0003930D01*
X0012980Y-0006570D02*
Y-0006930D01*
X0009820Y-0007430D02*
X0009505D01*
X0013723Y-0008070D02*
X0014272Y-0008618D01*
X0013400Y-0006570D02*
Y-0007109D01*
X0005930Y0004150D02*
Y0003070D01*
X0012680Y-0007110D02*
X0012570D01*
X0010880Y-0008270D02*
Y-0008506D01*
X0005750Y0004150D02*
Y0003070D01*
X0009710Y-0007240D02*
Y-0007430D01*
X0009530Y-0007240D02*
Y-0007430D01*
X0009800Y-0007240D02*
Y-0007430D01*
X0011070Y-0007490D02*
Y-0007510D01*
X0012500Y-0010356D02*
Y-0011250D01*
X0012680Y-0007020D02*
X0012570D01*
X0016250Y-0005040D02*
X0014627D01*
X0013430Y-0006930D02*
Y-0007082D01*
X0011960Y0004150D02*
Y0003520D01*
X0013580Y0004150D02*
Y0003520D01*
X0013670Y0004150D02*
Y0003520D01*
X0008090Y-0004315D02*
Y-0004670D01*
X0011930Y-0007510D02*
Y-0007565D01*
X0000630Y-0008280D02*
X-0001000D01*
X0010180Y-0005940D02*
X0009030D01*
X0006930Y0000810D02*
X0005431D01*
X0005120Y0000280D02*
Y-0000050D01*
X0004993Y0001264D02*
Y0001193D01*
X0003619Y-0001440D02*
X0003320D01*
X0004850Y0000461D02*
X0004831D01*
X0005210Y0002110D02*
Y0001193D01*
X0016250Y-0006840D02*
X0015420D01*
X0005300Y0002110D02*
Y0001193D01*
X0002530Y-0001530D02*
X0002433D01*
X0005480Y0002110D02*
Y0000685D01*
X0006110Y0002110D02*
Y0000685D01*
X0006290Y-0010055D02*
Y-0011250D01*
X0004993Y0001264D02*
Y0001193D01*
X0016250Y-0007020D02*
X0015420D01*
X0007869Y0000630D02*
X0007640D01*
X0006290Y0002110D02*
Y0000685D01*
X0006110Y0000255D02*
Y0000155D01*
X0008450Y0000818D02*
Y0000682D01*
X0008360Y0000818D02*
Y0000682D01*
X0008270Y0000818D02*
Y0000682D01*
X0008180Y0000818D02*
Y0000682D01*
X0008090Y0000818D02*
Y0000682D01*
X0008000Y0000818D02*
Y0000682D01*
X0007910Y0000818D02*
Y0000682D01*
X0009630Y0001530D02*
X0008917D01*
X0008990Y0004150D02*
Y0003520D01*
X0008270Y0001575D02*
Y0001482D01*
X0008180Y0001575D02*
Y0001482D01*
X0008090Y0001575D02*
Y0001482D01*
X0008000Y0001575D02*
Y0001482D01*
X0007910Y0001575D02*
Y0001482D01*
X0007190Y-0000350D02*
Y-0000686D01*
X0014772Y-0008370D02*
X0014728D01*
X0014772Y-0008460D02*
X0014728D01*
X0014772Y-0008640D02*
X0014728D01*
X0014772Y-0008730D02*
X0014728D01*
X0010790Y-0011153D02*
Y-0011250D01*
X0014660Y-0008894D02*
Y-0009106D01*
X0014570Y-0008894D02*
Y-0009106D01*
X0014390Y-0008894D02*
Y-0009106D01*
X0015563Y-0008370D02*
X0015420D01*
X0015563Y-0008460D02*
X0015420D01*
X0015563Y-0008640D02*
X0015420D01*
X0015563Y-0008730D02*
X0015420D01*
X0015563Y-0008820D02*
X0015420D01*
X0016250Y-0010710D02*
X0012292D01*
X0015563Y-0008550D02*
X0015420D01*
X0016250Y-0005940D02*
X0015420D01*
X0015080Y-0008910D02*
X0014131D01*
X0014830Y-0008280D02*
X0014414D01*
X0014930Y-0008894D02*
Y-0009106D01*
X0008360Y0002315D02*
Y0002185D01*
X0008270Y0002315D02*
Y0002185D01*
X0008180Y0002315D02*
Y0002185D01*
X0008090Y0002315D02*
Y0002185D01*
X0008000Y0002315D02*
Y0002185D01*
X0008450Y0002430D02*
Y0001728D01*
X0009420Y0002630D02*
X0009280D01*
X0015020Y0004150D02*
Y0003520D01*
X0008540Y0004150D02*
Y0003520D01*
X0016250Y-0003870D02*
X0016170D01*
X0004430Y-0000720D02*
X0004405D01*
X0004430Y-0000810D02*
X0004405D01*
X0004430Y-0000900D02*
X0004405D01*
X0005210Y0000255D02*
Y-0000050D01*
X0006470Y0002110D02*
Y0000685D01*
X0004040Y-0000435D02*
Y-0000565D01*
X0005570Y-0000655D02*
Y-0000779D01*
X0006650Y0000255D02*
Y0000155D01*
X0006560Y0000255D02*
Y0000155D01*
X0006470Y0000255D02*
Y0000155D01*
X0006380Y0000255D02*
Y0000155D01*
Y0002110D02*
Y0000685D01*
X0006930Y0000090D02*
X0006675D01*
X0011420Y-0008270D02*
Y-0008478D01*
X0007095Y-0000070D02*
X0006930D01*
X0007199Y-0000360D02*
X0006675D01*
X0007289Y-0000450D02*
X0006675D01*
X0005119Y0000280D02*
X0005020D01*
X0005840Y0000255D02*
Y0000155D01*
X0005750Y0000255D02*
Y0000155D01*
X0006740Y0000255D02*
Y-0001449D01*
X0011420Y0004150D02*
Y0003520D01*
X0016250Y0004150D02*
X0007655D01*
X0011330D02*
Y0003520D01*
X0015590Y0004050D02*
X0007655D01*
X0015515Y0003960D02*
X0007655D01*
X0015481Y0003870D02*
X0007655D01*
X0015474Y0003780D02*
X0007655D01*
X0015492Y0003690D02*
X0007655D01*
X0013760Y-0009182D02*
Y-0009318D01*
X0013670Y-0009182D02*
Y-0009318D01*
X0013580Y-0009182D02*
Y-0009318D01*
X0013490Y-0009182D02*
Y-0009318D01*
X0013400Y-0009182D02*
Y-0009318D01*
X0008000Y-0009732D02*
Y-0011250D01*
X0014272Y-0008640D02*
X0014131D01*
X0015080Y-0008894D02*
Y-0008979D01*
X0015563Y-0008910D02*
X0015420D01*
X0014272Y-0008730D02*
X0014131D01*
X0015059Y-0009000D02*
X0014131D01*
X0006560Y0002110D02*
Y0001638D01*
X0007384Y-0001009D02*
X0007620Y-0001245D01*
X0014285Y-0006930D02*
X0014180D01*
X0005445Y-0000655D02*
X0006170Y-0001380D01*
X0005660Y0000255D02*
Y0000155D01*
X0004310Y-0001932D02*
Y-0002068D01*
X0004220Y-0001932D02*
Y-0002068D01*
X0004130Y-0001932D02*
Y-0002068D01*
X0004040Y-0001932D02*
Y-0002068D01*
X0003950Y-0001932D02*
Y-0002068D01*
X0003860Y-0001932D02*
Y-0002068D01*
X0003770Y-0001932D02*
Y-0002068D01*
X0004495Y-0001980D02*
X0003320D01*
X0004495Y-0001260D02*
X0003320D01*
X0001340Y-0000325D02*
Y-0000830D01*
X0011070Y-0007510D02*
Y-0007565D01*
X0004570Y-0007990D02*
Y-0008010D01*
X0008630Y-0009170D02*
Y-0011250D01*
X0000630Y-0008640D02*
X-0001000D01*
X0014390Y-0009681D02*
Y-0011250D01*
X0009280Y0001670D02*
X0008889D01*
X0010205Y-0008910D02*
X0009880D01*
X0009977Y-0010440D02*
X0009748D01*
X0010025Y-0010530D02*
X0009829D01*
X0010081Y-0010620D02*
X0009867D01*
X0010148Y-0010710D02*
X0009876D01*
X0010228Y-0010800D02*
X0009861D01*
X0010441Y-0010980D02*
X0009718D01*
X0001877Y-0001710D02*
X0001755D01*
X0011870Y-0008270D02*
Y-0008626D01*
X0013400Y0004150D02*
Y0003520D01*
X0016100Y0004150D02*
Y0003929D01*
X0016010Y0004150D02*
Y0004050D01*
X0015920Y0004150D02*
Y0004104D01*
X0015830Y0004150D02*
Y0004125D01*
X0015740Y0004150D02*
Y0004121D01*
X0015650Y0004150D02*
Y0004090D01*
X0015560Y0004150D02*
Y0004021D01*
X0016250Y0004050D02*
X0016010D01*
X0016250Y0003960D02*
X0016085D01*
X0016250Y0003870D02*
X0016119D01*
X0016250Y0003780D02*
X0016126D01*
X0016250Y0003690D02*
X0016107D01*
X0002690Y0004150D02*
Y0001193D01*
X0000080Y0004150D02*
Y0003668D01*
X-0000010Y0004150D02*
Y0003766D01*
X-0000100Y0004150D02*
Y0003811D01*
X-0000190Y0004150D02*
Y0003826D01*
X-0000511Y0003600D02*
X-0001000D01*
X0003230Y0004150D02*
Y0001193D01*
X0006845Y0003780D02*
X-0000032D01*
X0006845Y0003690D02*
X0000066D01*
X0006845Y0003420D02*
X0000117D01*
X0006845Y0003330D02*
X0000079D01*
X-0000398Y0003240D02*
X-0001000D01*
X0001250Y0004150D02*
Y0000582D01*
X0014840Y-0008894D02*
Y-0009106D01*
X0014300Y-0008894D02*
Y-0009106D01*
X0003860Y0004150D02*
Y0002718D01*
X0012680Y-0009180D02*
X0012429D01*
X0012680Y-0009270D02*
X0012475D01*
X0012680Y-0009360D02*
X0012512D01*
X0013940Y-0009982D02*
Y-0011250D01*
X0011960Y-0011006D02*
Y-0011250D01*
X0013850Y-0009982D02*
Y-0011250D01*
X0012680Y-0009630D02*
X0012583D01*
X0015563Y-0010080D02*
X0012578D01*
X0015563Y-0010170D02*
X0012560D01*
X0015563Y-0010260D02*
X0012534D01*
X0015563Y-0010350D02*
X0012502D01*
X0015563Y-0010440D02*
X0012463D01*
X0011600Y-0008270D02*
Y-0008517D01*
X0014750Y-0008190D02*
Y-0009224D01*
X0011330Y-0008270D02*
Y-0008468D01*
X0011180Y-0007565D02*
X0011070D01*
X0006470Y0004150D02*
Y0003070D01*
X0008090Y-0009732D02*
Y-0011250D01*
X0010070Y-0008720D02*
Y-0009082D01*
X0006560Y0004150D02*
Y0003070D01*
X0000630Y-0004230D02*
X-0001000D01*
X0002468Y0000720D02*
X0001176D01*
X-0000820Y-0001108D02*
Y-0011250D01*
X0002870Y0004150D02*
Y0001193D01*
X0000620Y0004150D02*
Y0001231D01*
X0000530Y0004150D02*
Y0001273D01*
X0000440Y0004150D02*
Y0001307D01*
X0000350Y0004150D02*
Y0001334D01*
X0002468Y0000540D02*
X0001269D01*
X0000080Y0003332D02*
Y0001376D01*
X-0000010Y0003234D02*
Y0001379D01*
X-0000100Y0003189D02*
Y0001375D01*
X-0000479Y0003330D02*
X-0001000D01*
X-0000460Y0003302D02*
Y0001300D01*
X-0000960Y0000990D02*
X-0001000D01*
X0003668Y0001890D02*
X-0001000D01*
X0008180Y-0009732D02*
Y-0011250D01*
X0001880Y-0001110D02*
Y-0001704D01*
X0001970Y0004150D02*
Y-0000289D01*
X0001610Y0004150D02*
Y-0000649D01*
X0000630Y-0002790D02*
X-0001000D01*
X0014728Y-0008319D02*
X0014453D01*
X0009350Y-0010958D02*
Y-0011250D01*
X0015110Y-0009681D02*
Y-0011250D01*
X0016190Y-0003850D02*
Y-0007497D01*
X0016010Y-0003920D02*
Y-0007497D01*
X0015920Y-0003930D02*
Y-0007497D01*
X0014749Y-0008190D02*
X0014324D01*
X0004293Y-0008970D02*
X0004237D01*
X0001299Y-0009540D02*
X-0001000D01*
X0002780Y-0009870D02*
Y-0011250D01*
X0003770Y-0009620D02*
Y-0010223D01*
X0008270Y-0006330D02*
Y-0006779D01*
X0015563Y-0009990D02*
X0012591D01*
X0005480D02*
X-0001000D01*
X0009862Y-0010080D02*
X-0001000D01*
X0009906Y-0010260D02*
X0004450D01*
X0000630Y-0008190D02*
X-0001000D01*
X0009233Y-0010620D02*
X0004450D01*
X0009223Y-0010710D02*
X0004450D01*
X0003163Y-0010800D02*
X-0001000D01*
X0010813Y-0011160D02*
X-0001000D01*
X0008505Y-0007695D02*
Y-0007805D01*
X0002349Y0000090D02*
X0001376D01*
X0012680Y-0009540D02*
X0012565D01*
X0013000Y-0008680D02*
Y-0008970D01*
X0013320D02*
X0013000D01*
X0012680D02*
X0013000D01*
X0011250Y-0006570D02*
Y-0006280D01*
X0007670Y-0005310D02*
X0007370D01*
X0011060Y-0008270D02*
Y-0008473D01*
X0010500Y-0006570D02*
Y-0006280D01*
X0010180D02*
X0010500D01*
X0010680Y-0006570D02*
X0010180D01*
X0013500D02*
Y-0006280D01*
X0013430Y-0007020D02*
X0013320D01*
X0012000Y-0006570D02*
Y-0006280D01*
X0007397Y-0005220D02*
X0007370D01*
X0012980Y-0006570D02*
X0012520D01*
X0010180Y-0005760D02*
X0009985D01*
X0012750Y-0006570D02*
Y-0006280D01*
X0012980Y-0006660D02*
X0012520D01*
X0014285Y-0006930D02*
X0013320D01*
X0008400Y-0005570D02*
Y-0005950D01*
Y-0006330D02*
Y-0005950D01*
X0008070D02*
X0008400D01*
X0009280Y0002000D02*
X0008900D01*
X0008520D02*
X0008900D01*
Y0002330D02*
Y0002000D01*
X0008383Y0001524D02*
X0008341Y0001482D01*
X0002657Y0000461D02*
Y0000827D01*
Y0001193D02*
Y0000827D01*
X0002468D02*
X0002657D01*
X-0000281Y0001350D02*
X-0001000D01*
X0009000Y0001482D02*
Y0001150D01*
Y0000818D02*
Y0001150D01*
X0008631Y-0008600D02*
X0008250D01*
X0003163Y-0010890D02*
X-0001000D01*
X0010740Y-0008550D02*
X0010240D01*
X0008405Y0001880D02*
X0008000D01*
X0003668Y0001620D02*
X-0001000D01*
X0008000Y0002185D02*
Y0001880D01*
Y0001575D02*
Y0001880D01*
X0016250Y-0004500D02*
X0014126D01*
X0003595Y-0000870D02*
X0004000D01*
Y-0000565D02*
Y-0000870D01*
Y-0001175D02*
Y-0000870D01*
X0006370Y0000155D02*
Y-0000250D01*
Y-0000655D02*
Y-0000250D01*
X0006065D02*
X0006370D01*
X0006675D02*
X0006370D01*
X0006845Y0003870D02*
X0007250D01*
X0007655D02*
X0007250D01*
Y0003565D02*
Y0003870D01*
X0007655Y0004150D02*
Y0003565D01*
X0014131Y-0008850D02*
X0013750D01*
X0013369D02*
X0013750D01*
Y-0008518D02*
Y-0008850D01*
Y-0009182D02*
Y-0008850D01*
X0009985Y-0006910D02*
X0009500D01*
Y-0007240D02*
Y-0006910D01*
Y-0006580D02*
Y-0006910D01*
X0003619Y-0002400D02*
X0004000D01*
X0004381D02*
X0004000D01*
Y-0002732D02*
Y-0002400D01*
X0016010Y-0010643D02*
Y-0011250D01*
X0003595Y-0000720D02*
X0003320D01*
X0001700Y0004150D02*
Y-0000559D01*
X0012140Y-0008270D02*
Y-0008815D01*
X0016250Y0003420D02*
X0015870D01*
X0016250Y0003240D02*
X0016050D01*
X0012230Y-0008270D02*
Y-0008903D01*
X0013130Y0004150D02*
Y0003520D01*
X0007620Y-0003600D02*
X0007370D01*
X0007620Y-0003330D02*
X0007355D01*
X0007620Y-0001260D02*
X0006050D01*
X0002060Y-0009870D02*
Y-0011250D01*
X0000757Y-0001152D02*
X0000682Y-0001227D01*
X0001429Y-0000830D02*
X0001150D01*
X0008180Y-0006330D02*
Y-0006689D01*
X0008730Y-0007740D02*
X0008505D01*
Y-0007680D02*
Y-0007695D01*
X0003320Y-0003079D02*
X0003995Y-0003754D01*
X0004995Y-0008255D02*
Y-0008305D01*
X0012590Y-0006570D02*
Y-0007565D01*
X0012680Y-0006570D02*
Y-0007565D01*
X0012950Y-0009820D02*
Y-0011250D01*
X0004495Y-0001070D02*
X0004430D01*
X0012180Y-0006570D02*
X0011820D01*
X0012180D02*
Y-0006930D01*
X0012980Y-0006570D02*
X0012520D01*
X0009890Y0004150D02*
Y0003520D01*
X0004850Y0002110D02*
Y0001713D01*
X0004400Y0002110D02*
Y0002047D01*
X0009440Y0004150D02*
Y0003520D01*
X0010250Y0004150D02*
Y0003520D01*
X0004850Y0004150D02*
Y0003070D01*
X0004040Y0002049D02*
Y0001711D01*
X0005012Y0001193D02*
X0004993D01*
X0004205Y0003060D02*
X-0001000D01*
X0011060Y0004150D02*
Y0003520D01*
X0007370Y-0005198D02*
Y-0005479D01*
X0004161Y0002970D02*
X-0001000D01*
X0005480Y0004150D02*
Y0003070D01*
X0006845D02*
X0004627D01*
X0005840Y0004150D02*
Y0003070D01*
X0006930Y0001800D02*
X0004687D01*
X0008720Y0004150D02*
Y0003520D01*
X0005300Y0004150D02*
Y0003070D01*
X0006930Y0001980D02*
X0004598D01*
X0006830Y0004150D02*
Y0003070D01*
X0007910Y0004150D02*
Y0003520D01*
X0007010Y0003565D02*
Y0003435D01*
X0007100Y0003565D02*
Y0003435D01*
X0007190Y0003565D02*
Y0003435D01*
X0007280Y0003565D02*
Y0003435D01*
X0007370Y0003565D02*
Y0003435D01*
X0007460Y0003565D02*
Y0003435D01*
X0007642Y0003510D02*
X0000126D01*
X0008630Y0002433D02*
Y0002330D01*
X0006845Y0003600D02*
X0000111D01*
X0007190Y-0010070D02*
Y-0011250D01*
X0011150Y0004150D02*
Y0003520D01*
X0007580Y0003470D02*
X0007544Y0003435D01*
X0014210Y0004150D02*
Y0003520D01*
X0014480Y-0003930D02*
Y-0004895D01*
X0015740Y-0003930D02*
Y-0007497D01*
X0014480Y0004150D02*
Y0003520D01*
X0014570Y0004150D02*
Y0003520D01*
X0012590Y0004150D02*
Y0003520D01*
X0012770Y0004150D02*
Y0003520D01*
X0013040Y0004150D02*
Y0003520D01*
X0015830Y0003475D02*
Y0003460D01*
X0013220Y0004150D02*
Y0003520D01*
X0015290Y0004150D02*
Y0003520D01*
X0016190Y0004150D02*
Y0003100D01*
X0007550Y0003565D02*
Y0003440D01*
X0015920Y0003496D02*
Y0003370D01*
X0016010Y0003550D02*
Y0003280D01*
X0014570Y-0003930D02*
Y-0004983D01*
X0016250Y-0005850D02*
X0015415D01*
X0016250Y-0005310D02*
X0014901D01*
X0016250Y-0005670D02*
X0015267D01*
X0007620Y-0002610D02*
X0006870D01*
X0010250Y-0006570D02*
Y-0007505D01*
X0010340Y-0006570D02*
Y-0007505D01*
X0010160Y-0005470D02*
Y-0007505D01*
X0015020Y-0003930D02*
Y-0005427D01*
X0014930Y-0003930D02*
Y-0005338D01*
X0009980Y-0005510D02*
Y-0007505D01*
X0009350Y0002630D02*
Y0001482D01*
X0008180Y0004150D02*
Y0003520D01*
X0008570Y-0004795D02*
Y-0005570D01*
X0000170Y0004150D02*
Y0001368D01*
X0001790Y0004150D02*
Y-0000469D01*
X0010180Y-0006480D02*
X0009030D01*
X0010340Y-0010904D02*
Y-0011250D01*
X0014120Y-0009982D02*
Y-0011250D01*
X0013400Y-0008262D02*
Y-0008518D01*
X0003995Y-0003670D02*
Y-0003695D01*
X0001790Y-0001200D02*
Y-0001745D01*
X0001755Y-0001695D02*
Y-0001745D01*
X0002530Y-0000460D02*
Y-0001593D01*
X0003995Y-0003195D02*
Y-0003500D01*
X0009381Y0001482D02*
Y0001266D01*
X0000800Y0004150D02*
Y0001123D01*
X0004995Y-0008820D02*
X0004767D01*
X0004995Y-0008910D02*
X0004744D01*
X0004995Y-0008255D02*
Y-0008305D01*
X0004310Y-0009366D02*
Y-0010223D01*
X0001389Y-0009630D02*
X-0001000D01*
X0004995Y-0008460D02*
X0004570D01*
X0004004Y-0009450D02*
X0003940D01*
X0008000Y-0004225D02*
Y-0004670D01*
X0007228Y-0000900D02*
X0005690D01*
X0007190Y0001335D02*
Y0001070D01*
X0012860Y0004150D02*
Y0003520D01*
X0015560Y-0003930D02*
Y-0011250D01*
X0009630Y0001440D02*
X0009381D01*
X0013369Y-0008730D02*
X0013320D01*
X0013369Y-0008820D02*
X0013320D01*
X0013369Y-0009000D02*
X0013320D01*
X0013369Y-0008910D02*
X0013320D01*
X0013369Y-0009090D02*
X0013320D01*
X0013369Y-0009360D02*
X0013320D01*
X0004995Y-0009180D02*
X0004367D01*
X0013369Y-0009720D02*
X0013320D01*
X0013369Y-0009810D02*
X0013320D01*
X0012680Y-0009090D02*
X0012376D01*
X0004220Y0002110D02*
Y0001958D01*
X0009620Y-0007240D02*
Y-0007430D01*
X0014180Y-0006930D02*
Y-0007005D01*
X0013410Y-0007100D02*
X0013320Y-0007189D01*
X0013490Y-0006570D02*
Y-0006930D01*
X0012980Y-0006840D02*
X0012520D01*
X0000630Y-0003060D02*
X-0001000D01*
X0005570Y0004150D02*
Y0003070D01*
X0002439Y0000180D02*
X0001367D01*
X0005325Y0000090D02*
X0004750D01*
X0004670Y0000461D02*
Y0000170D01*
X0004580Y0000461D02*
Y0000260D01*
X0015563Y-0007830D02*
X0015420D01*
X0004995Y-0008370D02*
X0004570D01*
X0006740Y-0010055D02*
Y-0011250D01*
X0004580Y-0007929D02*
Y-0008544D01*
X0004995Y-0008640D02*
X0004714D01*
X0004649Y-0008010D02*
X0004570D01*
X0004995Y-0009000D02*
X0004678D01*
X0004995Y-0009270D02*
X0004358D01*
X0004400Y-0009048D02*
Y-0010223D01*
X0007689Y-0003914D02*
X0008570Y-0004795D01*
X0008270Y-0005430D02*
Y-0005570D01*
X0008180Y-0005430D02*
Y-0005570D01*
X0008090Y-0005430D02*
Y-0005570D01*
X0007622Y-0003780D02*
X0007370D01*
X0006020Y0002110D02*
Y0000685D01*
X0008570Y-0005490D02*
X0007380D01*
X0010180Y-0005670D02*
X0009985D01*
X0012570Y-0006930D02*
Y-0007490D01*
X0007910Y-0005430D02*
Y-0005570D01*
X0007730Y-0005430D02*
Y-0005570D01*
X0009440Y-0007240D02*
Y-0007365D01*
X0008070Y-0005580D02*
X0007930D01*
X0008570Y-0006330D02*
Y-0007050D01*
X0008070Y-0005760D02*
X0007930D01*
X0008070Y-0005850D02*
X0007930D01*
X0008070Y-0005940D02*
X0007930D01*
X0008070Y-0006030D02*
X0007930D01*
X0007284Y-0000540D02*
X0006675D01*
X0008570Y-0005130D02*
X0008330D01*
X0009420Y0002250D02*
X0009280D01*
X0009260Y0002470D02*
Y0002330D01*
X0009170Y0002470D02*
Y0002330D01*
X0009080Y0002470D02*
Y0002330D01*
X0008990Y0002470D02*
Y0002330D01*
X0008900Y0002470D02*
Y0002330D01*
X0008810Y0002470D02*
Y0002330D01*
X0008720Y0002470D02*
Y0002330D01*
X0009420Y0002160D02*
X0009280D01*
X0009630Y0001350D02*
X0009381D01*
X0009630Y0002070D02*
X0009280D01*
X0009630Y0001890D02*
X0009280D01*
X0009630Y0001800D02*
X0009280D01*
X0009420Y0002520D02*
X0009280D01*
X0010700Y0004150D02*
Y0003520D01*
X0009530Y0004150D02*
Y0003520D01*
X0010880Y0004150D02*
Y0003520D01*
X0012410Y0004150D02*
Y0003520D01*
X0016250Y0004150D02*
Y0003040D01*
X0004044Y-0000435D02*
X0003595D01*
X0007545Y-0001170D02*
X0005960D01*
X0007620Y-0001980D02*
X0006870D01*
X0006830Y0000255D02*
Y-0001540D01*
X0008540Y0002430D02*
Y0002330D01*
X0006380Y-0000655D02*
Y-0001380D01*
X0008005Y-0004230D02*
X0007370D01*
Y-0003400D02*
Y-0004802D01*
X0007620Y-0003150D02*
X0007190D01*
X0010592Y-0011070D02*
X-0001000D01*
X0009270Y0000810D02*
X0007570D01*
X0004760Y-0008120D02*
Y-0008736D01*
X0005030Y-0009529D02*
Y-0011250D01*
X0013369Y-0009700D02*
Y-0009982D01*
X0003230Y-0009870D02*
Y-0010223D01*
X0010430Y-0007290D02*
X0009365D01*
X0002240Y-0009870D02*
Y-0011250D01*
X0003619Y-0002250D02*
X0003320D01*
X0007100Y-0010055D02*
Y-0011250D01*
X0004670Y-0009007D02*
Y-0011250D01*
X0003995Y-0003240D02*
X0003480D01*
X0003619Y-0001350D02*
X0003320D01*
X0002665Y0001193D02*
X0002468D01*
X-0000910Y-0001036D02*
Y-0011250D01*
X0003050Y0004150D02*
Y0001193D01*
X0002600Y0004150D02*
Y0001193D01*
X0002780Y0004150D02*
Y0001193D01*
X0002960Y0004150D02*
Y0001193D01*
X0003256D02*
X0003240D01*
X0009080Y0000818D02*
Y0000682D01*
X0008990Y0000818D02*
Y0000682D01*
X0008900Y0000818D02*
Y0000682D01*
X0008810Y0000818D02*
Y0000682D01*
X0008720Y0000818D02*
Y0000682D01*
X0008630Y0000818D02*
Y0000682D01*
X0008405Y0002430D02*
Y0002315D01*
X0003832Y0002610D02*
X-0001000D01*
X0009260Y0001670D02*
Y0001482D01*
X0009170Y0001670D02*
Y0001482D01*
X0009080Y0001670D02*
Y0001482D01*
X0008990Y0001670D02*
Y0001482D01*
X0008383Y0001530D02*
X0007570D01*
X0009381Y0001482D02*
X0008909D01*
X0010546Y-0008640D02*
X0010150D01*
X0010011Y-0009180D02*
X0008631D01*
X0009966Y-0009270D02*
X0008631D01*
X0009929Y-0009360D02*
X0008631D01*
X0009898Y-0009450D02*
X0008631D01*
X0009875Y-0009540D02*
X0008631D01*
X0014113Y-0008460D02*
X0010330D01*
X0014023Y-0008370D02*
X0010420D01*
X0010406Y-0008730D02*
X0010060D01*
X0011480Y-0006570D02*
X0011020D01*
X0006930Y0000216D02*
Y-0000070D01*
X0011150Y-0006570D02*
Y-0007565D01*
X0009479Y-0008830D02*
X0008631D01*
X0008990Y-0008230D02*
Y-0008830D01*
X0008570Y-0006570D02*
X0008060D01*
X0008659Y-0007650D02*
X0008505D01*
X0008810Y-0009170D02*
Y-0011250D01*
X0009350Y-0009170D02*
Y-0010442D01*
X0008540Y0000818D02*
Y0000682D01*
X0015950Y0000300D02*
X0014450D01*
X0013340Y-0002254D02*
Y-0003746D01*
X0015950Y-0003580D02*
X0013751D01*
X0015950Y-0001500D02*
X0014450D01*
X0014060Y-0002254D02*
Y-0003580D01*
X0013520Y-0002254D02*
Y-0003742D01*
X0013250Y-0002254D02*
Y-0003746D01*
X0010750Y-0002130D02*
X0008300D01*
X0012980Y-0002254D02*
Y-0003746D01*
X0010750Y-0002040D02*
X0008300D01*
X0012890Y-0002254D02*
Y-0003746D01*
X0012620Y-0002254D02*
Y-0003746D01*
X0010750Y0001020D02*
X0010070D01*
X0011180Y-0002254D02*
Y-0003580D01*
X0015650Y0003000D02*
X0014450D01*
X0011090Y-0002254D02*
Y-0003580D01*
X0010750Y-0000150D02*
X0009775D01*
X0010100Y0001100D02*
Y-0003750D01*
X0015560Y0003090D02*
X0014450D01*
X0015740Y0002910D02*
X0014450D01*
X0010070Y0001100D02*
Y0000760D01*
X0010750Y-0000690D02*
X0009450D01*
X0008300Y-0003609D02*
X0008440Y-0003750D01*
X0010190Y0001100D02*
Y-0003750D01*
X0010709D02*
X0008440D01*
X0009450Y-0001900D02*
X0008300D01*
X0010070Y0000760D02*
Y0000740D01*
X0010750Y0001100D02*
Y-0002250D01*
X0014450D02*
X0010750D01*
X0014450Y0003100D02*
Y-0002250D01*
X0015550Y0003100D02*
X0014450D01*
X0015550D02*
X0015950Y0002700D01*
Y-0003580D01*
X0015860Y0002790D02*
Y-0003580D01*
X0015680Y0002970D02*
Y-0003580D01*
X0015590Y0003060D02*
Y-0003580D01*
X0015500Y0003100D02*
Y-0003580D01*
X0015410Y0003100D02*
Y-0003580D01*
X0015320Y0003100D02*
Y-0003580D01*
X0015230Y0003100D02*
Y-0003580D01*
X0015140Y0003100D02*
Y-0003580D01*
X0015050Y0003100D02*
Y-0003580D01*
X0014960Y0003100D02*
Y-0003580D01*
X0014870Y0003100D02*
Y-0003580D01*
X0014780Y0003100D02*
Y-0003580D01*
X0014690Y0003100D02*
Y-0003580D01*
X0013700Y-0002254D02*
Y-0003588D01*
X0013631Y-0003630D02*
X0013533Y-0003727D01*
X0013601Y-0003660D02*
X0011399D01*
X0015950Y0001560D02*
X0014450D01*
X0015950Y0002010D02*
X0014450D01*
X0015950Y-0001680D02*
X0014450D01*
X0010750Y0000480D02*
X0010070D01*
X0010750Y-0000420D02*
X0009450D01*
X0015950Y-0000690D02*
X0014450D01*
X0011368Y-0003630D02*
X0011466Y-0003727D01*
X0011000Y-0002254D02*
Y-0003580D01*
X0015950Y0002550D02*
X0014450D01*
X0012530Y-0002254D02*
Y-0003746D01*
X0015950Y-0001590D02*
X0014450D01*
X0008660Y-0001900D02*
Y-0003750D01*
X0015950Y0000030D02*
X0014450D01*
X0009380Y-0001900D02*
Y-0003750D01*
X0015950Y-0000870D02*
X0014450D01*
X0012710Y-0002254D02*
Y-0003746D01*
X0010750Y0001100D02*
X0010070D01*
X0009668Y-0001355D02*
X0009450D01*
X0015950Y-0000240D02*
X0014450D01*
X0009920Y-0001307D02*
Y-0003750D01*
X0015950Y0002370D02*
X0014450D01*
X0009830Y-0001355D02*
Y-0003750D01*
X0015950Y0001740D02*
X0014450D01*
X0010750Y0000210D02*
X0010070D01*
X0010799Y-0003660D02*
X0008350D01*
X0015950Y-0001860D02*
X0014450D01*
X0010750D02*
X0009450D01*
X0015950Y-0001950D02*
X0014450D01*
X0010750D02*
X0008300D01*
X0010750Y-0000960D02*
X0009978D01*
X0010750Y-0002220D02*
X0008300D01*
X0015950Y-0002310D02*
X0008300D01*
X0015950Y-0002400D02*
X0008300D01*
X0015950Y-0002490D02*
X0008300D01*
X0015950Y-0002580D02*
X0008300D01*
X0015950Y-0002670D02*
X0008300D01*
X0015950Y-0002760D02*
X0008300D01*
X0015950Y-0002850D02*
X0008300D01*
X0015950Y-0002940D02*
X0008300D01*
X0015950Y-0003030D02*
X0008300D01*
X0015950Y-0003120D02*
X0008300D01*
X0015950Y-0003210D02*
X0008300D01*
X0015950Y-0003300D02*
X0008300D01*
X0015950Y-0003390D02*
X0008300D01*
X0015950Y-0003480D02*
X0008300D01*
X0015950Y0002190D02*
X0014450D01*
X0015950Y0001470D02*
X0014450D01*
X0010750Y-0001590D02*
X0009450D01*
X0015950Y0000840D02*
X0014450D01*
X0015950Y0001920D02*
X0014450D01*
X0015950Y0001200D02*
X0014450D01*
X0015950Y0002460D02*
X0014450D01*
X0014510Y0003100D02*
Y-0003580D01*
X0015950Y0002100D02*
X0014450D01*
X0010640Y0001100D02*
Y-0003750D01*
X0014600Y0003100D02*
Y-0003580D01*
X0015950Y0000750D02*
X0014450D01*
X0009740Y-0000185D02*
Y-0000832D01*
X0008570Y-0001900D02*
Y-0003750D01*
X0010750Y-0001410D02*
X0009450D01*
X0010460Y0001100D02*
Y-0003750D01*
X0010750Y0000660D02*
X0010070D01*
X0015950Y0001290D02*
X0014450D01*
X0010730Y0001100D02*
Y-0003729D01*
X0010750Y0000300D02*
X0010070D01*
X0015950Y0001830D02*
X0014450D01*
X0008930Y-0001900D02*
Y-0003750D01*
X0015950Y-0000060D02*
X0014450D01*
X0015950Y-0001770D02*
X0014450D01*
X0010750Y-0000510D02*
X0009450D01*
X0010750Y-0001320D02*
X0009902D01*
X0009668Y-0000845D02*
X0009450D01*
X0010750Y-0000330D02*
X0009500D01*
X0009668Y-0000845D02*
X0009450D01*
X0009912Y-0000012D02*
X0009664Y-0000261D01*
X0009450Y-0001355D02*
Y-0001900D01*
X0010750Y-0001140D02*
X0010014D01*
X0015950D02*
X0014450D01*
X0008480Y-0001900D02*
Y-0003750D01*
X0010750Y0000120D02*
X0009978D01*
X0014240Y-0002250D02*
Y-0003580D01*
X0015950Y-0000510D02*
X0014450D01*
X0008750Y-0001900D02*
Y-0003750D01*
X0009110Y-0001900D02*
Y-0003750D01*
X0015950Y-0000330D02*
X0014450D01*
X0009920Y-0000005D02*
Y-0000893D01*
X0013160Y-0002254D02*
Y-0003746D01*
X0011810Y-0002254D02*
Y-0003746D01*
X0014330Y-0002250D02*
Y-0003580D01*
X0009668Y-0001355D02*
X0009450D01*
X0010750Y0000840D02*
X0010070D01*
X0012260Y-0002254D02*
Y-0003746D01*
X0015950Y-0001320D02*
X0014450D01*
X0010750Y-0001230D02*
X0009984D01*
X0013070Y-0002254D02*
Y-0003746D01*
X0012440Y-0002254D02*
Y-0003746D01*
X0010750Y0000390D02*
X0010070D01*
X0009200Y-0001900D02*
Y-0003750D01*
X0009020Y-0001900D02*
Y-0003750D01*
X0015950Y0001380D02*
X0014450D01*
X0011450Y-0002254D02*
Y-0003711D01*
X0010830Y-0003630D02*
X0010709Y-0003750D01*
X0014150Y-0002250D02*
Y-0003580D01*
X0011248D02*
X0010950D01*
X0013610Y-0002254D02*
Y-0003651D01*
X0011360Y-0002254D02*
Y-0003622D01*
X0010750Y-0001050D02*
X0010013D01*
X0011900Y-0002254D02*
Y-0003746D01*
X0011540Y-0002254D02*
Y-0003746D01*
X0010750Y-0001500D02*
X0009450D01*
X0011990Y-0002254D02*
Y-0003746D01*
X0012080Y-0002254D02*
Y-0003746D01*
X0012350Y-0002254D02*
Y-0003746D01*
X0009560Y-0001355D02*
Y-0003750D01*
X0012170Y-0002254D02*
Y-0003746D01*
X0015950Y0001110D02*
X0014450D01*
X0010750Y0000570D02*
X0010070D01*
X0015950Y-0002040D02*
X0014450D01*
X0015950Y-0002220D02*
X0014450D01*
X0015770Y0002880D02*
Y-0003580D01*
X0013970Y-0002254D02*
Y-0003580D01*
X0013880Y-0002254D02*
Y-0003580D01*
X0013790Y-0002254D02*
Y-0003580D01*
X0015950Y-0002130D02*
X0014450D01*
X0010750Y-0001770D02*
X0009450D01*
X0008300Y-0001900D02*
Y-0003609D01*
X0010750Y-0000240D02*
X0009685D01*
X0015950Y0002280D02*
X0014450D01*
X0010910Y-0002254D02*
Y-0003585D01*
X0009650Y-0001355D02*
Y-0003750D01*
X0009500Y-0000330D02*
X0009450D01*
X0010070Y0000740D02*
Y0000180D01*
X0010370Y0001100D02*
Y-0003750D01*
X0015920Y0002730D02*
X0014450D01*
X0010280Y0001100D02*
Y-0003750D01*
X0015950Y-0001230D02*
X0014450D01*
X0015950Y0000210D02*
X0014450D01*
X0015950Y0000120D02*
X0014450D01*
X0015950Y0000570D02*
X0014450D01*
X0015950Y-0001050D02*
X0014450D01*
X0010750Y0000930D02*
X0010070D01*
X0009470Y-0001355D02*
Y-0003750D01*
X0009290Y-0001900D02*
Y-0003750D01*
X0008390Y-0001900D02*
Y-0003699D01*
X0009650Y-0000274D02*
Y-0000845D01*
X0009470Y-0000330D02*
Y-0000845D01*
X0015950Y-0000150D02*
X0014450D01*
X0011270Y-0002254D02*
Y-0003581D01*
X0010750Y0000030D02*
X0009946D01*
X0009560Y-0000322D02*
Y-0000845D01*
X0015950Y0000660D02*
X0014450D01*
X0015950Y0000390D02*
X0014450D01*
X0008840Y-0001900D02*
Y-0003750D01*
X0009980Y0000180D02*
Y0000150D01*
X0015950Y-0000960D02*
X0014450D01*
X0010010Y0000180D02*
Y-0001036D01*
X0010750Y-0000870D02*
X0009887D01*
X0010750Y-0001680D02*
X0009450D01*
X0014420Y-0002250D02*
Y-0003580D01*
X0009740Y-0001367D02*
Y-0003750D01*
X0011630Y-0002254D02*
Y-0003746D01*
X0015950Y-0003570D02*
X0008300D01*
X0015830Y0002820D02*
X0014450D01*
X0010750Y-0000780D02*
X0009450D01*
X0015950Y0001650D02*
X0014450D01*
X0011720Y-0002254D02*
Y-0003746D01*
X0013430Y-0002254D02*
Y-0003746D01*
X0010820Y-0002250D02*
Y-0003639D01*
X0015950Y-0000780D02*
X0014450D01*
X0015950Y0001020D02*
X0014450D01*
X0015950Y0000480D02*
X0014450D01*
X0010010Y-0001163D02*
Y-0003750D01*
X0010550Y0001100D02*
Y-0003750D01*
X0015950Y-0000600D02*
X0014450D01*
X0015950Y-0000420D02*
X0014450D01*
X0010750Y-0000600D02*
X0009450D01*
X0010070Y0000180D02*
X0009980D01*
X0010750Y0000750D02*
X0010070D01*
X0015950Y-0001410D02*
X0014450D01*
X0015950Y0002640D02*
X0014450D01*
X0015950Y0000930D02*
X0014450D01*
X0010750Y-0000060D02*
X0009865D01*
X0009912Y-0000012D02*
X0009664Y-0000261D01*
X0009450Y-0000330D02*
Y-0000845D01*
X0012800Y-0002254D02*
Y-0003746D01*
X0009830Y-0000095D02*
Y-0000844D01*
G01X0004800Y0001718D02*
G03X0004670Y0001684I0000000J0000268D01*
G01X0005431Y0000827D02*
G03X0005405Y0000929I0000215J0000000D01*
G01X-0001000Y-0000949D02*
G03X0000000Y-0001379I0001000J0000949D01*
G01X0009223Y-0010700D02*
G03X0009550Y-0011027I0000327J0000000D01*
G03X0009877Y-0010700I0000000J0000327D01*
G03X0009550Y-0010373I0000327J0000000D01*
G03X0009223Y-0010700I0000000J0000327D01*
G01X0016127Y0003800D02*
G03X0015800Y0004127I0000327J0000000D01*
G03X0015473Y0003800I0000000J0000327D01*
G01X-0000527Y0003500D02*
G03X-0000200Y0003173I0000327J0000000D01*
G03X0000127Y0003500I0000000J0000327D01*
G03X-0000200Y0003827I0000327J0000000D01*
G03X-0000527Y0003500I0000000J0000327D01*
G01X0004820Y-0008180D02*
G03X0004995Y-0008255I0000180J0000180D01*
G01X0000680Y-0001230D02*
G03X0000630Y-0001350I0000120J0000120D01*
G01X0001150Y-0000830D02*
G03X0001094Y-0000839I0000000J0000170D01*
G01X0004995Y-0009400D02*
G03X0005070Y-0009580I0000255J0000000D01*
G01X0004500Y-0009068D02*
G03X0004768Y-0008800I0000000J0000268D01*
G03X0004570Y-0008541I0000268J0000000D01*
G01X0004368Y-0009200D02*
G03X0004237Y-0008970I0000268J0000000D01*
G01X0004293D02*
G03X0004500Y-0009068I0000207J0000170D01*
G01X0001094Y-0000839D02*
G03X0001379Y0000000I0001094J0000839D01*
G01X0005119Y0000280D02*
G03X0005220Y0000255I0000101J0000190D01*
G01X0007370Y-0005198D02*
G03X0007550Y-0005268I0000180J0000198D01*
G01X0003832Y0002600D02*
G03X0003916Y0002406I0000268J0000000D01*
G01X0009550Y-0009170D02*
G03X0009670Y-0009120I0000000J0000170D01*
G01X0004161Y0001710D02*
G03X0004100Y0001717I0000061J0000260D01*
G01X0004152Y0002900D02*
G03X0004155Y0002862I0000268J0000000D01*
G03X0004100Y0002868I0000055J0000262D01*
G03X0003832Y0002600I0000000J0000268D01*
G01X0004152Y0001780D02*
G03X0004161Y0001710I0000268J0000000D01*
G01X0003718Y0002208D02*
G03X0003668Y0002088I0000120J0000120D01*
G01X0004100Y0001718D02*
G03X0004008Y0001701I0000000J0000268D01*
G01X0008909Y0001482D02*
G03X0008918Y0001550I0000259J0000068D01*
G01X0013350Y-0008270D02*
G03X0013470Y-0008220I0000000J0000170D01*
G01X0004627Y0003070D02*
G03X0004420Y0003168I0000207J0000170D01*
G01X0009550Y-0009170D02*
G03X0009670Y-0009120I0000000J0000170D01*
G01X0008382Y0001550D02*
G03X0008383Y0001524I0000268J0000000D01*
G01X0007550Y-0005268D02*
G03X0007670Y-0005239I0000000J0000268D01*
G01X0011770Y-0006870D02*
G03X0011820Y-0006750I0000120J0000120D01*
G01X0011000Y-0006930D02*
G03X0011020Y-0006850I0000150J0000080D01*
G01X0010630Y-0006830D02*
G03X0010581Y-0006930I0000120J0000120D01*
G01X0010630Y-0006830D02*
G03X0010581Y-0006930I0000120J0000120D01*
G01X0008570Y-0007050D02*
G03X0008572Y-0007082I0000230J0000000D01*
G01X0015473Y0003800D02*
G03X0015632Y0003520I0000327J0000000D01*
G01X0004570Y-0007910D02*
G03X0004620Y-0007980I0000230J0000110D01*
G01X0000630Y-0008800D02*
G03X0000680Y-0008920I0000170J0000000D01*
Y-0001230D02*
G03X0000630Y-0001350I0000120J0000120D01*
G01X0003450Y-0009870D02*
G03X0003570Y-0009820I0000000J0000170D01*
G01X0001580D02*
G03X0001700Y-0009870I0000120J0000120D01*
G01X0003961Y-0009429D02*
G03X0004100Y-0009468I0000139J0000229D01*
G03X0004368Y-0009200I0000000J0000268D01*
G01X0001580Y-0009820D02*
G03X0001700Y-0009870I0000120J0000120D01*
G01X0014131Y-0009799D02*
G03X0014170Y-0009770I0000081J0000149D01*
G01X0007095Y-0000150D02*
G03X0007170Y-0000330I0000255J0000000D01*
G01X0006750Y0001182D02*
G03X0006887Y0001220I0000000J0000268D01*
G01X0015370Y-0009170D02*
G03X0015420Y-0009050I0000120J0000120D01*
Y-0005892D02*
G03X0015369Y-0005771I0000170J0000000D01*
G01X0002530Y-0001593D02*
G03X0002250Y-0001488I0000280J0000320D01*
G01X0006720Y-0001430D02*
G03X0006600Y-0001380I0000120J0000120D01*
G01X0006870Y-0001650D02*
G03X0006820Y-0001530I0000170J0000000D01*
G01X0007344Y-0000504D02*
G03X0007182Y-0000750I0000106J0000246D01*
G01X0007370Y-0003400D02*
G03X0007320Y-0003280I0000170J0000000D01*
G01X0007370Y-0003400D02*
G03X0007320Y-0003280I0000170J0000000D01*
G01X0007182Y-0000750D02*
G03X0007384Y-0001009I0000268J0000000D01*
G01X0005470Y-0009980D02*
G03X0005650Y-0010055I0000180J0000180D01*
G01X0004995Y-0009400D02*
G03X0005070Y-0009580I0000255J0000000D01*
G01X0008020Y-0006200D02*
G03X0007970Y-0006080I0000170J0000000D01*
G01X0008730Y-0007900D02*
G03X0008780Y-0008020I0000170J0000000D01*
G01X0009160Y-0008400D02*
G03X0009180Y-0008417I0000120J0000120D01*
G01X0009160Y-0008400D02*
G03X0009180Y-0008417I0000120J0000120D01*
G01X0004570Y-0007910D02*
G03X0004620Y-0007980I0000230J0000110D01*
G01X0011380Y-0006780D02*
G03X0011330Y-0006900I0000120J0000120D01*
G01X0011380Y-0006780D02*
G03X0011330Y-0006900I0000120J0000120D01*
G01X0008570Y-0007050D02*
G03X0008572Y-0007082I0000230J0000000D01*
G01X0008918Y0001550D02*
G03X0008889Y0001670I0000268J0000000D01*
G01X0004670Y0001684D02*
G03X0004688Y0001780I0000250J0000096D01*
G01X0009430Y0001279D02*
G03X0009381Y0001266I0000020J0000179D01*
G01X0008520Y0001784D02*
G03X0008405Y0001658I0000130J0000234D01*
G01X0005068Y0001450D02*
G03X0004800Y0001718I0000268J0000000D01*
G01X0008600Y0002430D02*
G03X0008709Y0002470I0000000J0000170D01*
G01X0014131Y-0009799D02*
G03X0014170Y-0009770I0000081J0000149D01*
G01X0014272Y-0009227D02*
G03X0014186Y-0009273I0000034J0000167D01*
G01X0014272Y-0009227D02*
G03X0014186Y-0009273I0000034J0000167D01*
G01X0007620Y-0003750D02*
G03X0007687Y-0003912I0000230J0000000D01*
G01X0007620Y-0003750D02*
G03X0007687Y-0003912I0000230J0000000D01*
G01X0008383Y0001575D02*
G03X0008382Y0001550I0000267J0000025D01*
G01X0007550Y-0004732D02*
G03X0007370Y-0004802I0000000J0000268D01*
G01X0004070Y-0002870D02*
G03X0003995Y-0003050I0000180J0000180D01*
G01X0006980Y0001220D02*
G03X0007142Y0001287I0000000J0000230D01*
G01X0006980Y0001220D02*
G03X0007142Y0001287I0000000J0000230D01*
G01X0006482Y0001450D02*
G03X0006750Y0001182I0000268J0000000D01*
Y0001718D02*
G03X0006482Y0001450I0000000J0000268D01*
G01X0013350Y-0008270D02*
G03X0013470Y-0008220I0000000J0000170D01*
G01X0004070Y-0002870D02*
G03X0003995Y-0003050I0000180J0000180D01*
G01X0013430Y-0007082D02*
G03X0013410Y-0007100I0000100J0000138D01*
G01X0015950Y-0003930D02*
G03X0016009Y-0003920I0000000J0000180D01*
G01X0004850Y0000450D02*
G03X0005020Y0000280I0000170J0000000D01*
G01X0000000Y-0001379D02*
G03X0000757Y-0001152I0000000J0001379D01*
G01X0006885Y0001681D02*
G03X0006750Y0001718I0000135J0000231D01*
G01X0008020Y-0006200D02*
G03X0007970Y-0006080I0000170J0000000D01*
G01X0000000Y0001379D02*
G03X-0001000Y0000949I0000000J0001379D01*
G01X0016050Y-0003920D02*
G03X0016170Y-0003870I0000000J0000170D01*
G01X0004820Y-0008180D02*
G03X0004995Y-0008255I0000180J0000180D01*
G01X0013978Y-0006432D02*
G03X0014130Y-0006495I0000152J0000152D01*
G01X0001379Y0000000D02*
G03X0000000Y0001379I0001379J0000000D01*
G01X0011220Y-0011221D02*
G03X0012598Y-0009843I0000000J0001378D01*
G01X0009841D02*
G03X0011220Y-0011222I0001379J0000000D01*
Y-0008464D02*
G03X0009841Y-0009843I0000000J0001379D01*
G01X0012599D02*
G03X0011220Y-0008464I0001379J0000000D01*
G01X0004688Y0001780D02*
G03X0004420Y0002048I0000268J0000000D01*
G03X0004152Y0001780I0000000J0000268D01*
G01X0004420Y0003168D02*
G03X0004152Y0002900I0000000J0000268D01*
G01X0007700Y0003520D02*
G03X0007580Y0003470I0000000J0000170D01*
G01X0015820D02*
G03X0015816Y0003474I0000120J0000120D01*
G01X0016050Y-0003920D02*
G03X0016170Y-0003870I0000000J0000170D01*
G01X0015420Y-0005892D02*
G03X0015369Y-0005771I0000170J0000000D01*
G01X0013430Y-0007082D02*
G03X0013410Y-0007100I0000100J0000138D01*
G01X0002250Y-0001488D02*
G03X0001860Y-0001745I0000000J0000425D01*
G01X0007700Y0003520D02*
G03X0007580Y0003470I0000000J0000170D01*
G01X0015816Y0003474D02*
G03X0016126Y0003800I0000016J0000326D01*
G01X0004993Y0001264D02*
G03X0005068Y0001450I0000193J0000186D01*
G01X0006870Y-0001650D02*
G03X0006820Y-0001530I0000170J0000000D01*
G01X0007670Y-0004761D02*
G03X0007550Y-0004733I0000120J0000239D01*
G01X0013531Y-0003730D02*
G03X0013517Y-0003746I0000120J0000120D01*
G01X0011483D02*
G03X0011468Y-0003730I0000135J0000104D01*
G01X0011368Y-0003630D02*
G03X0011248Y-0003580I0000120J0000120D01*
G01X0013531Y-0003730D02*
G03X0013517Y-0003746I0000120J0000120D01*
G01X0011368Y-0003630D02*
G03X0011248Y-0003580I0000120J0000120D01*
G01X0013751D02*
G03X0013631Y-0003630I0000000J0000170D01*
G01X0009668Y-0001355D02*
G03X0009750Y-0001368I0000082J0000255D01*
G03X0010018Y-0001100I0000000J0000268D01*
G03X0009750Y-0000832I0000268J0000000D01*
G01X0010950Y-0003580D02*
G03X0010830Y-0003630I0000000J0000170D01*
G01X0009912Y-0000012D02*
G03X0009979Y0000150I0000162J0000162D01*
G01X0009500Y-0000330D02*
G03X0009662Y-0000262I0000000J0000230D01*
G01X0011483Y-0003746D02*
G03X0011468Y-0003730I0000135J0000104D01*
G01X0009750Y-0000832D02*
G03X0009668Y-0000845I0000000J0000268D01*
G01X0009500Y-0000330D02*
G03X0009662Y-0000262I0000000J0000230D01*
G54D36*
G01X0014500Y-0005720D02*
Y-0005700D01*
X0013651Y-0004851D01*
Y-0004201D01*
X0004429Y0000827D02*
X0004420Y0000836D01*
Y0001780D01*
Y0002900D02*
X0007020D01*
X0007250Y0003130D01*
X0007270Y0003150D01*
X0007500D01*
X0007700Y0003350D01*
X0015700D01*
X0016250Y0002800D01*
Y-0003550D01*
X0016050Y-0003750D01*
X0013751D01*
X0013651Y-0003850D01*
Y-0004201D01*
X0011348Y-0001799D02*
Y-0001448D01*
X0010950Y-0001050D01*
Y0001400D01*
X0010800Y0001550D01*
Y0002500D01*
X0010500Y0002800D01*
X0008900D01*
X0012500Y-0003000D02*
X0012516Y-0002984D01*
X0011484D01*
X0011093Y-0001799D02*
X0010499D01*
X0010450Y-0001750D01*
Y0000250D01*
X0011093Y-0001799D02*
X0010499D01*
X0010450Y-0001750D01*
Y0000250D01*
X0013200Y-0003000D02*
X0012500D01*
X0011850D01*
X0011500D01*
X0011484Y-0002984D01*
X0009000D01*
X0011484D01*
X0011093Y-0002593D01*
Y-0001799D01*
X0013200Y-0003000D02*
X0013700D01*
X0013907Y-0002793D01*
Y-0001799D01*
X0004626Y0000827D02*
Y0001276D01*
X0004800Y0001450D01*
X0004823Y0001427D01*
Y0000827D01*
X0011093Y-0001799D02*
X0010499D01*
X0010450Y-0001750D01*
Y0000250D01*
X0008250Y0001150D02*
X0008650Y0001550D01*
X0004823Y0000827D02*
Y0001427D01*
X0004800Y0001450D01*
X0008000Y0002620D02*
X0008020Y0002600D01*
X0008600D01*
X0008800Y0002800D01*
X0008900D01*
X0012500Y-0003000D03*
X0012750Y-0006280D02*
Y-0006750D01*
X0013500D02*
Y-0006280D01*
X0013750Y-0009650D02*
X0014050D01*
X0014306Y-0009394D01*
X0014500D01*
X0010500Y-0006280D02*
Y-0006750D01*
X0007250Y0002280D02*
X0007700D01*
X0008000Y0002580D01*
Y0002620D01*
X0002850Y0001700D02*
X0002657Y0001507D01*
Y0000827D01*
X0012250Y-0007220D02*
X0012350Y-0007120D01*
Y-0006000D01*
X0012070Y-0005720D01*
X0012000D01*
Y-0006280D02*
Y-0006750D01*
X0012750D02*
Y-0006280D01*
X0013000Y-0007780D02*
Y-0007750D01*
X0013530Y-0007220D01*
X0013750D01*
X0009000Y-0001016D02*
X0009050Y-0001100D01*
X0009084D01*
X0011250Y-0006280D02*
Y-0006750D01*
X0012000D02*
Y-0006280D01*
X0009250Y-0004220D02*
X0008670D01*
X0008100Y-0003650D01*
Y-0001250D01*
X0008250Y-0001100D01*
X0008300D01*
X0009050D02*
X0009000Y-0001016D01*
X0009050Y-0001100D02*
X0009000Y-0001016D01*
X0010500Y-0006280D02*
Y-0006750D01*
X0011250D02*
Y-0006280D01*
X0013907Y-0004201D02*
Y-0004569D01*
X0015250Y-0005892D01*
Y-0009050D01*
X0014906Y-0009394D01*
X0014500D01*
X0005020Y0000827D02*
Y0000450D01*
X0005216D01*
Y0000473D01*
X0002850Y0001700D02*
X0002657Y0001507D01*
Y0000827D01*
X0004000Y-0000130D02*
Y-0000150D01*
X0004350Y-0000500D01*
X0005050D01*
X0006100Y-0001550D01*
X0006600D01*
X0006700Y-0001650D01*
Y-0002900D01*
X0007200Y-0003400D01*
Y-0005550D01*
X0007600Y-0005950D01*
X0013000Y-0007220D02*
X0013150Y-0007070D01*
Y-0006050D01*
X0013480Y-0005720D01*
X0013500D01*
X0009800Y0002400D02*
Y0001080D01*
X0009750Y0001030D01*
X0007600Y-0005950D02*
X0007850Y-0006200D01*
Y-0006600D01*
X0008900Y-0007650D01*
Y-0007900D01*
X0009280Y-0008280D01*
X0009500D01*
X0011250Y-0005720D02*
X0011270D01*
X0011650Y-0006100D01*
Y-0006750D01*
X0011500Y-0006900D01*
Y-0007220D01*
X0012000Y-0005720D02*
Y-0005700D01*
X0012628Y-0005072D01*
Y-0004201D01*
X0003642Y0000827D02*
Y0000142D01*
X0003150Y-0000350D01*
Y-0003150D01*
X0004000Y-0004000D01*
X0004250D01*
X0013651Y-0001799D02*
Y-0001448D01*
X0014200Y-0000900D01*
Y0002900D01*
X0013950Y0003150D01*
X0007900D01*
X0007350Y0002600D01*
X0004100D01*
Y0001450D02*
X0004232Y0001318D01*
Y0000827D01*
X0003838D02*
Y0002088D01*
X0004030Y0002280D01*
X0007250D01*
X0009750Y0001030D02*
X0009070Y0000350D01*
X0009000D01*
X0015000Y-0009394D02*
X0014906D01*
X0014500D01*
X0013500Y-0006280D02*
Y-0006750D01*
X0004836Y0000840D02*
X0004823Y0000827D01*
X0013750Y-0007780D02*
X0013670D01*
X0013350Y-0008100D01*
X0010450D01*
X0009550Y-0009000D01*
X0008000D01*
X0007650Y-0008650D01*
X0007550D01*
Y-0005000D02*
X0007950D01*
X0008000Y-0005050D01*
X0010500Y-0005720D02*
X0010570D01*
X0010850Y-0006000D01*
Y-0006850D01*
X0010750Y-0006950D01*
Y-0007220D01*
X0015000Y-0008606D02*
Y-0008200D01*
X0014580Y-0007780D01*
X0014500D01*
X0003445Y0000827D02*
Y0000195D01*
X0002900Y-0000350D01*
Y-0003900D01*
X0002700Y-0004100D01*
Y-0006188D01*
X0002250Y-0006638D01*
X0013750Y-0007780D02*
Y-0007856D01*
X0014500Y-0008606D01*
X0004750Y-0000220D02*
Y-0000150D01*
X0004232Y0000368D01*
Y0000827D01*
X0009500Y-0005590D02*
X0009660D01*
X0009950Y-0005300D01*
X0010500D01*
X0010600Y-0005200D01*
X0011200D01*
X0011860Y-0004540D01*
Y-0004201D01*
X0011093D02*
X0010493Y-0004780D01*
X0010000D01*
X0013140Y-0004201D02*
Y-0005360D01*
X0013500Y-0005720D01*
X0010500D02*
X0010820Y-0005400D01*
X0011250D01*
X0012116Y-0004534D01*
Y-0004201D01*
X0012884D02*
Y-0005720D01*
X0012750D01*
X0003248Y0000827D02*
Y0000248D01*
X0002700Y-0000300D01*
Y-0002450D01*
X0002449Y-0002701D01*
X0002250D01*
X0011250Y-0005720D02*
Y-0005700D01*
X0012372Y-0004578D01*
Y-0004201D01*
X0002854Y0000827D02*
Y0000354D01*
X0001500Y-0001000D01*
X0001150D01*
X0000800Y-0001350D01*
Y-0008800D01*
X0001700Y-0009700D01*
X0003450D01*
X0003950Y-0009200D01*
X0004100D01*
X0013000Y-0009530D02*
X0013630D01*
X0013750Y-0009650D01*
X0004500Y-0008800D02*
X0004100D01*
X0003400Y-0009500D01*
X0001800D01*
X0001000Y-0008700D01*
Y-0001400D01*
X0001200Y-0001200D01*
X0001550D01*
X0003051Y0000301D01*
Y0000827D01*
X0004035D02*
Y-0000094D01*
X0004000Y-0000130D01*
X0008250Y0000350D02*
Y0000380D01*
X0007650D01*
X0007250Y0000780D01*
X0009250Y-0004780D02*
X0009280D01*
X0009600Y-0005100D01*
X0010300D01*
X0010400Y-0005000D01*
X0011150D01*
X0011604Y-0004546D01*
Y-0004201D01*
X0004750Y-0000220D02*
X0005600D01*
X0005630Y-0000250D01*
X0011348Y-0004201D02*
Y-0003850D01*
X0011248Y-0003750D01*
X0010950D01*
X0010450Y-0004250D01*
X0010030D01*
X0010000Y-0004220D01*
G54D37*
G01X0009000Y0001150D02*
Y0001950D01*
X0008950Y0002000D01*
X0008900D01*
X0008780Y0001880D01*
X0008000D01*
X0013396Y-0004201D02*
Y-0004896D01*
X0013950Y-0005450D01*
Y-0006100D01*
X0014130Y-0006280D01*
X0014500D01*
Y-0007220D02*
X0013900D01*
X0013750D01*
X0013000Y-0007780D02*
X0012450D01*
X0012250D01*
X0011800Y-0000850D02*
X0011860Y-0000910D01*
Y-0001799D01*
X0005216Y0000827D02*
Y0000473D01*
X0005220Y0000470D01*
X0006980D01*
X0007200Y0000250D01*
X0007280D01*
X0007250Y0000220D01*
X0011860Y-0001799D02*
Y-0000910D01*
X0011800Y-0000850D01*
X0013250D02*
X0013140Y-0000960D01*
Y-0001799D01*
X0005216Y0000473D02*
Y0000827D01*
X0012250Y-0007780D02*
X0011600D01*
X0011500D01*
X0009000Y0001150D02*
Y0001950D01*
X0009400D01*
X0013612Y0002000D02*
Y0001993D01*
X0013950Y0001645D01*
Y-0000850D01*
X0013396Y-0001404D01*
Y-0001799D01*
X0009500Y-0007720D02*
X0010690D01*
X0010750Y-0007780D01*
X0011604Y-0001799D02*
Y-0001404D01*
X0011200Y-0001000D01*
Y0001950D01*
X0011250Y0002000D01*
X0012037D02*
X0012372Y0001665D01*
Y-0001799D01*
X0009050Y-0001066D02*
X0009084Y-0001100D01*
X0011800Y-0000850D02*
X0011860Y-0000910D01*
Y-0001799D01*
X0011500Y-0007780D02*
X0010750D01*
X0012884Y-0001799D02*
Y-0000616D01*
X0013090Y-0000410D01*
X0013250D01*
X0012116Y-0001799D02*
Y-0000616D01*
X0011850Y-0000350D01*
X0011750D01*
Y-0000410D01*
X0012628Y-0001799D02*
Y0001728D01*
X0012825Y0001925D01*
Y0002000D01*
X0014500Y-0006280D02*
Y-0007220D01*
G54D39*
G01X0008750Y-0008600D02*
X0008250D01*
X0009750Y0000470D02*
Y0000150D01*
X0009500Y-0000100D01*
X0007800D01*
X0004700Y-0001600D02*
X0004000D01*
X0009500Y-0007720D02*
X0009470D01*
X0008800Y-0007050D01*
Y-0004700D01*
X0007850Y-0003750D01*
Y-0001150D01*
X0007450Y-0000750D01*
X0004700Y-0001600D02*
X0004000D01*
X0007250Y0001720D02*
X0006980Y0001450D01*
X0006750D01*
X0007800Y-0000100D02*
X0009500D01*
X0009750Y0000150D01*
Y0000470D01*
X0004000Y-0001600D02*
X0004700D01*
X0004000D02*
X0004700D01*
G54D40*
G01X0016123Y-0007773D02*
X0016057Y-0007820D01*
X0015990Y-0007843D01*
X0015857D01*
X0015790Y-0007820D01*
X0015723Y-0007773D01*
Y-0007727D01*
X0015790Y-0007680D01*
X0015857Y-0007657D01*
X0015990D01*
X0016057Y-0007680D01*
X0016123Y-0007727D01*
Y-0007773D01*
X0015923Y-0007987D02*
Y-0008173D01*
X0015990Y-0008317D02*
Y-0008503D01*
X0016123Y-0008317D02*
X0015923D01*
X0015723Y-0008387D01*
Y-0008433D01*
X0015923Y-0008503D01*
X0016123D01*
X0015990Y-0008647D02*
Y-0008833D01*
X0015723Y-0008740D01*
Y-0008693D01*
X0016123D01*
Y-0009093D02*
X0016057Y-0009140D01*
X0015990Y-0009163D01*
X0015857D01*
X0015790Y-0009140D01*
X0015723Y-0009093D01*
Y-0009047D01*
X0015790Y-0009000D01*
X0015857Y-0008977D01*
X0015990D01*
X0016057Y-0009000D01*
X0016123Y-0009047D01*
Y-0009093D01*
X0016057Y-0009493D02*
X0016123Y-0009447D01*
Y-0009353D01*
X0016057Y-0009307D01*
X0015990D01*
X0015857Y-0009400D01*
X0015723Y-0009307D01*
Y-0009493D01*
X0015923Y-0009637D02*
Y-0009823D01*
X0016123Y-0009967D02*
Y-0010153D01*
X0015857Y-0009967D01*
X0015790D01*
X0015723Y-0009990D01*
Y-0010130D01*
X0015790Y-0010153D01*
X0016123Y-0010297D02*
Y-0010483D01*
X0015857Y-0010297D01*
X0015790D01*
X0015723Y-0010320D01*
Y-0010460D01*
X0015790Y-0010483D01*
X0004243Y-0010783D02*
X0004290D01*
Y-0010717D01*
X0004243D01*
Y-0010783D01*
X0004053Y-0010717D02*
X0004030Y-0010783D01*
X0003890D01*
X0003867Y-0010717D01*
Y-0010450D01*
X0003890Y-0010383D01*
X0004030D01*
X0004053Y-0010450D01*
X0003677Y-0010783D02*
X0003723D01*
Y-0010717D01*
X0003677D01*
Y-0010783D01*
X0003487D02*
X0003323D01*
Y-0010383D01*
G54D10*
X0011220Y-0009842D03*
X0000000Y0000000D03*
G54D11*
X0009550Y-0010700D03*
X0015800Y0003800D03*
X-0000200Y0003500D03*
G54D12*
X0010000Y-0004780D03*
Y-0004220D03*
X0009250Y-0004780D03*
Y-0004220D03*
X0007500Y-0008030D03*
Y-0007470D03*
X0003500Y-0008280D03*
Y-0007720D03*
G54D13*
X0013750Y-0008850D03*
Y-0009650D03*
X0004000Y-0002400D03*
Y-0001600D03*
G54D14*
X0009000Y-0002984D03*
Y-0001016D03*
G54D15*
X0009500Y-0006910D03*
Y-0005590D03*
G54D16*
X0007250Y0003130D03*
Y0003870D03*
G54D17*
X0005630Y-0000250D03*
X0006370D03*
G54D18*
X0008000Y0002620D03*
Y0001880D03*
X0004000Y-0000130D03*
Y-0000870D03*
G54D19*
X0014500Y-0009394D03*
Y-0008606D03*
X0015000Y-0009394D03*
Y-0008606D03*
G54D20*
X0009000Y0001150D03*
Y0000350D03*
X0008250Y-0008600D03*
Y-0009400D03*
Y0001150D03*
Y0000350D03*
G54D21*
X0002657Y0000827D03*
X0002854D03*
X0003051D03*
X0003248D03*
X0003445D03*
X0003642D03*
X0003838D03*
X0004035D03*
X0004232D03*
X0004429D03*
X0004626D03*
X0004823D03*
X0005020D03*
X0005216D03*
G54D22*
X0005976Y0001559D03*
X0001898D03*
G54D23*
X0011250Y0002000D03*
X0006250Y-0002000D03*
X0002250Y-0009000D03*
G54D24*
X0013612Y0002000D03*
X0012825D03*
X0012037D03*
X0006250Y-0009087D03*
Y-0008299D03*
Y-0007512D03*
Y-0006724D03*
Y-0005937D03*
Y-0005150D03*
Y-0004362D03*
Y-0003575D03*
Y-0002787D03*
X0002250Y-0001913D03*
Y-0002701D03*
Y-0003488D03*
Y-0004276D03*
Y-0005063D03*
Y-0005850D03*
Y-0006638D03*
Y-0007425D03*
Y-0008213D03*
G54D25*
X0009800Y0002400D03*
X0008900Y0002800D03*
Y0002000D03*
G54D26*
X0008000Y-0005050D03*
X0007600Y-0005950D03*
X0008400D03*
G54D27*
X0013000Y-0009530D03*
Y-0008970D03*
X0011250Y-0005720D03*
Y-0006280D03*
X0010500Y-0005720D03*
Y-0006280D03*
X0013500Y-0005720D03*
Y-0006280D03*
X0012000Y-0005720D03*
Y-0006280D03*
X0009500Y-0007720D03*
Y-0008280D03*
X0011500Y-0007780D03*
Y-0007220D03*
X0010750Y-0007780D03*
Y-0007220D03*
X0013000Y-0007780D03*
Y-0007220D03*
X0012250Y-0007780D03*
Y-0007220D03*
X0014500Y-0006280D03*
Y-0005720D03*
X0013750Y-0007220D03*
Y-0007780D03*
X0014500Y-0007220D03*
Y-0007780D03*
X0004750Y-0000780D03*
Y-0000220D03*
X0012750Y-0005720D03*
Y-0006280D03*
X0007250Y0001720D03*
Y0002280D03*
X0009750Y0000470D03*
Y0001030D03*
X0007500Y-0009220D03*
Y-0009780D03*
X0005000Y-0005780D03*
Y-0005220D03*
X0007250Y0000780D03*
Y0000220D03*
X0005000Y-0002970D03*
Y-0003530D03*
X0003500Y-0005030D03*
Y-0004470D03*
X0004250Y-0008280D03*
Y-0007720D03*
G54D28*
X0011750Y0000910D03*
Y-0000410D03*
X0013250Y0000910D03*
Y-0000410D03*
G54D29*
X0012500Y-0003000D03*
G54D30*
X0011093Y-0004201D03*
X0011348D03*
X0011604D03*
X0011860D03*
X0012116D03*
X0012372D03*
X0012628D03*
X0012884D03*
X0013140D03*
X0013396D03*
X0013651D03*
X0013907D03*
Y-0001799D03*
X0013651D03*
X0013396D03*
X0013140D03*
X0012884D03*
X0012628D03*
X0012372D03*
X0012116D03*
X0011860D03*
X0011604D03*
X0011348D03*
X0011093D03*
G54D31*
X0003500Y-0006750D03*
X0004000D03*
G54D32*
X0004250Y-0003500D03*
Y-0004000D03*
X0008250Y-0008000D03*
Y-0007500D03*
X0005250D03*
Y-0008000D03*
X0001500Y-0001500D03*
Y-0002000D03*
G54D33*
X0008750Y-0009300D03*
X0009050Y-0002050D03*
X0008550D03*
X0010150Y-0001500D03*
X0009600D03*
X0010350Y-0002050D03*
X0010450Y0000750D03*
X0010150Y-0000500D03*
X0009600D03*
Y-0002050D03*
X0010350Y-0003000D03*
Y-0003450D03*
X0009600D03*
Y-0003000D03*
Y-0002550D03*
X0010350D03*
X0011150Y-0003450D03*
Y-0003000D03*
Y-0002550D03*
X0013750Y-0003400D03*
Y-0003000D03*
Y-0002600D03*
X0011850Y-0003450D03*
Y-0003000D03*
X0012500D03*
Y-0003450D03*
X0013200D03*
Y-0003000D03*
Y-0002600D03*
X0012500D03*
X0011850D03*
G54D38*
X0004420Y0001780D03*
Y0002900D03*
X0013250Y0000250D03*
X0010450D03*
X0011750D03*
X0008650Y0001550D03*
X0004800Y0001450D03*
X0008750Y-0008600D03*
X0003470Y-0000870D03*
X0007450Y-0000750D03*
X0004700Y-0001600D03*
X0003500Y-0004050D03*
X0002400Y-0001000D03*
X0006750Y0001450D03*
X0007800Y-0000100D03*
X0007050Y-0000350D03*
X0012750Y-0006750D03*
X0012000D03*
X0013250Y-0000850D03*
X0010500Y-0006750D03*
X0011250D03*
X0002850Y0001700D03*
X0009400Y0001950D03*
X0004100Y0002600D03*
Y0001450D03*
X0009750Y-0001100D03*
X0011800Y-0000850D03*
X0013500Y-0006750D03*
X0007550Y-0008650D03*
Y-0005000D03*
X0003450Y-0005550D03*
X0009500Y-0006300D03*
X0008600Y-0008000D03*
X0004100Y-0009200D03*
X0004500Y-0008800D03*
M02*
