*
G04 Mass Parameters ***
*
G04 Image ***
*
%IND:\UTENTI\00.LAVORI IN CORSO\METALTRONICA\22-304A-0\22-304A-0.DRD*%
%ICAS*%
%MOIN*%
%IPPOS*%
%ASAXBY*%
G74*%FSLAN2X34Y34*%
*
G04 Aperture Definitions ***
*
%ADD10C,0.1260*%
%ADD11C,0.0394*%
%ADD12R,0.0380X0.0320*%
%ADD13R,0.0501X0.0404*%
%ADD14R,0.0630X0.1260*%
%ADD15R,0.0710X0.0400*%
%ADD16R,0.0550X0.0350*%
%ADD17R,0.0350X0.0550*%
%ADD18R,0.0550X0.0350*%
%ADD19R,0.0197X0.0315*%
%ADD20R,0.0501X0.0404*%
%ADD21R,0.0118X0.0472*%
%ADD22R,0.1063X0.1181*%
%ADD23R,0.0590X0.0590*%
%ADD24C,0.0590*%
%ADD25R,0.0500X0.0400*%
%ADD26R,0.0400X0.0500*%
%ADD27R,0.0380X0.0320*%
%ADD28R,0.0710X0.0400*%
%ADD29R,0.1701X0.1181*%
%ADD30R,0.0177X0.0649*%
%ADD31R,0.0350X0.0250*%
%ADD32R,0.0250X0.0350*%
%ADD33C,0.0276*%
%ADD34C,0.0250*%
%ADD35C,0.0100*%
%ADD36C,0.0080*%
%ADD37C,0.0170*%
%ADD38C,0.0276*%
%ADD39C,0.0200*%
%ADD40C,0.0060*%
%ADD41C,0.0276*%
%ADD42C,0.0590*%
%ADD43C,0.0079*%
*
G04 Plot Data ***
*
G54D35*
G01X0023458Y-0025583D02*
X0022792D01*
X0023458Y-0024917D01*
Y-0024750D01*
X0023375Y-0024583D01*
X0022875D01*
X0022792Y-0024750D01*
X0022425Y-0025083D02*
X0021925D01*
X0021842Y-0024917D01*
Y-0024750D01*
X0021925Y-0024583D01*
X0022425D01*
X0022508Y-0024750D01*
Y-0024917D01*
X0022175Y-0025583D01*
X0011062D02*
X0010479D01*
Y-0024583D01*
X0010196Y-0025250D02*
X0009529D01*
X0010196Y-0025583D02*
Y-0025083D01*
X0009946Y-0024583D01*
X0009779D01*
X0009529Y-0025083D01*
Y-0025583D01*
X0008912D02*
Y-0024583D01*
X0009246D02*
X0008579D01*
X0007712Y-0025583D02*
X0007629Y-0025417D01*
Y-0024750D01*
X0007712Y-0024583D01*
X0008212D01*
X0008296Y-0024750D01*
Y-0025417D01*
X0008212Y-0025583D01*
X0007712D01*
X0007012D02*
Y-0024583D01*
X0007346D02*
X0006679D01*
X0031314Y-0023722D02*
Y-0023056D01*
X0031258Y-0023722D02*
X0031591D01*
X0031703Y-0023500D01*
Y-0023278D01*
X0031591Y-0023056D01*
X0031258D01*
X0030891Y-0023389D02*
X0030558D01*
X0031003Y-0023722D02*
X0030558D01*
Y-0023056D01*
X0031003D01*
X0030080Y-0023722D02*
Y-0023056D01*
X0030303D02*
X0029858D01*
X0029603Y-0023500D02*
X0029158D01*
X0029603Y-0023722D02*
Y-0023389D01*
X0029436Y-0023056D01*
X0029325D01*
X0029158Y-0023389D01*
Y-0023722D01*
X0028903D02*
X0028514D01*
Y-0023056D01*
X0027814Y-0023389D02*
X0028147D01*
X0028258Y-0023278D01*
Y-0023167D01*
X0028147Y-0023056D01*
X0027814D01*
Y-0023722D01*
X0027558Y-0023389D02*
X0027114D01*
X0026858Y-0023056D02*
Y-0023722D01*
X0026747Y-0023611D01*
X0026525Y-0023167D01*
X0026414Y-0023056D01*
Y-0023722D01*
X0025769D02*
X0025714Y-0023611D01*
Y-0023167D01*
X0025769Y-0023056D01*
X0026103D01*
X0026158Y-0023167D01*
Y-0023611D01*
X0026103Y-0023722D01*
X0025769D01*
X0025458Y-0023056D02*
Y-0023722D01*
X0025347Y-0023611D01*
X0025125Y-0023167D01*
X0025014Y-0023056D01*
Y-0023722D01*
X0023458D02*
X0023014D01*
X0023458Y-0023278D01*
Y-0023167D01*
X0023403Y-0023056D01*
X0023069D01*
X0023014Y-0023167D01*
X0009619Y-0023722D02*
Y-0023389D01*
X0009842Y-0023722D02*
Y-0023389D01*
X0009786Y-0023278D01*
X0009675D01*
X0009619Y-0023389D01*
X0009564Y-0023278D01*
X0009453D01*
X0009397Y-0023389D01*
Y-0023722D01*
X0008919D02*
Y-0023389D01*
X0009142Y-0023722D02*
Y-0023389D01*
X0009086Y-0023278D01*
X0008975D01*
X0008919Y-0023389D01*
X0008864Y-0023278D01*
X0008753D01*
X0008697Y-0023389D01*
Y-0023722D01*
X0007214D02*
X0007103Y-0023611D01*
X0007047Y-0023500D01*
Y-0023278D01*
X0007103Y-0023167D01*
X0007214Y-0023056D01*
X0007325D01*
X0007436Y-0023167D01*
X0007492Y-0023278D01*
Y-0023500D01*
X0007436Y-0023611D01*
X0007325Y-0023722D01*
X0007214D01*
X0006514D02*
X0006403Y-0023611D01*
X0006347Y-0023500D01*
Y-0023278D01*
X0006403Y-0023167D01*
X0006514Y-0023056D01*
X0006625D01*
X0006736Y-0023167D01*
X0006792Y-0023278D01*
Y-0023500D01*
X0006736Y-0023611D01*
X0006625Y-0023722D01*
X0006514D01*
X0006092D02*
X0005647D01*
X0006092Y-0023278D01*
Y-0023167D01*
X0006036Y-0023056D01*
X0005703D01*
X0005647Y-0023167D01*
X0005281Y-0023722D02*
X0005392D01*
Y-0023611D01*
X0005281D01*
Y-0023722D01*
X0004469Y-0023611D02*
X0004581Y-0023722D01*
X0004803D01*
X0004914Y-0023611D01*
Y-0023500D01*
X0004692Y-0023278D01*
X0004914Y-0023056D01*
X0004469D01*
X0023458Y-0022000D02*
X0023014D01*
X0023236Y-0021556D01*
X0023347D01*
Y-0022222D01*
X0022758D02*
X0022314D01*
X0022758Y-0021778D01*
Y-0021667D01*
X0022703Y-0021556D01*
X0022369D01*
X0022314Y-0021667D01*
X0009619Y-0022222D02*
Y-0021889D01*
X0009842Y-0022222D02*
Y-0021889D01*
X0009786Y-0021778D01*
X0009675D01*
X0009619Y-0021889D01*
X0009564Y-0021778D01*
X0009453D01*
X0009397Y-0021889D01*
Y-0022222D01*
X0008919D02*
Y-0021889D01*
X0009142Y-0022222D02*
Y-0021889D01*
X0009086Y-0021778D01*
X0008975D01*
X0008919Y-0021889D01*
X0008864Y-0021778D01*
X0008753D01*
X0008697Y-0021889D01*
Y-0022222D01*
X0007214D02*
X0007103Y-0022111D01*
X0007047Y-0022000D01*
Y-0021778D01*
X0007103Y-0021667D01*
X0007214Y-0021556D01*
X0007325D01*
X0007436Y-0021667D01*
X0007492Y-0021778D01*
Y-0022000D01*
X0007436Y-0022111D01*
X0007325Y-0022222D01*
X0007214D01*
X0006514D02*
X0006403Y-0022111D01*
X0006347Y-0022000D01*
Y-0021778D01*
X0006403Y-0021667D01*
X0006514Y-0021556D01*
X0006625D01*
X0006736Y-0021667D01*
X0006792Y-0021778D01*
Y-0022000D01*
X0006736Y-0022111D01*
X0006625Y-0022222D01*
X0006514D01*
X0006036Y-0021889D02*
X0005703D01*
X0005647Y-0021778D01*
Y-0021667D01*
X0005703Y-0021556D01*
X0006036D01*
X0006092Y-0021667D01*
Y-0021778D01*
X0005869Y-0022222D01*
X0005281D02*
X0005392D01*
Y-0022111D01*
X0005281D01*
Y-0022222D01*
X0004636D02*
X0004525Y-0022111D01*
X0004469Y-0022000D01*
Y-0021778D01*
X0004525Y-0021667D01*
X0004636Y-0021556D01*
X0004747D01*
X0004858Y-0021667D01*
X0004914Y-0021778D01*
Y-0022000D01*
X0004858Y-0022111D01*
X0004747Y-0022222D01*
X0004636D01*
X0023069Y-0020389D02*
X0023403D01*
X0023458Y-0020500D01*
Y-0020611D01*
X0023403Y-0020722D01*
X0023069D01*
X0023014Y-0020611D01*
Y-0020500D01*
X0023236Y-0020056D01*
X0022369Y-0020389D02*
X0022703D01*
X0022758Y-0020500D01*
Y-0020611D01*
X0022703Y-0020722D01*
X0022369D01*
X0022314Y-0020611D01*
Y-0020500D01*
X0022536Y-0020056D01*
X0009619Y-0020722D02*
Y-0020389D01*
X0009842Y-0020722D02*
Y-0020389D01*
X0009786Y-0020278D01*
X0009675D01*
X0009619Y-0020389D01*
X0009564Y-0020278D01*
X0009453D01*
X0009397Y-0020389D01*
Y-0020722D01*
X0008919D02*
Y-0020389D01*
X0009142Y-0020722D02*
Y-0020389D01*
X0009086Y-0020278D01*
X0008975D01*
X0008919Y-0020389D01*
X0008864Y-0020278D01*
X0008753D01*
X0008697Y-0020389D01*
Y-0020722D01*
X0007214D02*
X0007103Y-0020611D01*
X0007047Y-0020500D01*
Y-0020278D01*
X0007103Y-0020167D01*
X0007214Y-0020056D01*
X0007325D01*
X0007436Y-0020167D01*
X0007492Y-0020278D01*
Y-0020500D01*
X0007436Y-0020611D01*
X0007325Y-0020722D01*
X0007214D01*
X0006514D02*
X0006403Y-0020611D01*
X0006347Y-0020500D01*
Y-0020278D01*
X0006403Y-0020167D01*
X0006514Y-0020056D01*
X0006625D01*
X0006736Y-0020167D01*
X0006792Y-0020278D01*
Y-0020500D01*
X0006736Y-0020611D01*
X0006625Y-0020722D01*
X0006514D01*
X0006092D02*
X0005647D01*
X0006092Y-0020278D01*
Y-0020167D01*
X0006036Y-0020056D01*
X0005703D01*
X0005647Y-0020167D01*
X0005281Y-0020722D02*
X0005392D01*
Y-0020611D01*
X0005281D01*
Y-0020722D01*
X0004636D02*
X0004525Y-0020611D01*
X0004469Y-0020500D01*
Y-0020278D01*
X0004525Y-0020167D01*
X0004636Y-0020056D01*
X0004747D01*
X0004858Y-0020167D01*
X0004914Y-0020278D01*
Y-0020500D01*
X0004858Y-0020611D01*
X0004747Y-0020722D01*
X0004636D01*
X0031862Y-0018583D02*
X0031362D01*
X0032029Y-0019083D02*
X0031362D01*
Y-0018083D01*
X0032029D01*
X0030746Y-0019083D02*
Y-0018083D01*
X0031079D02*
X0030412D01*
X0029546Y-0019083D02*
X0029462Y-0018917D01*
Y-0018250D01*
X0029546Y-0018083D01*
X0030046D01*
X0030129Y-0018250D01*
Y-0018917D01*
X0030046Y-0019083D01*
X0029546D01*
X0029179Y-0018083D02*
Y-0019083D01*
X0029012Y-0018917D01*
X0028679Y-0018250D01*
X0028512Y-0018083D01*
Y-0019083D01*
X0022675D02*
Y-0018583D01*
X0023008Y-0018083D02*
X0022758Y-0018583D01*
X0022592D01*
X0022342Y-0018083D01*
X0021725Y-0019083D02*
Y-0018083D01*
X0022058D02*
X0021392D01*
X0020775Y-0018750D02*
X0021108Y-0019083D01*
X0020442Y-0018917D02*
X0020525Y-0019083D01*
X0020858D01*
X0020942Y-0018917D01*
X0021108Y-0018750D01*
Y-0018250D01*
X0021025Y-0018083D01*
X0020525D01*
X0020442Y-0018250D01*
Y-0018917D01*
X0016158Y-0019083D02*
X0015575D01*
Y-0018083D01*
X0014708Y-0019083D02*
X0014625Y-0018917D01*
Y-0018250D01*
X0014708Y-0018083D01*
X0015208D01*
X0015292Y-0018250D01*
Y-0018917D01*
X0015208Y-0019083D01*
X0014708D01*
X0014008D02*
Y-0018083D01*
X0014342D02*
X0013675D01*
X0008337Y-0019083D02*
Y-0018083D01*
X0008171Y-0018250D01*
X0008004Y-0018583D01*
X0007837Y-0018250D01*
X0007671Y-0018083D01*
Y-0019083D01*
X0007387Y-0018750D02*
X0006721D01*
X0007387Y-0019083D02*
Y-0018583D01*
X0007137Y-0018083D01*
X0006971D01*
X0006721Y-0018583D01*
Y-0019083D01*
X0006437D02*
X0006104D01*
X0006271D02*
Y-0018083D01*
X0006437D02*
X0006104D01*
X0005071Y-0019083D02*
Y-0018083D01*
X0004987Y-0019083D02*
X0005487D01*
X0005654Y-0018750D01*
Y-0018417D01*
X0005487Y-0018083D01*
X0004987D01*
X0001900Y-0019083D02*
Y-0018083D01*
X0001733Y-0018250D01*
X0001567Y-0018583D01*
X0001400Y-0018250D01*
X0001233Y-0018083D01*
Y-0019083D01*
X0000617D02*
Y-0018583D01*
X0000950Y-0018083D02*
X0000700Y-0018583D01*
X0000533D01*
X0000283Y-0018083D01*
X0000000Y-0018250D02*
X-0000083Y-0018083D01*
X-0000583D01*
X-0000667Y-0018250D01*
Y-0018417D01*
X-0000583Y-0018583D01*
X-0000083D01*
X0000000Y-0018750D01*
Y-0018917D01*
X-0000083Y-0019083D01*
X-0000583D01*
X-0000667Y-0018917D01*
X0022187Y-0017083D02*
Y-0016083D01*
X0022521D02*
X0021854D01*
X0021321Y-0016583D02*
X0021571Y-0017083D01*
X0020904Y-0016583D02*
X0021404D01*
X0021571Y-0016417D01*
Y-0016250D01*
X0021404Y-0016083D01*
X0020904D01*
Y-0017083D01*
X0020621Y-0016750D02*
X0019954D01*
X0020621Y-0017083D02*
Y-0016583D01*
X0020371Y-0016083D01*
X0020204D01*
X0019954Y-0016583D01*
Y-0017083D01*
X0019671Y-0016583D02*
X0019004D01*
X0019671Y-0017083D02*
Y-0016083D01*
X0019004Y-0017083D02*
Y-0016083D01*
X0018721Y-0016917D02*
X0018637Y-0017083D01*
X0018137D01*
X0018054Y-0016917D01*
Y-0016250D01*
X0018137Y-0016083D01*
X0018637D01*
X0018721Y-0016250D01*
X0016446Y-0017083D02*
X0015862D01*
Y-0016083D01*
X0015579Y-0017083D02*
X0014996D01*
Y-0016083D01*
X0014712Y-0017083D02*
X0014379D01*
X0014546D02*
Y-0016083D01*
X0014712D02*
X0014379D01*
X0013679Y-0016583D02*
X0013929Y-0017083D01*
X0013262Y-0016583D02*
X0013762D01*
X0013929Y-0016417D01*
Y-0016250D01*
X0013762Y-0016083D01*
X0013262D01*
Y-0017083D01*
X0012396D02*
Y-0016083D01*
X0012312Y-0017083D02*
X0012812D01*
X0012979Y-0016750D01*
Y-0016417D01*
X0012812Y-0016083D01*
X0012312D01*
X0004420Y0002030D02*
X0004170Y0001780D01*
X0004670D02*
X0004420Y0002030D01*
Y0001530D02*
X0004670Y0001780D01*
X0004170D02*
X0004420Y0001530D01*
Y0003150D02*
X0004170Y0002900D01*
X0004670D02*
X0004420Y0003150D01*
Y0002650D02*
X0004670Y0002900D01*
X0004170D02*
X0004420Y0002650D01*
X0010450Y0000500D02*
X0010200Y0000250D01*
X0010700D02*
X0010450Y0000500D01*
Y0000000D02*
X0010700Y0000250D01*
X0010200D02*
X0010450Y0000000D01*
Y0000500D02*
X0010200Y0000250D01*
X0010700D02*
X0010450Y0000500D01*
Y0000000D02*
X0010700Y0000250D01*
X0010200D02*
X0010450Y0000000D01*
X0013250Y0000500D02*
X0013000Y0000250D01*
X0013500D02*
X0013250Y0000500D01*
Y0000000D02*
X0013500Y0000250D01*
X0013000D02*
X0013250Y0000000D01*
X0011750Y0000500D02*
X0011500Y0000250D01*
X0012000D02*
X0011750Y0000500D01*
Y0000000D02*
X0012000Y0000250D01*
X0011500D02*
X0011750Y0000000D01*
X0010450Y0000500D02*
X0010200Y0000250D01*
X0010700D02*
X0010450Y0000500D01*
Y0000000D02*
X0010700Y0000250D01*
X0010200D02*
X0010450Y0000000D01*
X0011750Y0000500D02*
X0011500Y0000250D01*
X0012000D02*
X0011750Y0000500D01*
Y0000000D02*
X0012000Y0000250D01*
X0011500D02*
X0011750Y0000000D01*
X0008650Y0001800D02*
X0008400Y0001550D01*
X0008900D02*
X0008650Y0001800D01*
Y0001300D02*
X0008900Y0001550D01*
X0008400D02*
X0008650Y0001300D01*
X0004800Y0001700D02*
X0004550Y0001450D01*
X0005050D02*
X0004800Y0001700D01*
Y0001200D02*
X0005050Y0001450D01*
X0004550D02*
X0004800Y0001200D01*
X0008750Y-0008350D02*
X0008500Y-0008600D01*
X0009000D02*
X0008750Y-0008350D01*
Y-0008850D02*
X0009000Y-0008600D01*
X0008500D02*
X0008750Y-0008850D01*
X0009500Y-0006050D02*
X0009250Y-0006300D01*
X0009750D02*
X0009500Y-0006050D01*
Y-0006550D02*
X0009750Y-0006300D01*
X0009250D02*
X0009500Y-0006550D01*
X0012750Y-0006500D02*
X0012500Y-0006750D01*
X0013000D02*
X0012750Y-0006500D01*
Y-0007000D02*
X0013000Y-0006750D01*
X0012500D02*
X0012750Y-0007000D01*
X0013500Y-0006500D02*
X0013250Y-0006750D01*
X0013750D02*
X0013500Y-0006500D01*
Y-0007000D02*
X0013750Y-0006750D01*
X0013250D02*
X0013500Y-0007000D01*
X0003470Y-0000620D02*
X0003220Y-0000870D01*
X0003720D02*
X0003470Y-0000620D01*
Y-0001120D02*
X0003720Y-0000870D01*
X0003220D02*
X0003470Y-0001120D01*
X0010500Y-0006500D02*
X0010250Y-0006750D01*
X0010750D02*
X0010500Y-0006500D01*
Y-0007000D02*
X0010750Y-0006750D01*
X0010250D02*
X0010500Y-0007000D01*
X0009500Y-0006050D02*
X0009250Y-0006300D01*
X0009750D02*
X0009500Y-0006050D01*
Y-0006550D02*
X0009750Y-0006300D01*
X0009250D02*
X0009500Y-0006550D01*
X0002400Y-0000750D02*
X0002150Y-0001000D01*
X0002650D02*
X0002400Y-0000750D01*
Y-0001250D02*
X0002650Y-0001000D01*
X0002150D02*
X0002400Y-0001250D01*
X0003470Y-0000620D02*
X0003220Y-0000870D01*
X0003720D02*
X0003470Y-0000620D01*
Y-0001120D02*
X0003720Y-0000870D01*
X0003220D02*
X0003470Y-0001120D01*
X0007800Y0000150D02*
X0007550Y-0000100D01*
X0008050D02*
X0007800Y0000150D01*
Y-0000350D02*
X0008050Y-0000100D01*
X0007550D02*
X0007800Y-0000350D01*
X0004700Y-0001350D02*
X0004450Y-0001600D01*
X0004950D02*
X0004700Y-0001350D01*
Y-0001850D02*
X0004950Y-0001600D01*
X0004450D02*
X0004700Y-0001850D01*
X0007450Y-0000500D02*
X0007200Y-0000750D01*
X0007700D02*
X0007450Y-0000500D01*
Y-0001000D02*
X0007700Y-0000750D01*
X0007200D02*
X0007450Y-0001000D01*
X0004700Y-0001350D02*
X0004450Y-0001600D01*
X0004950D02*
X0004700Y-0001350D01*
Y-0001850D02*
X0004950Y-0001600D01*
X0004450D02*
X0004700Y-0001850D01*
X0003500Y-0003800D02*
X0003250Y-0004050D01*
X0003750D02*
X0003500Y-0003800D01*
Y-0004300D02*
X0003750Y-0004050D01*
X0003250D02*
X0003500Y-0004300D01*
X0002850Y0001950D02*
X0002600Y0001700D01*
X0003100D02*
X0002850Y0001950D01*
Y0001450D02*
X0003100Y0001700D01*
X0002600D02*
X0002850Y0001450D01*
X0002400Y-0000750D02*
X0002150Y-0001000D01*
X0002650D02*
X0002400Y-0000750D01*
Y-0001250D02*
X0002650Y-0001000D01*
X0002150D02*
X0002400Y-0001250D01*
X0006750Y0001700D02*
X0006500Y0001450D01*
X0007000D02*
X0006750Y0001700D01*
Y0001200D02*
X0007000Y0001450D01*
X0006500D02*
X0006750Y0001200D01*
X0007800Y0000150D02*
X0007550Y-0000100D01*
X0008050D02*
X0007800Y0000150D01*
Y-0000350D02*
X0008050Y-0000100D01*
X0007550D02*
X0007800Y-0000350D01*
X0007050Y-0000100D02*
X0006800Y-0000350D01*
X0007300D02*
X0007050Y-0000100D01*
Y-0000600D02*
X0007300Y-0000350D01*
X0006800D02*
X0007050Y-0000600D01*
X0012000Y-0006500D02*
X0011750Y-0006750D01*
X0012250D02*
X0012000Y-0006500D01*
Y-0007000D02*
X0012250Y-0006750D01*
X0011750D02*
X0012000Y-0007000D01*
X0012750Y-0006500D02*
X0012500Y-0006750D01*
X0013000D02*
X0012750Y-0006500D01*
Y-0007000D02*
X0013000Y-0006750D01*
X0012500D02*
X0012750Y-0007000D01*
X0009750Y-0000850D02*
X0009500Y-0001100D01*
X0010000D02*
X0009750Y-0000850D01*
Y-0001350D02*
X0010000Y-0001100D01*
X0009500D02*
X0009750Y-0001350D01*
X0011800Y-0000600D02*
X0011550Y-0000850D01*
X0012050D02*
X0011800Y-0000600D01*
Y-0001100D02*
X0012050Y-0000850D01*
X0011550D02*
X0011800Y-0001100D01*
X0011250Y-0006500D02*
X0011000Y-0006750D01*
X0011500D02*
X0011250Y-0006500D01*
Y-0007000D02*
X0011500Y-0006750D01*
X0011000D02*
X0011250Y-0007000D01*
X0012000Y-0006500D02*
X0011750Y-0006750D01*
X0012250D02*
X0012000Y-0006500D01*
Y-0007000D02*
X0012250Y-0006750D01*
X0011750D02*
X0012000Y-0007000D01*
X0011800Y-0000600D02*
X0011550Y-0000850D01*
X0012050D02*
X0011800Y-0000600D01*
Y-0001100D02*
X0012050Y-0000850D01*
X0011550D02*
X0011800Y-0001100D01*
X0013250Y-0000600D02*
X0013000Y-0000850D01*
X0013500D02*
X0013250Y-0000600D01*
Y-0001100D02*
X0013500Y-0000850D01*
X0013000D02*
X0013250Y-0001100D01*
X0010500Y-0006500D02*
X0010250Y-0006750D01*
X0010750D02*
X0010500Y-0006500D01*
Y-0007000D02*
X0010750Y-0006750D01*
X0010250D02*
X0010500Y-0007000D01*
X0011250Y-0006500D02*
X0011000Y-0006750D01*
X0011500D02*
X0011250Y-0006500D01*
Y-0007000D02*
X0011500Y-0006750D01*
X0011000D02*
X0011250Y-0007000D01*
X0002850Y0001950D02*
X0002600Y0001700D01*
X0003100D02*
X0002850Y0001950D01*
Y0001450D02*
X0003100Y0001700D01*
X0002600D02*
X0002850Y0001450D01*
X0009400Y0002200D02*
X0009150Y0001950D01*
X0009650D02*
X0009400Y0002200D01*
Y0001700D02*
X0009650Y0001950D01*
X0009150D02*
X0009400Y0001700D01*
X0004100Y0002850D02*
X0003850Y0002600D01*
X0004350D02*
X0004100Y0002850D01*
Y0002350D02*
X0004350Y0002600D01*
X0003850D02*
X0004100Y0002350D01*
Y0001700D02*
X0003850Y0001450D01*
X0004350D02*
X0004100Y0001700D01*
Y0001200D02*
X0004350Y0001450D01*
X0003850D02*
X0004100Y0001200D01*
X0009750Y-0000850D02*
X0009500Y-0001100D01*
X0010000D02*
X0009750Y-0000850D01*
Y-0001350D02*
X0010000Y-0001100D01*
X0009500D02*
X0009750Y-0001350D01*
X0011800Y-0000600D02*
X0011550Y-0000850D01*
X0012050D02*
X0011800Y-0000600D01*
Y-0001100D02*
X0012050Y-0000850D01*
X0011550D02*
X0011800Y-0001100D01*
X0013500Y-0006500D02*
X0013250Y-0006750D01*
X0013750D02*
X0013500Y-0006500D01*
Y-0007000D02*
X0013750Y-0006750D01*
X0013250D02*
X0013500Y-0007000D01*
X0007550Y-0008400D02*
X0007300Y-0008650D01*
X0007800D02*
X0007550Y-0008400D01*
Y-0008900D02*
X0007800Y-0008650D01*
X0007300D02*
X0007550Y-0008900D01*
Y-0004750D02*
X0007300Y-0005000D01*
X0007800D02*
X0007550Y-0004750D01*
Y-0005250D02*
X0007800Y-0005000D01*
X0007300D02*
X0007550Y-0005250D01*
X0003450Y-0005300D02*
X0003200Y-0005550D01*
X0003700D02*
X0003450Y-0005300D01*
Y-0005800D02*
X0003700Y-0005550D01*
X0003200D02*
X0003450Y-0005800D01*
X0009500Y-0006050D02*
X0009250Y-0006300D01*
X0009750D02*
X0009500Y-0006050D01*
Y-0006550D02*
X0009750Y-0006300D01*
X0009250D02*
X0009500Y-0006550D01*
X0008600Y-0007750D02*
X0008350Y-0008000D01*
X0008850D02*
X0008600Y-0007750D01*
Y-0008250D02*
X0008850Y-0008000D01*
X0008350D02*
X0008600Y-0008250D01*
X0004100Y-0008950D02*
X0003850Y-0009200D01*
X0004350D02*
X0004100Y-0008950D01*
Y-0009450D02*
X0004350Y-0009200D01*
X0003850D02*
X0004100Y-0009450D01*
X0004500Y-0008550D02*
X0004250Y-0008800D01*
X0004750D02*
X0004500Y-0008550D01*
Y-0009050D02*
X0004750Y-0008800D01*
X0004250D02*
X0004500Y-0009050D01*
X0000825Y-0023500D02*
X0000325D01*
X0000575Y-0023250D02*
Y-0023750D01*
X0000825Y-0021750D02*
X0000325Y-0022250D01*
X0000825D02*
X0000325Y-0021750D01*
X0000575Y-0020250D02*
X0000325Y-0020500D01*
X0000825D02*
X0000575Y-0020250D01*
Y-0020750D02*
X0000825Y-0020500D01*
X0000325D02*
X0000575Y-0020750D01*
X0036050Y-0026300D02*
X-0001300D01*
X0036000Y-0026250D02*
X-0001250D01*
X0036000Y-0024250D02*
X-0001250D01*
X0036000Y-0022750D02*
X-0001250D01*
X0036000Y-0021250D02*
X-0001250D01*
X0036000Y-0019750D02*
X-0001250D01*
X0036000Y-0019700D02*
X-0001250D01*
X0036000Y-0017750D02*
X-0001250D01*
X0036000Y-0017700D02*
X-0001250D01*
X0036000Y-0015750D02*
X-0001250D01*
X0036050Y-0015700D02*
X-0001300D01*
X0036050Y-0026250D02*
Y-0015750D01*
X0036000Y-0026250D02*
Y-0015750D01*
X0024458Y-0026250D02*
Y-0017750D01*
X0018908Y-0026250D02*
Y-0017750D01*
X0010842Y-0024250D02*
Y-0017750D01*
X0002450Y-0024250D02*
Y-0017750D01*
X0002400Y-0024250D02*
Y-0017750D01*
X-0001300Y-0026250D02*
Y-0015750D01*
X-0001250Y-0026250D02*
Y-0015750D01*
X-0001181Y-0011417D02*
Y0004331D01*
X0016535D01*
Y-0011417D01*
X-0001181D01*
X0008750Y-0009050D02*
X0008500Y-0009300D01*
X0009000D02*
X0008750Y-0009050D01*
Y-0009550D02*
X0009000Y-0009300D01*
X0008500D02*
X0008750Y-0009550D01*
X0009050Y-0001800D02*
X0008800Y-0002050D01*
X0009300D02*
X0009050Y-0001800D01*
Y-0002300D02*
X0009300Y-0002050D01*
X0008800D02*
X0009050Y-0002300D01*
X0008550Y-0001800D02*
X0008300Y-0002050D01*
X0008800D02*
X0008550Y-0001800D01*
Y-0002300D02*
X0008800Y-0002050D01*
X0008300D02*
X0008550Y-0002300D01*
X0010150Y-0001250D02*
X0009900Y-0001500D01*
X0010400D02*
X0010150Y-0001250D01*
Y-0001750D02*
X0010400Y-0001500D01*
X0009900D02*
X0010150Y-0001750D01*
X0009600Y-0001250D02*
X0009350Y-0001500D01*
X0009850D02*
X0009600Y-0001250D01*
Y-0001750D02*
X0009850Y-0001500D01*
X0009350D02*
X0009600Y-0001750D01*
X0010350Y-0001800D02*
X0010100Y-0002050D01*
X0010600D02*
X0010350Y-0001800D01*
Y-0002300D02*
X0010600Y-0002050D01*
X0010100D02*
X0010350Y-0002300D01*
X0010450Y0001000D02*
X0010200Y0000750D01*
X0010700D02*
X0010450Y0001000D01*
Y0000500D02*
X0010700Y0000750D01*
X0010200D02*
X0010450Y0000500D01*
X0010150Y-0000250D02*
X0009900Y-0000500D01*
X0010400D02*
X0010150Y-0000250D01*
Y-0000750D02*
X0010400Y-0000500D01*
X0009900D02*
X0010150Y-0000750D01*
X0009600Y-0000250D02*
X0009350Y-0000500D01*
X0009850D02*
X0009600Y-0000250D01*
Y-0000750D02*
X0009850Y-0000500D01*
X0009350D02*
X0009600Y-0000750D01*
Y-0001800D02*
X0009350Y-0002050D01*
X0009850D02*
X0009600Y-0001800D01*
Y-0002300D02*
X0009850Y-0002050D01*
X0009350D02*
X0009600Y-0002300D01*
X0010350Y-0002750D02*
X0010100Y-0003000D01*
X0010600D02*
X0010350Y-0002750D01*
Y-0003250D02*
X0010600Y-0003000D01*
X0010100D02*
X0010350Y-0003250D01*
Y-0003200D02*
X0010100Y-0003450D01*
X0010600D02*
X0010350Y-0003200D01*
Y-0003700D02*
X0010600Y-0003450D01*
X0010100D02*
X0010350Y-0003700D01*
X0009600Y-0003200D02*
X0009350Y-0003450D01*
X0009850D02*
X0009600Y-0003200D01*
Y-0003700D02*
X0009850Y-0003450D01*
X0009350D02*
X0009600Y-0003700D01*
Y-0002750D02*
X0009350Y-0003000D01*
X0009850D02*
X0009600Y-0002750D01*
Y-0003250D02*
X0009850Y-0003000D01*
X0009350D02*
X0009600Y-0003250D01*
Y-0002300D02*
X0009350Y-0002550D01*
X0009850D02*
X0009600Y-0002300D01*
Y-0002800D02*
X0009850Y-0002550D01*
X0009350D02*
X0009600Y-0002800D01*
X0010350Y-0002300D02*
X0010100Y-0002550D01*
X0010600D02*
X0010350Y-0002300D01*
Y-0002800D02*
X0010600Y-0002550D01*
X0010100D02*
X0010350Y-0002800D01*
X0011150Y-0003200D02*
X0010900Y-0003450D01*
X0011400D02*
X0011150Y-0003200D01*
Y-0003700D02*
X0011400Y-0003450D01*
X0010900D02*
X0011150Y-0003700D01*
Y-0002750D02*
X0010900Y-0003000D01*
X0011400D02*
X0011150Y-0002750D01*
Y-0003250D02*
X0011400Y-0003000D01*
X0010900D02*
X0011150Y-0003250D01*
Y-0002300D02*
X0010900Y-0002550D01*
X0011400D02*
X0011150Y-0002300D01*
Y-0002800D02*
X0011400Y-0002550D01*
X0010900D02*
X0011150Y-0002800D01*
X0013750Y-0003150D02*
X0013500Y-0003400D01*
X0014000D02*
X0013750Y-0003150D01*
Y-0003650D02*
X0014000Y-0003400D01*
X0013500D02*
X0013750Y-0003650D01*
Y-0002750D02*
X0013500Y-0003000D01*
X0014000D02*
X0013750Y-0002750D01*
Y-0003250D02*
X0014000Y-0003000D01*
X0013500D02*
X0013750Y-0003250D01*
Y-0002350D02*
X0013500Y-0002600D01*
X0014000D02*
X0013750Y-0002350D01*
Y-0002850D02*
X0014000Y-0002600D01*
X0013500D02*
X0013750Y-0002850D01*
X0011850Y-0003200D02*
X0011600Y-0003450D01*
X0012100D02*
X0011850Y-0003200D01*
Y-0003700D02*
X0012100Y-0003450D01*
X0011600D02*
X0011850Y-0003700D01*
Y-0002750D02*
X0011600Y-0003000D01*
X0012100D02*
X0011850Y-0002750D01*
Y-0003250D02*
X0012100Y-0003000D01*
X0011600D02*
X0011850Y-0003250D01*
X0012500Y-0002750D02*
X0012250Y-0003000D01*
X0012750D02*
X0012500Y-0002750D01*
Y-0003250D02*
X0012750Y-0003000D01*
X0012250D02*
X0012500Y-0003250D01*
Y-0003200D02*
X0012250Y-0003450D01*
X0012750D02*
X0012500Y-0003200D01*
Y-0003700D02*
X0012750Y-0003450D01*
X0012250D02*
X0012500Y-0003700D01*
X0013200Y-0003200D02*
X0012950Y-0003450D01*
X0013450D02*
X0013200Y-0003200D01*
Y-0003700D02*
X0013450Y-0003450D01*
X0012950D02*
X0013200Y-0003700D01*
Y-0002750D02*
X0012950Y-0003000D01*
X0013450D02*
X0013200Y-0002750D01*
Y-0003250D02*
X0013450Y-0003000D01*
X0012950D02*
X0013200Y-0003250D01*
Y-0002350D02*
X0012950Y-0002600D01*
X0013450D02*
X0013200Y-0002350D01*
Y-0002850D02*
X0013450Y-0002600D01*
X0012950D02*
X0013200Y-0002850D01*
X0012500Y-0002350D02*
X0012250Y-0002600D01*
X0012750D02*
X0012500Y-0002350D01*
Y-0002850D02*
X0012750Y-0002600D01*
X0012250D02*
X0012500Y-0002850D01*
X0011850Y-0002350D02*
X0011600Y-0002600D01*
X0012100D02*
X0011850Y-0002350D01*
Y-0002850D02*
X0012100Y-0002600D01*
X0011600D02*
X0011850Y-0002850D01*
X0013862Y0002250D02*
X0013362Y0001750D01*
X0013862D02*
X0013362Y0002250D01*
X0013075D02*
X0012575Y0001750D01*
X0013075D02*
X0012575Y0002250D01*
X0012287D02*
X0011787Y0001750D01*
X0012287D02*
X0011787Y0002250D01*
X0011500D02*
X0011000Y0001750D01*
X0011500D02*
X0011000Y0002250D01*
X0006500Y-0008837D02*
X0006000Y-0009337D01*
X0006500D02*
X0006000Y-0008837D01*
X0006500Y-0008049D02*
X0006000Y-0008549D01*
X0006500D02*
X0006000Y-0008049D01*
X0006500Y-0007262D02*
X0006000Y-0007762D01*
X0006500D02*
X0006000Y-0007262D01*
X0006500Y-0006474D02*
X0006000Y-0006974D01*
X0006500D02*
X0006000Y-0006474D01*
X0006500Y-0005687D02*
X0006000Y-0006187D01*
X0006500D02*
X0006000Y-0005687D01*
X0006500Y-0004900D02*
X0006000Y-0005400D01*
X0006500D02*
X0006000Y-0004900D01*
X0006500Y-0004112D02*
X0006000Y-0004612D01*
X0006500D02*
X0006000Y-0004112D01*
X0006500Y-0003325D02*
X0006000Y-0003825D01*
X0006500D02*
X0006000Y-0003325D01*
X0006500Y-0002537D02*
X0006000Y-0003037D01*
X0006500D02*
X0006000Y-0002537D01*
X0006500Y-0001750D02*
X0006000Y-0002250D01*
X0006500D02*
X0006000Y-0001750D01*
X0002500Y-0001663D02*
X0002000Y-0002163D01*
X0002500D02*
X0002000Y-0001663D01*
X0002500Y-0002451D02*
X0002000Y-0002951D01*
X0002500D02*
X0002000Y-0002451D01*
X0002500Y-0003238D02*
X0002000Y-0003738D01*
X0002500D02*
X0002000Y-0003238D01*
X0002500Y-0004026D02*
X0002000Y-0004526D01*
X0002500D02*
X0002000Y-0004026D01*
X0002500Y-0004813D02*
X0002000Y-0005313D01*
X0002500D02*
X0002000Y-0004813D01*
X0002500Y-0005600D02*
X0002000Y-0006100D01*
X0002500D02*
X0002000Y-0005600D01*
X0002500Y-0006388D02*
X0002000Y-0006888D01*
X0002500D02*
X0002000Y-0006388D01*
X0002500Y-0007175D02*
X0002000Y-0007675D01*
X0002500D02*
X0002000Y-0007175D01*
X0002500Y-0007963D02*
X0002000Y-0008463D01*
X0002500D02*
X0002000Y-0007963D01*
X0002500Y-0008750D02*
X0002000Y-0009250D01*
X0002500D02*
X0002000Y-0008750D01*
X0011470Y-0009842D02*
X0010970D01*
X0011220Y-0009592D02*
Y-0010092D01*
X0000250Y0000000D02*
X-0000250D01*
X0000000Y0000250D02*
Y-0000250D01*
M02*
