*
G04 Mass Parameters ***
*
G04 Image ***
*
%IND:\UTENTI\00.LAVORI IN CORSO\METALTRONICA\22-304A-0\22-304A-0.SMB*%
%ICAS*%
%MOIN*%
%IPPOS*%
%ASAXBY*%
G74*%FSLAN2X34Y34*%
*
G04 Aperture Definitions ***
*
%ADD10C,0.1260*%
%ADD11C,0.0394*%
%ADD12R,0.0380X0.0320*%
%ADD13R,0.0501X0.0404*%
%ADD14R,0.0630X0.1260*%
%ADD15R,0.0710X0.0400*%
%ADD16R,0.0550X0.0350*%
%ADD17R,0.0350X0.0550*%
%ADD18R,0.0550X0.0350*%
%ADD19R,0.0197X0.0315*%
%ADD20R,0.0501X0.0404*%
%ADD21R,0.0118X0.0472*%
%ADD22R,0.1063X0.1181*%
%ADD23R,0.0590X0.0590*%
%ADD24C,0.0590*%
%ADD25R,0.0500X0.0400*%
%ADD26R,0.0400X0.0500*%
%ADD27R,0.0380X0.0320*%
%ADD28R,0.0710X0.0400*%
%ADD29R,0.1701X0.1181*%
%ADD30R,0.0177X0.0649*%
%ADD31R,0.0350X0.0250*%
%ADD32R,0.0250X0.0350*%
%ADD33C,0.0276*%
%ADD34C,0.0250*%
%ADD35C,0.0100*%
%ADD36C,0.0080*%
%ADD37C,0.0170*%
%ADD38C,0.0276*%
%ADD39C,0.0200*%
%ADD40C,0.0060*%
%ADD41C,0.0276*%
%ADD42C,0.0590*%
*
G04 Plot Data ***
*
G54D35*
G01X0013300Y0001300D02*
Y-0000500D01*
X0013210Y0001300D02*
Y-0000500D01*
X0013120Y0001300D02*
Y-0000500D01*
X0013030Y0001300D02*
Y-0000500D01*
X0012940Y0001300D02*
Y-0000500D01*
X0012850Y0001300D02*
Y-0000500D01*
X0012760Y0001300D02*
Y-0000500D01*
X0012670Y0001300D02*
Y-0000500D01*
X0012580Y0001300D02*
Y-0000500D01*
X0012490Y0001300D02*
Y-0000500D01*
X0012400Y0001300D02*
Y-0000500D01*
X0012310Y0001300D02*
Y-0000500D01*
X0012220Y0001300D02*
Y-0000500D01*
X0012130Y0001300D02*
Y-0000500D01*
X0012040Y0001300D02*
Y-0000500D01*
X0011950Y0001300D02*
Y-0000500D01*
X0011860Y0001300D02*
Y-0000500D01*
X0011770Y0001300D02*
Y-0000500D01*
X0011680Y0001300D02*
Y-0000500D01*
X0011590Y0001300D02*
Y-0000500D01*
X0011500Y0001300D02*
Y-0000500D01*
X0011410Y0001300D02*
Y-0000500D01*
X0011320Y0001300D02*
Y-0000500D01*
X0011230Y0001300D02*
Y-0000520D01*
X0011140Y0001300D02*
Y-0000610D01*
X0011050Y0001300D02*
Y-0000700D01*
X0010960Y0001300D02*
Y-0000750D01*
X0010870Y0001300D02*
Y-0000750D01*
X0010780Y0001300D02*
Y-0000750D01*
X0010690Y0001300D02*
Y-0000750D01*
X0010600Y0001300D02*
Y-0000750D01*
X0010510Y0001300D02*
Y-0000750D01*
X0010420Y0001300D02*
Y-0000750D01*
X0010330Y0001300D02*
Y-0000750D01*
X0010240Y0001300D02*
Y-0000750D01*
X0010150Y0001300D02*
Y-0000750D01*
X0010060Y0001300D02*
Y-0000750D01*
X0009970Y0001300D02*
Y-0000750D01*
X0009880Y0001300D02*
Y-0000750D01*
X0009790Y0001300D02*
Y-0000750D01*
X0009700Y0001300D02*
Y-0000750D01*
X0009610Y0001300D02*
Y-0000750D01*
X0009520Y0001300D02*
Y-0000750D01*
X0009430Y0001300D02*
Y-0000750D01*
X0013750Y-0001300D02*
X0011650D01*
X0013750Y-0001390D02*
X0011560D01*
X0013750Y-0001480D02*
X0011470D01*
X0013750Y-0004810D02*
X0008400D01*
Y0001300D02*
Y-0004850D01*
X0013750Y0001300D02*
X0008400D01*
X0013750D02*
Y-0000500D01*
X0011250D01*
X0011000Y-0000750D01*
X0009300D01*
Y-0001550D01*
X0011400D02*
X0009300D01*
X0011700Y-0001250D02*
X0011400Y-0001550D01*
X0013750Y-0001250D02*
X0011700D01*
X0013750D02*
Y-0004850D01*
X0008400D01*
X0013660Y-0001250D02*
Y-0004850D01*
X0013570Y-0001250D02*
Y-0004850D01*
X0013480Y-0001250D02*
Y-0004850D01*
X0013390Y-0001250D02*
Y-0004850D01*
X0013300Y-0001250D02*
Y-0004850D01*
X0013210Y-0001250D02*
Y-0004850D01*
X0013120Y-0001250D02*
Y-0004850D01*
X0013030Y-0001250D02*
Y-0004850D01*
X0012940Y-0001250D02*
Y-0004850D01*
X0012850Y-0001250D02*
Y-0004850D01*
X0012760Y-0001250D02*
Y-0004850D01*
X0012670Y-0001250D02*
Y-0004850D01*
X0012580Y-0001250D02*
Y-0004850D01*
X0012490Y-0001250D02*
Y-0004850D01*
X0012400Y-0001250D02*
Y-0004850D01*
X0012310Y-0001250D02*
Y-0004850D01*
X0012220Y-0001250D02*
Y-0004850D01*
X0012130Y-0001250D02*
Y-0004850D01*
X0012040Y-0001250D02*
Y-0004850D01*
X0011950Y-0001250D02*
Y-0004850D01*
X0011860Y-0001250D02*
Y-0004850D01*
X0011770Y-0001250D02*
Y-0004850D01*
X0011680Y-0001270D02*
Y-0004850D01*
X0011590Y-0001360D02*
Y-0004850D01*
X0011500Y-0001450D02*
Y-0004850D01*
X0011410Y-0001540D02*
Y-0004850D01*
X0011320Y-0001550D02*
Y-0004850D01*
X0011230Y-0001550D02*
Y-0004850D01*
X0011140Y-0001550D02*
Y-0004850D01*
X0011050Y-0001550D02*
Y-0004850D01*
X0010960Y-0001550D02*
Y-0004850D01*
X0010870Y-0001550D02*
Y-0004850D01*
X0010780Y-0001550D02*
Y-0004850D01*
X0010690Y-0001550D02*
Y-0004850D01*
X0010600Y-0001550D02*
Y-0004850D01*
X0010510Y-0001550D02*
Y-0004850D01*
X0010420Y-0001550D02*
Y-0004850D01*
X0010330Y-0001550D02*
Y-0004850D01*
X0010240Y-0001550D02*
Y-0004850D01*
X0010150Y-0001550D02*
Y-0004850D01*
X0010060Y-0001550D02*
Y-0004850D01*
X0009970Y-0001550D02*
Y-0004850D01*
X0009880Y-0001550D02*
Y-0004850D01*
X0009790Y-0001550D02*
Y-0004850D01*
X0009700Y-0001550D02*
Y-0004850D01*
X0009610Y-0001550D02*
Y-0004850D01*
X0009520Y-0001550D02*
Y-0004850D01*
X0009430Y-0001550D02*
Y-0004850D01*
X0009340Y-0001550D02*
Y-0004850D01*
X0009250Y0001300D02*
Y-0004850D01*
X0009160Y0001300D02*
Y-0004850D01*
X0009070Y0001300D02*
Y-0004850D01*
X0008980Y0001300D02*
Y-0004850D01*
X0008890Y0001300D02*
Y-0004850D01*
X0008800Y0001300D02*
Y-0004850D01*
X0008710Y0001300D02*
Y-0004850D01*
X0008620Y0001300D02*
Y-0004850D01*
X0008530Y0001300D02*
Y-0004850D01*
X0008440Y0001300D02*
Y-0004850D01*
X0009340Y0001300D02*
Y-0000750D01*
X0013750Y0001220D02*
X0008400D01*
X0013750Y0001130D02*
X0008400D01*
X0013750Y0001040D02*
X0008400D01*
X0013750Y0000950D02*
X0008400D01*
X0013750Y0000860D02*
X0008400D01*
X0013750Y0000770D02*
X0008400D01*
X0013750Y0000680D02*
X0008400D01*
X0013750Y0000590D02*
X0008400D01*
X0013750Y0000500D02*
X0008400D01*
X0013750Y0000410D02*
X0008400D01*
X0013750Y0000320D02*
X0008400D01*
X0013750Y0000230D02*
X0008400D01*
X0013750Y0000140D02*
X0008400D01*
X0013750Y0000050D02*
X0008400D01*
X0013750Y-0000040D02*
X0008400D01*
X0013750Y-0000130D02*
X0008400D01*
X0013750Y-0000220D02*
X0008400D01*
X0013750Y-0000310D02*
X0008400D01*
X0013750Y-0000400D02*
X0008400D01*
X0013750Y-0000490D02*
X0008400D01*
X0011170Y-0000580D02*
X0008400D01*
X0011080Y-0000670D02*
X0008400D01*
X0009300Y-0000760D02*
X0008400D01*
X0009300Y-0000850D02*
X0008400D01*
X0009300Y-0000940D02*
X0008400D01*
X0009300Y-0001030D02*
X0008400D01*
X0009300Y-0001120D02*
X0008400D01*
X0009300Y-0001210D02*
X0008400D01*
X0009300Y-0001300D02*
X0008400D01*
X0009300Y-0001390D02*
X0008400D01*
X0009300Y-0001480D02*
X0008400D01*
X0013750Y-0001570D02*
X0008400D01*
X0013750Y-0001660D02*
X0008400D01*
X0013750Y-0001750D02*
X0008400D01*
X0013750Y-0001840D02*
X0008400D01*
X0013750Y-0001930D02*
X0008400D01*
X0013750Y-0002020D02*
X0008400D01*
X0013750Y-0002110D02*
X0008400D01*
X0013750Y-0002200D02*
X0008400D01*
X0013750Y-0002290D02*
X0008400D01*
X0013750Y-0002380D02*
X0008400D01*
X0013750Y-0002470D02*
X0008400D01*
X0013750Y-0002560D02*
X0008400D01*
X0013750Y-0002650D02*
X0008400D01*
X0013750Y-0002740D02*
X0008400D01*
X0013750Y-0002830D02*
X0008400D01*
X0013750Y-0002920D02*
X0008400D01*
X0013750Y-0003010D02*
X0008400D01*
X0013750Y-0003100D02*
X0008400D01*
X0013750Y-0003190D02*
X0008400D01*
X0013750Y-0003280D02*
X0008400D01*
X0013750Y-0003370D02*
X0008400D01*
X0013750Y-0003460D02*
X0008400D01*
X0013750Y-0003550D02*
X0008400D01*
X0013750Y-0003640D02*
X0008400D01*
X0013750Y-0003730D02*
X0008400D01*
X0013750Y-0003820D02*
X0008400D01*
X0013750Y-0003910D02*
X0008400D01*
X0013750Y-0004000D02*
X0008400D01*
X0013750Y-0004090D02*
X0008400D01*
X0013750Y-0004180D02*
X0008400D01*
X0013750Y-0004270D02*
X0008400D01*
X0013750Y-0004360D02*
X0008400D01*
X0013750Y-0004450D02*
X0008400D01*
X0013750Y-0004540D02*
X0008400D01*
X0013750Y-0004630D02*
X0008400D01*
X0013750Y-0004720D02*
X0008400D01*
X0013660Y0001300D02*
Y-0000500D01*
X0013570Y0001300D02*
Y-0000500D01*
X0013480Y0001300D02*
Y-0000500D01*
X0013390Y0001300D02*
Y-0000500D01*
G54D10*
X0011220Y-0009842D03*
X0000000Y0000000D03*
G54D23*
X0011250Y0002000D03*
X0006250Y-0002000D03*
X0002250Y-0009000D03*
G54D24*
X0013612Y0002000D03*
X0012825D03*
X0012037D03*
X0006250Y-0009087D03*
Y-0008299D03*
Y-0007512D03*
Y-0006724D03*
Y-0005937D03*
Y-0005150D03*
Y-0004362D03*
Y-0003575D03*
Y-0002787D03*
X0002250Y-0001913D03*
Y-0002701D03*
Y-0003488D03*
Y-0004276D03*
Y-0005063D03*
Y-0005850D03*
Y-0006638D03*
Y-0007425D03*
Y-0008213D03*
M02*
