*
G04 Mass Parameters ***
*
G04 Image ***
*
%IND:\UTENTI\00.LAVORI IN CORSO\METALTRONICA\22-304A-0\22-304A-0.SST*%
%ICAS*%
%MOIN*%
%IPPOS*%
%ASAXBY*%
G74*%FSLAN2X34Y34*%
*
G04 Aperture Definitions ***
*
%ADD10C,0.1260*%
%ADD11C,0.0394*%
%ADD12R,0.0380X0.0320*%
%ADD13R,0.0501X0.0404*%
%ADD14R,0.0630X0.1260*%
%ADD15R,0.0710X0.0400*%
%ADD16R,0.0550X0.0350*%
%ADD17R,0.0350X0.0550*%
%ADD18R,0.0550X0.0350*%
%ADD19R,0.0197X0.0315*%
%ADD20R,0.0501X0.0404*%
%ADD21R,0.0118X0.0472*%
%ADD22R,0.1063X0.1181*%
%ADD23R,0.0590X0.0590*%
%ADD24C,0.0590*%
%ADD25R,0.0500X0.0400*%
%ADD26R,0.0400X0.0500*%
%ADD27R,0.0380X0.0320*%
%ADD28R,0.0710X0.0400*%
%ADD29R,0.1701X0.1181*%
%ADD30R,0.0177X0.0649*%
%ADD31R,0.0350X0.0250*%
%ADD32R,0.0250X0.0350*%
%ADD33C,0.0276*%
%ADD34C,0.0250*%
%ADD35C,0.0100*%
%ADD36C,0.0080*%
%ADD37C,0.0170*%
%ADD38C,0.0276*%
%ADD39C,0.0200*%
%ADD40C,0.0060*%
%ADD41C,0.0276*%
%ADD42C,0.0590*%
%ADD43C,0.0079*%
*
G04 Plot Data ***
*
G54D35*
G01X0001050Y-0007810D02*
X0000300D01*
X0001050Y-0007900D02*
X0000300D01*
X0001050Y-0007990D02*
X0000300D01*
X0001050Y-0008080D02*
X0000300D01*
X0001050Y-0008170D02*
X0000300D01*
X0001050Y-0008260D02*
X0000300D01*
X0001050Y-0008350D02*
X0000300D01*
X0001050Y-0008440D02*
X0000300D01*
X0001050Y-0008530D02*
X0000300D01*
X0001050Y-0008620D02*
X0000300D01*
X0001050Y-0008710D02*
X0000300D01*
X0001050Y-0008800D02*
X0000300D01*
X0001050Y-0008890D02*
X0000300D01*
X0001050Y-0008980D02*
X0000300D01*
X0001050Y-0009070D02*
X0000300D01*
X0001050Y-0009160D02*
X0000300D01*
X0001050Y-0009250D02*
X0000300D01*
X0001050Y-0009340D02*
X0000300D01*
X0001050Y-0009430D02*
X0000300D01*
X0001050Y-0009520D02*
X0000300D01*
X0001050Y-0009610D02*
X0000300D01*
X0001050Y-0009700D02*
X0000300D01*
X0001050Y-0009790D02*
X0000300D01*
X0001050Y-0009880D02*
X0000300D01*
X0001050Y-0009970D02*
X0000300D01*
X0001050Y-0010060D02*
X0000300D01*
X0001050Y-0010150D02*
X0000300D01*
X0001050Y-0010240D02*
X0000300D01*
X0001050Y-0010330D02*
X0000300D01*
X0001050Y-0010420D02*
X0000300D01*
X0001050Y-0005110D02*
X0000300D01*
X0001050Y-0005200D02*
X0000300D01*
X0001050Y-0005290D02*
X0000300D01*
X0001050Y-0005380D02*
X0000300D01*
X0001050Y-0005470D02*
X0000300D01*
X0001050Y-0005560D02*
X0000300D01*
X0001050Y-0005650D02*
X0000300D01*
X0001050Y-0005740D02*
X0000300D01*
X0001050Y-0005830D02*
X0000300D01*
X0001050Y-0005920D02*
X0000300D01*
X0001050Y-0006010D02*
X0000300D01*
X0001050Y-0006100D02*
X0000300D01*
X0001050Y-0006190D02*
X0000300D01*
X0001050Y-0006280D02*
X0000300D01*
X0001050Y-0006370D02*
X0000300D01*
X0001050Y-0006460D02*
X0000300D01*
X0001050Y-0006550D02*
X0000300D01*
X0001050Y-0006640D02*
X0000300D01*
X0001050Y-0006730D02*
X0000300D01*
X0001050Y-0006820D02*
X0000300D01*
X0001050Y-0006910D02*
X0000300D01*
X0001050Y-0007000D02*
X0000300D01*
X0001050Y-0007090D02*
X0000300D01*
X0001050Y-0007180D02*
X0000300D01*
X0001050Y-0007270D02*
X0000300D01*
X0001050Y-0007360D02*
X0000300D01*
X0001050Y-0007450D02*
X0000300D01*
X0001050Y-0007540D02*
X0000300D01*
X0001050Y-0007630D02*
X0000300D01*
X0001050Y-0007720D02*
X0000300D01*
X0001050Y-0010510D02*
X0000300D01*
Y-0004000D02*
Y-0010550D01*
X0001050Y-0004000D02*
X0000300D01*
X0001050D02*
Y-0010550D01*
X0000300D01*
X0000970Y-0004000D02*
Y-0010550D01*
X0000880Y-0004000D02*
Y-0010550D01*
X0000790Y-0004000D02*
Y-0010550D01*
X0000700Y-0004000D02*
Y-0010550D01*
X0000610Y-0004000D02*
Y-0010550D01*
X0000520Y-0004000D02*
Y-0010550D01*
X0000430Y-0004000D02*
Y-0010550D01*
X0000340Y-0004000D02*
Y-0010550D01*
X0001050Y-0004030D02*
X0000300D01*
X0001050Y-0004120D02*
X0000300D01*
X0001050Y-0004210D02*
X0000300D01*
X0001050Y-0004300D02*
X0000300D01*
X0001050Y-0004390D02*
X0000300D01*
X0001050Y-0004480D02*
X0000300D01*
X0001050Y-0004570D02*
X0000300D01*
X0001050Y-0004660D02*
X0000300D01*
X0001050Y-0004750D02*
X0000300D01*
X0001050Y-0004840D02*
X0000300D01*
X0001050Y-0004930D02*
X0000300D01*
X0001050Y-0005020D02*
X0000300D01*
X0000000Y-0007810D02*
X-0000750D01*
X0000000Y-0007900D02*
X-0000750D01*
X0000000Y-0007990D02*
X-0000750D01*
X0000000Y-0008080D02*
X-0000750D01*
X0000000Y-0008170D02*
X-0000750D01*
X0000000Y-0008260D02*
X-0000750D01*
X0000000Y-0008350D02*
X-0000750D01*
X0000000Y-0008440D02*
X-0000750D01*
X0000000Y-0008530D02*
X-0000750D01*
X0000000Y-0008620D02*
X-0000750D01*
X0000000Y-0008710D02*
X-0000750D01*
X0000000Y-0008800D02*
X-0000750D01*
X0000000Y-0008890D02*
X-0000750D01*
X0000000Y-0008980D02*
X-0000750D01*
X0000000Y-0009070D02*
X-0000750D01*
X0000000Y-0009160D02*
X-0000750D01*
X0000000Y-0009250D02*
X-0000750D01*
X0000000Y-0009340D02*
X-0000750D01*
X0000000Y-0009430D02*
X-0000750D01*
X0000000Y-0009520D02*
X-0000750D01*
X0000000Y-0009610D02*
X-0000750D01*
X0000000Y-0009700D02*
X-0000750D01*
X0000000Y-0009790D02*
X-0000750D01*
X0000000Y-0009880D02*
X-0000750D01*
X0000000Y-0009970D02*
X-0000750D01*
X0000000Y-0010060D02*
X-0000750D01*
X0000000Y-0010150D02*
X-0000750D01*
X0000000Y-0010240D02*
X-0000750D01*
X0000000Y-0010330D02*
X-0000750D01*
X0000000Y-0010420D02*
X-0000750D01*
X0000000Y-0005110D02*
X-0000750D01*
X0000000Y-0005200D02*
X-0000750D01*
X0000000Y-0005290D02*
X-0000750D01*
X0000000Y-0005380D02*
X-0000750D01*
X0000000Y-0005470D02*
X-0000750D01*
X0000000Y-0005560D02*
X-0000750D01*
X0000000Y-0005650D02*
X-0000750D01*
X0000000Y-0005740D02*
X-0000750D01*
X0000000Y-0005830D02*
X-0000750D01*
X0000000Y-0005920D02*
X-0000750D01*
X0000000Y-0006010D02*
X-0000750D01*
X0000000Y-0006100D02*
X-0000750D01*
X0000000Y-0006190D02*
X-0000750D01*
X0000000Y-0006280D02*
X-0000750D01*
X0000000Y-0006370D02*
X-0000750D01*
X0000000Y-0006460D02*
X-0000750D01*
X0000000Y-0006550D02*
X-0000750D01*
X0000000Y-0006640D02*
X-0000750D01*
X0000000Y-0006730D02*
X-0000750D01*
X0000000Y-0006820D02*
X-0000750D01*
X0000000Y-0006910D02*
X-0000750D01*
X0000000Y-0007000D02*
X-0000750D01*
X0000000Y-0007090D02*
X-0000750D01*
X0000000Y-0007180D02*
X-0000750D01*
X0000000Y-0007270D02*
X-0000750D01*
X0000000Y-0007360D02*
X-0000750D01*
X0000000Y-0007450D02*
X-0000750D01*
X0000000Y-0007540D02*
X-0000750D01*
X0000000Y-0007630D02*
X-0000750D01*
X0000000Y-0007720D02*
X-0000750D01*
X0000000Y-0010510D02*
X-0000750D01*
Y-0004000D02*
Y-0010550D01*
X0000000Y-0004000D02*
X-0000750D01*
X0000000D02*
Y-0010550D01*
X-0000750D01*
X-0000080Y-0004000D02*
Y-0010550D01*
X-0000170Y-0004000D02*
Y-0010550D01*
X-0000260Y-0004000D02*
Y-0010550D01*
X-0000350Y-0004000D02*
Y-0010550D01*
X-0000440Y-0004000D02*
Y-0010550D01*
X-0000530Y-0004000D02*
Y-0010550D01*
X-0000620Y-0004000D02*
Y-0010550D01*
X-0000710Y-0004000D02*
Y-0010550D01*
X0000000Y-0004030D02*
X-0000750D01*
X0000000Y-0004120D02*
X-0000750D01*
X0000000Y-0004210D02*
X-0000750D01*
X0000000Y-0004300D02*
X-0000750D01*
X0000000Y-0004390D02*
X-0000750D01*
X0000000Y-0004480D02*
X-0000750D01*
X0000000Y-0004570D02*
X-0000750D01*
X0000000Y-0004660D02*
X-0000750D01*
X0000000Y-0004750D02*
X-0000750D01*
X0000000Y-0004840D02*
X-0000750D01*
X0000000Y-0004930D02*
X-0000750D01*
X0000000Y-0005020D02*
X-0000750D01*
G54D40*
G01X0016123Y-0007773D02*
X0016057Y-0007820D01*
X0015990Y-0007843D01*
X0015857D01*
X0015790Y-0007820D01*
X0015723Y-0007773D01*
Y-0007727D01*
X0015790Y-0007680D01*
X0015857Y-0007657D01*
X0015990D01*
X0016057Y-0007680D01*
X0016123Y-0007727D01*
Y-0007773D01*
X0015923Y-0007987D02*
Y-0008173D01*
X0015990Y-0008317D02*
Y-0008503D01*
X0016123Y-0008317D02*
X0015923D01*
X0015723Y-0008387D01*
Y-0008433D01*
X0015923Y-0008503D01*
X0016123D01*
X0015990Y-0008647D02*
Y-0008833D01*
X0015723Y-0008740D01*
Y-0008693D01*
X0016123D01*
Y-0009093D02*
X0016057Y-0009140D01*
X0015990Y-0009163D01*
X0015857D01*
X0015790Y-0009140D01*
X0015723Y-0009093D01*
Y-0009047D01*
X0015790Y-0009000D01*
X0015857Y-0008977D01*
X0015990D01*
X0016057Y-0009000D01*
X0016123Y-0009047D01*
Y-0009093D01*
X0016057Y-0009493D02*
X0016123Y-0009447D01*
Y-0009353D01*
X0016057Y-0009307D01*
X0015990D01*
X0015857Y-0009400D01*
X0015723Y-0009307D01*
Y-0009493D01*
X0015923Y-0009637D02*
Y-0009823D01*
X0016123Y-0009967D02*
Y-0010153D01*
X0015857Y-0009967D01*
X0015790D01*
X0015723Y-0009990D01*
Y-0010130D01*
X0015790Y-0010153D01*
X0016123Y-0010297D02*
Y-0010483D01*
X0015857Y-0010297D01*
X0015790D01*
X0015723Y-0010320D01*
Y-0010460D01*
X0015790Y-0010483D01*
X0013479Y-0001236D02*
X0013432Y-0001170D01*
X0013409Y-0001103D01*
Y-0000970D01*
X0013432Y-0000903D01*
X0013479Y-0000836D01*
X0013525D01*
X0013572Y-0000903D01*
X0013595Y-0000970D01*
Y-0001103D01*
X0013572Y-0001170D01*
X0013525Y-0001236D01*
X0013479D01*
X0013265D02*
X0013172D01*
X0013219D02*
Y-0000836D01*
X0013172Y-0000903D01*
X0012912Y-0001036D02*
X0012982Y-0001236D01*
X0012795Y-0001036D02*
X0012935D01*
X0012982Y-0000970D01*
Y-0000903D01*
X0012935Y-0000836D01*
X0012795D01*
Y-0001236D01*
X0016117Y-0006805D02*
X0015930D01*
X0016024Y-0006539D01*
X0016070D01*
Y-0006939D01*
X0015787D02*
X0015694D01*
X0015740D02*
Y-0006539D01*
X0015694Y-0006605D01*
X0015434Y-0006739D02*
X0015504Y-0006939D01*
X0015317Y-0006739D02*
X0015457D01*
X0015504Y-0006672D01*
Y-0006605D01*
X0015457Y-0006539D01*
X0015317D01*
Y-0006939D01*
X0015164Y-0010180D02*
X0015231Y-0010156D01*
Y-0010016D01*
X0015164Y-0009993D01*
X0015031D01*
X0014964Y-0010040D01*
Y-0010180D01*
X0014831D01*
Y-0009993D01*
X0015231Y-0010486D02*
X0014831D01*
X0015231Y-0010510D02*
Y-0010370D01*
X0015098Y-0010323D01*
X0014964D01*
X0014831Y-0010370D01*
Y-0010510D01*
X0006524Y0000781D02*
Y0000595D01*
X0006258Y0000781D01*
X0006191D01*
X0006124Y0000758D01*
Y0000618D01*
X0006191Y0000595D01*
X0006524Y0000288D02*
X0006124D01*
X0006524Y0000265D02*
Y0000405D01*
X0006391Y0000451D01*
X0006258D01*
X0006124Y0000405D01*
Y0000265D01*
X0013410Y-0005089D02*
X0013270D01*
X0013247Y-0005022D01*
Y-0004955D01*
X0013270Y-0004889D01*
X0013410D01*
X0013434Y-0004955D01*
Y-0005022D01*
X0013340Y-0005289D01*
X0013034Y-0005089D02*
X0013104Y-0005289D01*
X0012917Y-0005089D02*
X0013057D01*
X0013104Y-0005022D01*
Y-0004955D01*
X0013057Y-0004889D01*
X0012917D01*
Y-0005289D01*
X0004489Y-0006751D02*
Y-0006844D01*
Y-0006798D02*
X0004089D01*
X0004156Y-0006844D01*
X0004289Y-0007104D02*
X0004489Y-0007034D01*
X0004289Y-0007221D02*
Y-0007081D01*
X0004223Y-0007034D01*
X0004156D01*
X0004089Y-0007081D01*
Y-0007221D01*
X0004489D01*
X0003739Y-0006751D02*
Y-0006844D01*
Y-0006798D02*
X0003339D01*
X0003406Y-0006844D01*
X0003673Y-0007034D02*
X0003739Y-0007058D01*
Y-0007198D01*
X0003673Y-0007221D01*
X0003406D01*
X0003339Y-0007198D01*
Y-0007058D01*
X0003406Y-0007034D01*
X0003358Y-0000438D02*
X0003425Y-0000391D01*
Y-0000298D01*
X0003358Y-0000251D01*
X0003291D01*
X0003158Y-0000344D01*
X0003025Y-0000251D01*
Y-0000438D01*
X0003425Y-0000744D02*
X0003025D01*
X0003425Y-0000768D02*
Y-0000628D01*
X0003291Y-0000581D01*
X0003158D01*
X0003025Y-0000628D01*
Y-0000768D01*
X0010139Y-0007444D02*
X0010073Y-0007421D01*
X0010006D01*
X0009939Y-0007444D01*
Y-0007584D01*
X0010006Y-0007608D01*
X0010073D01*
X0010139Y-0007584D01*
Y-0007444D01*
X0010206Y-0007421D01*
X0010273D01*
X0010339Y-0007444D01*
Y-0007584D01*
X0010273Y-0007608D01*
X0010206D01*
X0010139Y-0007584D01*
X0010339Y-0007751D02*
Y-0007844D01*
Y-0007798D02*
X0009939D01*
X0010006Y-0007844D01*
X0010139Y-0008104D02*
X0010339Y-0008034D01*
X0010139Y-0008221D02*
Y-0008081D01*
X0010073Y-0008034D01*
X0010006D01*
X0009939Y-0008081D01*
Y-0008221D01*
X0010339D01*
X0000930Y0002619D02*
Y0002526D01*
Y0002572D02*
X0000530D01*
X0000597Y0002526D01*
X0000797Y0002172D02*
X0000864D01*
X0000930Y0002196D01*
Y0002289D01*
X0000864Y0002312D01*
X0000530D01*
Y0002336D02*
Y0002242D01*
X0005870Y0000722D02*
Y0000629D01*
Y0000676D02*
X0005470D01*
X0005537Y0000629D01*
X0014464Y-0005289D02*
X0014277D01*
X0014464Y-0005022D01*
Y-0004955D01*
X0014440Y-0004889D01*
X0014300D01*
X0014277Y-0004955D01*
X0014134Y-0005289D02*
X0013947D01*
X0014134Y-0005022D01*
Y-0004955D01*
X0014110Y-0004889D01*
X0013970D01*
X0013947Y-0004955D01*
X0013734Y-0005089D02*
X0013804Y-0005289D01*
X0013617Y-0005089D02*
X0013757D01*
X0013804Y-0005022D01*
Y-0004955D01*
X0013757Y-0004889D01*
X0013617D01*
Y-0005289D01*
X0012099Y-0001236D02*
X0012005D01*
X0012052D02*
Y-0000836D01*
X0012005Y-0000903D01*
X0011815Y-0001236D02*
X0011722D01*
X0011769D02*
Y-0000836D01*
X0011722Y-0000903D01*
X0011462Y-0001036D02*
X0011532Y-0001236D01*
X0011345Y-0001036D02*
X0011485D01*
X0011532Y-0000970D01*
Y-0000903D01*
X0011485Y-0000836D01*
X0011345D01*
Y-0001236D01*
X0000500Y-0003748D02*
X0000700D01*
X0000900Y-0003842D02*
X0000700Y-0003772D01*
Y-0003725D01*
X0000900Y-0003655D01*
X0000833Y-0003512D02*
X0000900Y-0003488D01*
Y-0003348D01*
X0000833Y-0003325D01*
X0000767D01*
X0000700Y-0003348D01*
Y-0003488D01*
X0000633Y-0003512D01*
X0000567D01*
X0000500Y-0003488D01*
Y-0003348D01*
X0000567Y-0003325D01*
X0000833Y-0003182D02*
X0000900Y-0003158D01*
Y-0003018D01*
X0000833Y-0002995D01*
X0000767D01*
X0000700Y-0003018D01*
Y-0003158D01*
X0000633Y-0003182D01*
X0000567D01*
X0000500Y-0003158D01*
Y-0003018D01*
X0000567Y-0002995D01*
X0000633Y-0002852D02*
Y-0002665D01*
X0000500Y-0002852D02*
X0000700D01*
X0000900Y-0002782D01*
Y-0002735D01*
X0000700Y-0002665D01*
X0000500D01*
X0013289Y-0008578D02*
X0013429Y-0008178D01*
X0013243D01*
X0013099Y-0008578D02*
X0013006D01*
X0013053D02*
Y-0008178D01*
X0013006Y-0008244D01*
X0012746Y-0008378D02*
X0012816Y-0008578D01*
X0012629Y-0008378D02*
X0012769D01*
X0012816Y-0008311D01*
Y-0008244D01*
X0012769Y-0008178D01*
X0012629D01*
Y-0008578D01*
X0011556Y-0008378D02*
X0011416D01*
X0011393Y-0008311D01*
Y-0008244D01*
X0011416Y-0008178D01*
X0011556D01*
X0011579Y-0008244D01*
Y-0008311D01*
X0011486Y-0008578D01*
X0011249D02*
X0011156D01*
X0011203D02*
Y-0008178D01*
X0011156Y-0008244D01*
X0010896Y-0008378D02*
X0010966Y-0008578D01*
X0010779Y-0008378D02*
X0010919D01*
X0010966Y-0008311D01*
Y-0008244D01*
X0010919Y-0008178D01*
X0010779D01*
Y-0008578D01*
X0014481Y-0010156D02*
Y-0010016D01*
X0014548Y-0009993D01*
X0014614D01*
X0014681Y-0010016D01*
Y-0010156D01*
X0014614Y-0010180D01*
X0014548D01*
X0014281Y-0010086D01*
X0014681Y-0010486D02*
X0014281D01*
X0014681Y-0010510D02*
Y-0010370D01*
X0014548Y-0010323D01*
X0014414D01*
X0014281Y-0010370D01*
Y-0010510D01*
X0007244Y-0000265D02*
Y-0000452D01*
X0006977Y-0000359D01*
Y-0000312D01*
X0007377D01*
X0007177Y-0000665D02*
X0007377Y-0000595D01*
X0007177Y-0000782D02*
Y-0000642D01*
X0007110Y-0000595D01*
X0007044D01*
X0006977Y-0000642D01*
Y-0000782D01*
X0007377D01*
X0009852Y-0000293D02*
X0009899Y-0000360D01*
X0009992D01*
X0010039Y-0000293D01*
Y-0000227D01*
X0009946Y-0000093D01*
X0010039Y0000040D01*
X0009852D01*
X0009709Y-0000360D02*
X0009546D01*
Y0000040D01*
X0009239Y-0000360D02*
Y0000040D01*
X0009216Y-0000360D02*
X0009356D01*
X0009402Y-0000227D01*
Y-0000093D01*
X0009356Y0000040D01*
X0009216D01*
X0008492Y-0000460D02*
X0008399D01*
X0008446D02*
Y-0000060D01*
X0008399Y-0000127D01*
X0008209Y-0000460D02*
X0008046D01*
Y-0000060D01*
X0007739Y-0000460D02*
Y-0000060D01*
X0007716Y-0000460D02*
X0007856D01*
X0007902Y-0000327D01*
Y-0000193D01*
X0007856Y-0000060D01*
X0007716D01*
X0003739Y-0003504D02*
Y-0003691D01*
X0003473Y-0003504D01*
X0003406D01*
X0003339Y-0003528D01*
Y-0003668D01*
X0003406Y-0003691D01*
X0003539Y-0003904D02*
X0003739Y-0003834D01*
X0003539Y-0004021D02*
Y-0003881D01*
X0003473Y-0003834D01*
X0003406D01*
X0003339Y-0003881D01*
Y-0004021D01*
X0003739D01*
X0013173Y-0010211D02*
X0013239Y-0010188D01*
Y-0010048D01*
X0013173Y-0010024D01*
X0013039D01*
X0012973Y-0010071D01*
Y-0010211D01*
X0012839D01*
Y-0010024D01*
X0013239Y-0010354D02*
Y-0010541D01*
X0012973Y-0010354D01*
X0012906D01*
X0012839Y-0010378D01*
Y-0010518D01*
X0012906Y-0010541D01*
X0013039Y-0010754D02*
X0013239Y-0010684D01*
X0013039Y-0010871D02*
Y-0010731D01*
X0012973Y-0010684D01*
X0012906D01*
X0012839Y-0010731D01*
Y-0010871D01*
X0013239D01*
X0003404Y-0001786D02*
X0003471Y-0001739D01*
Y-0001646D01*
X0003404Y-0001599D01*
X0003338D01*
X0003204Y-0001693D01*
X0003071Y-0001599D01*
Y-0001786D01*
X0003404Y-0001929D02*
X0003471Y-0001953D01*
Y-0002093D01*
X0003404Y-0002116D01*
X0003138D01*
X0003071Y-0002093D01*
Y-0001953D01*
X0003138Y-0001929D01*
X0006489Y0003422D02*
X0006423Y0003445D01*
X0006356D01*
X0006289Y0003422D01*
Y0003282D01*
X0006356Y0003259D01*
X0006423D01*
X0006489Y0003282D01*
Y0003422D01*
X0006556Y0003445D01*
X0006623D01*
X0006689Y0003422D01*
Y0003282D01*
X0006623Y0003259D01*
X0006556D01*
X0006489Y0003282D01*
Y0003045D02*
X0006689Y0003115D01*
X0006489Y0002929D02*
Y0003069D01*
X0006423Y0003115D01*
X0006356D01*
X0006289Y0003069D01*
Y0002929D01*
X0006689D01*
X0012366Y-0008378D02*
X0012506D01*
X0012529Y-0008444D01*
Y-0008511D01*
X0012506Y-0008578D01*
X0012366D01*
X0012343Y-0008511D01*
Y-0008444D01*
X0012436Y-0008178D01*
X0012199Y-0008578D02*
X0012106D01*
X0012153D02*
Y-0008178D01*
X0012106Y-0008244D01*
X0011846Y-0008378D02*
X0011916Y-0008578D01*
X0011729Y-0008378D02*
X0011869D01*
X0011916Y-0008311D01*
Y-0008244D01*
X0011869Y-0008178D01*
X0011729D01*
Y-0008578D01*
X0010589Y-0003968D02*
Y-0003828D01*
X0010656Y-0003804D01*
X0010723D01*
X0010789Y-0003828D01*
Y-0003968D01*
X0010723Y-0003991D01*
X0010656D01*
X0010389Y-0003898D01*
X0010723Y-0004134D02*
X0010789Y-0004158D01*
Y-0004298D01*
X0010723Y-0004321D01*
X0010456D01*
X0010389Y-0004298D01*
Y-0004158D01*
X0010456Y-0004134D01*
X0011764Y-0005155D02*
X0011577D01*
X0011670Y-0004889D01*
X0011717D01*
Y-0005289D01*
X0011434D02*
X0011247D01*
X0011434Y-0005022D01*
Y-0004955D01*
X0011410Y-0004889D01*
X0011270D01*
X0011247Y-0004955D01*
X0011034Y-0005089D02*
X0011104Y-0005289D01*
X0010917Y-0005089D02*
X0011057D01*
X0011104Y-0005022D01*
Y-0004955D01*
X0011057Y-0004889D01*
X0010917D01*
Y-0005289D01*
X0007427Y-0010379D02*
Y-0010239D01*
X0007494Y-0010215D01*
X0007560D01*
X0007627Y-0010239D01*
Y-0010379D01*
X0007560Y-0010402D01*
X0007494D01*
X0007227Y-0010309D01*
X0007427Y-0010615D02*
X0007627Y-0010545D01*
X0007427Y-0010732D02*
Y-0010592D01*
X0007360Y-0010545D01*
X0007294D01*
X0007227Y-0010592D01*
Y-0010732D01*
X0007627D01*
X0014354Y-0000680D02*
Y-0000773D01*
Y-0000726D02*
X0013954D01*
X0014020Y-0000773D01*
X0013954Y-0000963D02*
X0014287D01*
X0014354Y-0000986D01*
Y-0001126D01*
X0014287Y-0001150D01*
X0013954D01*
X0008723Y-0004191D02*
X0008789Y-0004168D01*
Y-0004028D01*
X0008723Y-0004004D01*
X0008589D01*
X0008523Y-0004051D01*
Y-0004191D01*
X0008389D01*
Y-0004004D01*
X0008723Y-0004334D02*
X0008789Y-0004358D01*
Y-0004498D01*
X0008723Y-0004521D01*
X0008456D01*
X0008389Y-0004498D01*
Y-0004358D01*
X0008456Y-0004334D01*
X0007689Y-0006504D02*
Y-0006691D01*
X0007423Y-0006504D01*
X0007356D01*
X0007289Y-0006528D01*
Y-0006668D01*
X0007356Y-0006691D01*
X0007623Y-0006834D02*
X0007689Y-0006858D01*
Y-0006998D01*
X0007623Y-0007021D01*
X0007356D01*
X0007289Y-0006998D01*
Y-0006858D01*
X0007356Y-0006834D01*
X0009677Y-0008852D02*
X0009610Y-0008899D01*
X0009544Y-0008922D01*
X0009410D01*
X0009344Y-0008899D01*
X0009277Y-0008852D01*
Y-0008805D01*
X0009344Y-0008759D01*
X0009410Y-0008735D01*
X0009544D01*
X0009610Y-0008759D01*
X0009677Y-0008805D01*
Y-0008852D01*
Y-0009065D02*
Y-0009252D01*
X0009410Y-0009065D01*
X0009344D01*
X0009277Y-0009089D01*
Y-0009229D01*
X0009344Y-0009252D01*
X0009477Y-0009465D02*
X0009677Y-0009395D01*
X0009477Y-0009582D02*
Y-0009442D01*
X0009410Y-0009395D01*
X0009344D01*
X0009277Y-0009442D01*
Y-0009582D01*
X0009677D01*
X0008008Y-0003470D02*
Y-0003657D01*
X0007741Y-0003564D01*
Y-0003517D01*
X0008141D01*
X0008075Y-0003800D02*
X0008141Y-0003824D01*
Y-0003964D01*
X0008075Y-0003987D01*
X0007808D01*
X0007741Y-0003964D01*
Y-0003824D01*
X0007808Y-0003800D01*
X0010710Y-0004672D02*
X0010777Y-0004625D01*
Y-0004532D01*
X0010710Y-0004485D01*
X0010644D01*
X0010510Y-0004579D01*
X0010377Y-0004485D01*
Y-0004672D01*
X0010777Y-0004815D02*
Y-0005002D01*
X0010510Y-0004815D01*
X0010444D01*
X0010377Y-0004839D01*
Y-0004979D01*
X0010444Y-0005002D01*
X0010577Y-0005215D02*
X0010777Y-0005145D01*
X0010577Y-0005332D02*
Y-0005192D01*
X0010510Y-0005145D01*
X0010444D01*
X0010377Y-0005192D01*
Y-0005332D01*
X0010777D01*
X0015273Y-0005758D02*
X0015339Y-0005734D01*
Y-0005594D01*
X0015273Y-0005571D01*
X0015139D01*
X0015073Y-0005618D01*
Y-0005758D01*
X0014939D01*
Y-0005571D01*
X0015339Y-0005901D02*
Y-0005994D01*
Y-0005948D02*
X0014939D01*
X0015006Y-0005994D01*
X0015139Y-0006254D02*
X0015339Y-0006184D01*
X0015139Y-0006371D02*
Y-0006231D01*
X0015073Y-0006184D01*
X0015006D01*
X0014939Y-0006231D01*
Y-0006371D01*
X0015339D01*
X0008426Y-0009880D02*
Y-0010067D01*
X0008159Y-0009880D01*
X0008092D01*
X0008026Y-0009903D01*
Y-0010043D01*
X0008092Y-0010067D01*
X0008426Y-0010210D02*
Y-0010373D01*
X0008026D01*
X0008426Y-0010680D02*
X0008026D01*
X0008426Y-0010703D02*
Y-0010563D01*
X0008292Y-0010517D01*
X0008159D01*
X0008026Y-0010563D01*
Y-0010703D01*
X0002333Y-0010033D02*
Y-0010220D01*
X0002067Y-0010033D01*
X0002000D01*
X0001933Y-0010057D01*
Y-0010197D01*
X0002000Y-0010220D01*
X0002200Y-0010527D02*
X0002267D01*
X0002333Y-0010503D01*
Y-0010410D01*
X0002267Y-0010387D01*
X0001933D01*
Y-0010363D02*
Y-0010457D01*
X0003433Y-0008937D02*
Y-0009030D01*
Y-0008983D02*
X0003033D01*
X0003100Y-0009030D01*
X0009526Y0003856D02*
Y0003763D01*
Y0003810D02*
X0009126D01*
X0009192Y0003763D01*
X0009392Y0003480D02*
X0009526Y0003573D01*
X0009459Y0003386D02*
X0009526Y0003410D01*
Y0003503D01*
X0009459Y0003526D01*
X0009392Y0003573D01*
X0009192D01*
X0009126Y0003550D01*
Y0003410D01*
X0009192Y0003386D01*
X0009459D01*
X0004889Y-0001171D02*
Y-0001358D01*
X0004623Y-0001171D01*
X0004556D01*
X0004489Y-0001194D01*
Y-0001334D01*
X0004556Y-0001358D01*
X0004889Y-0001501D02*
Y-0001594D01*
Y-0001548D02*
X0004489D01*
X0004556Y-0001594D01*
X0004689Y-0001854D02*
X0004889Y-0001784D01*
X0004689Y-0001971D02*
Y-0001831D01*
X0004623Y-0001784D01*
X0004556D01*
X0004489Y-0001831D01*
Y-0001971D01*
X0004889D01*
X0007620Y-0003967D02*
Y-0004154D01*
X0007353Y-0003967D01*
X0007287D01*
X0007220Y-0003991D01*
Y-0004131D01*
X0007287Y-0004154D01*
X0007487Y-0004391D02*
X0007620Y-0004297D01*
X0007553Y-0004484D02*
X0007620Y-0004461D01*
Y-0004367D01*
X0007553Y-0004344D01*
X0007487Y-0004297D01*
X0007287D01*
X0007220Y-0004321D01*
Y-0004461D01*
X0007287Y-0004484D01*
X0007553D01*
X-0000350Y-0003837D02*
Y-0003650D01*
X-0000550Y-0003837D02*
X-0000150D01*
X-0000550Y-0003650D02*
X-0000150D01*
X-0000483Y-0003507D02*
X-0000550Y-0003483D01*
Y-0003343D01*
X-0000483Y-0003320D01*
X-0000217D01*
X-0000150Y-0003343D01*
Y-0003483D01*
X-0000217Y-0003507D01*
Y-0003177D02*
X-0000150Y-0003153D01*
Y-0003013D01*
X-0000217Y-0002990D01*
X-0000283D01*
X-0000350Y-0003013D01*
Y-0003153D01*
X-0000417Y-0003177D01*
X-0000483D01*
X-0000550Y-0003153D01*
Y-0003013D01*
X-0000483Y-0002990D01*
X0004460Y-0003202D02*
X0004527Y-0003155D01*
Y-0003062D01*
X0004460Y-0003015D01*
X0004394D01*
X0004260Y-0003109D01*
X0004127Y-0003015D01*
Y-0003202D01*
X0004327Y-0003415D02*
X0004527Y-0003345D01*
X0004327Y-0003532D02*
Y-0003392D01*
X0004260Y-0003345D01*
X0004194D01*
X0004127Y-0003392D01*
Y-0003532D01*
X0004527D01*
X0006417Y-0010120D02*
X0006483Y-0010073D01*
Y-0009980D01*
X0006417Y-0009933D01*
X0006350D01*
X0006217Y-0010027D01*
X0006083Y-0009933D01*
Y-0010120D01*
X0006350Y-0010427D02*
X0006417D01*
X0006483Y-0010403D01*
Y-0010310D01*
X0006417Y-0010287D01*
X0006083D01*
Y-0010263D02*
Y-0010357D01*
X0005433Y-0001687D02*
Y-0001780D01*
Y-0001733D02*
X0005033D01*
X0005100Y-0001780D01*
X0008241Y0003499D02*
Y0003312D01*
X0007975Y0003406D01*
Y0003452D01*
X0008375D01*
Y0003006D02*
X0007975D01*
X0008375Y0002982D02*
Y0003122D01*
X0008241Y0003169D01*
X0008108D01*
X0007975Y0003122D01*
Y0002982D01*
X0015260Y-0007269D02*
X0015327Y-0007222D01*
Y-0007129D01*
X0015260Y-0007082D01*
X0015194D01*
X0015060Y-0007175D01*
X0014927Y-0007082D01*
Y-0007269D01*
X0015327Y-0007412D02*
Y-0007505D01*
Y-0007459D02*
X0014927D01*
X0014994Y-0007505D01*
X0015127Y-0007765D02*
X0015327Y-0007695D01*
X0015127Y-0007882D02*
Y-0007742D01*
X0015060Y-0007695D01*
X0014994D01*
X0014927Y-0007742D01*
Y-0007882D01*
X0015327D01*
X0014200Y0001167D02*
Y0000980D01*
X0013933Y0001073D01*
Y0001120D01*
X0014333D01*
X0014200Y0000673D02*
X0014267D01*
X0014333Y0000697D01*
Y0000790D01*
X0014267Y0000813D01*
X0013933D01*
Y0000837D02*
Y0000743D01*
X0011333Y0003063D02*
Y0002970D01*
Y0003017D02*
X0010933D01*
X0011000Y0002970D01*
X0010639Y0001155D02*
X0010239Y0001295D01*
Y0001109D01*
X0010439Y0000895D02*
X0010639Y0000965D01*
X0010439Y0000779D02*
Y0000919D01*
X0010373Y0000965D01*
X0010306D01*
X0010239Y0000919D01*
Y0000779D01*
X0010639D01*
X0008811Y-0006847D02*
X0008411Y-0006707D01*
Y-0006894D01*
X0008744Y-0007037D02*
X0008811Y-0007060D01*
Y-0007200D01*
X0008744Y-0007224D01*
X0008478D01*
X0008411Y-0007200D01*
Y-0007060D01*
X0008478Y-0007037D01*
X0013695Y-0010144D02*
X0013629Y-0010120D01*
X0013562D01*
X0013495Y-0010144D01*
Y-0010284D01*
X0013562Y-0010307D01*
X0013629D01*
X0013695Y-0010284D01*
Y-0010144D01*
X0013762Y-0010120D01*
X0013829D01*
X0013895Y-0010144D01*
Y-0010284D01*
X0013829Y-0010307D01*
X0013762D01*
X0013695Y-0010284D01*
X0013829Y-0010450D02*
X0013895Y-0010474D01*
Y-0010614D01*
X0013829Y-0010637D01*
X0013562D01*
X0013495Y-0010614D01*
Y-0010474D01*
X0013562Y-0010450D01*
X0005173Y-0004441D02*
X0005239Y-0004418D01*
Y-0004278D01*
X0005173Y-0004254D01*
X0005039D01*
X0004973Y-0004301D01*
Y-0004441D01*
X0004839D01*
Y-0004254D01*
X0005039Y-0004654D02*
X0005239Y-0004584D01*
X0005039Y-0004771D02*
Y-0004631D01*
X0004973Y-0004584D01*
X0004906D01*
X0004839Y-0004631D01*
Y-0004771D01*
X0005239D01*
X0008142Y0004134D02*
Y0004041D01*
Y0004088D02*
X0007742D01*
X0007808Y0004041D01*
X0008142Y0003688D02*
X0007742D01*
X0008142Y0003664D02*
Y0003804D01*
X0008008Y0003851D01*
X0007875D01*
X0007742Y0003804D01*
Y0003664D01*
X0012717Y-0005289D02*
X0012624D01*
X0012670D02*
Y-0004889D01*
X0012624Y-0004955D01*
X0012434Y-0005289D02*
X0012247D01*
X0012434Y-0005022D01*
Y-0004955D01*
X0012410Y-0004889D01*
X0012270D01*
X0012247Y-0004955D01*
X0012034Y-0005089D02*
X0012104Y-0005289D01*
X0011917Y-0005089D02*
X0012057D01*
X0012104Y-0005022D01*
Y-0004955D01*
X0012057Y-0004889D01*
X0011917D01*
Y-0005289D01*
X0006850Y0001850D02*
X0006700Y0002000D01*
Y0002850D01*
X0014000Y-0006900D02*
X0014200Y-0006700D01*
X0015250D01*
X0011675Y-0005425D02*
Y-0006575D01*
X0012320D01*
Y-0005425D01*
X0011675D01*
X0014803Y-0009157D02*
Y-0009118D01*
X0015197D01*
Y-0009157D01*
X0014803D01*
X0011825Y-0008075D02*
Y-0006925D01*
X0011180D01*
Y-0008075D01*
X0011825D01*
X0014843Y-0008725D02*
X0014803D01*
Y-0009275D01*
X0014843D01*
X0015157D02*
X0015197D01*
Y-0008725D01*
X0015157D01*
X0005400Y0000150D02*
X0005350D01*
Y-0000500D01*
X0005500Y-0000650D01*
X0006650D01*
Y0000150D01*
X0005400D01*
X0012425Y-0005425D02*
Y-0006575D01*
X0013070D01*
Y-0005425D01*
X0012425D01*
X0004575Y-0008575D02*
Y-0007425D01*
X0003930D01*
Y-0008575D01*
X0004575D01*
X0003825D02*
Y-0007425D01*
X0003180D01*
Y-0008575D01*
X0003825D01*
X0004400Y0000100D02*
Y0000150D01*
X0003750D01*
X0003600Y0000000D01*
Y-0001150D01*
X0004400D01*
Y0000100D01*
X0011075Y-0008075D02*
Y-0006925D01*
X0010430D01*
Y-0008075D01*
X0011075D01*
X0002055Y0001142D02*
Y0001043D01*
X0001996Y0000984D01*
X0001693D01*
Y0002165D01*
X0002272D02*
X0005602D01*
Y0001181D01*
X0005405Y0000984D01*
X0005256D01*
Y0001181D01*
X0005177D01*
Y0000984D01*
X0005256D01*
Y0000866D01*
Y0000669D01*
X0005177D01*
Y0000866D01*
Y0000984D01*
X0005059D01*
Y0001181D01*
X0004980D01*
Y0000984D01*
X0005059D01*
Y0000866D01*
Y0000669D01*
X0004980D01*
Y0000866D01*
Y0000984D01*
X0004862D01*
Y0001181D01*
X0004783D01*
Y0000984D01*
X0004862D01*
Y0000866D01*
Y0000669D01*
X0004783D01*
Y0000866D01*
Y0000984D01*
X0004665D01*
Y0001181D01*
X0004587D01*
Y0000984D01*
X0004665D01*
Y0000866D01*
Y0000669D01*
X0004587D01*
Y0000866D01*
Y0000984D01*
X0004468D01*
Y0001181D01*
X0004390D01*
Y0000984D01*
X0004468D01*
Y0000866D01*
Y0000669D01*
X0004390D01*
Y0000866D01*
Y0000984D01*
X0004272D01*
X0004193D01*
Y0000866D01*
X0004272D01*
Y0000984D01*
Y0001181D01*
X0004193D01*
Y0000984D01*
X0004075D01*
Y0001181D01*
X0003996D01*
Y0000984D01*
X0004075D01*
Y0000866D01*
Y0000669D01*
X0003996D01*
Y0000866D01*
Y0000984D01*
X0003878D01*
Y0001181D01*
X0003799D01*
Y0000984D01*
X0003878D01*
Y0000866D01*
Y0000669D01*
X0003799D01*
Y0000866D01*
Y0000984D01*
X0003681D01*
Y0001181D01*
X0003602D01*
Y0000984D01*
X0003484D01*
Y0001181D01*
X0003405D01*
Y0000984D01*
X0003484D01*
Y0000866D01*
Y0000669D01*
X0003405D01*
Y0000866D01*
Y0000984D01*
X0003287D01*
X0003209D01*
Y0000866D01*
X0003287D01*
Y0000984D01*
Y0001181D01*
X0003209D01*
Y0000984D01*
X0003090D01*
Y0001181D01*
X0003012D01*
Y0000984D01*
X0003090D01*
Y0000866D01*
Y0000669D01*
X0003012D01*
Y0000866D01*
Y0000984D01*
X0002894D01*
Y0001181D01*
X0002815D01*
Y0000984D01*
X0002894D01*
Y0000866D01*
Y0000669D01*
X0002815D01*
Y0000866D01*
Y0000984D01*
X0002697D01*
X0002618D01*
Y0000866D01*
X0002697D01*
Y0000984D01*
Y0001181D01*
X0002618D01*
Y0000984D01*
X0002468D01*
X0002272Y0001181D01*
Y0002165D01*
X0001417D01*
X0001299D01*
Y0002638D01*
X0001338Y0002677D02*
X0006535D01*
X0006575Y0002638D02*
X0001299D01*
X0005602Y0001968D02*
X0005685D01*
X0006114D01*
Y0001142D01*
X0005760D01*
Y0001102D01*
X0005819Y0001043D01*
X0005878Y0000984D01*
X0006181D01*
Y0002165D01*
X0005681D02*
Y0002008D01*
X0005819D01*
Y0001968D01*
X0002193Y0002165D02*
Y0002008D01*
X0002055D01*
Y0001968D01*
X0001976Y0001457D02*
X0002189D01*
X0002272D01*
Y0001968D02*
X0002189D01*
X0001760D01*
Y0001142D01*
X0002114D01*
X0002189D01*
Y0001338D01*
X0002272D01*
X0002189D02*
X0002114D01*
X0001976D01*
X0006575Y0002638D02*
Y0002165D01*
X0006457D01*
X0005602D01*
Y0001338D02*
X0005685D01*
X0005760D01*
X0005898D01*
Y0001457D02*
X0005685D01*
X0005602D01*
X0002055Y0001043D02*
X0002114Y0001102D01*
Y0001142D01*
X0005760Y0002008D02*
Y0001968D01*
X0002114Y0001339D02*
Y0001457D01*
X0002055D02*
Y0001338D01*
X0005819Y0001457D02*
Y0001338D01*
X0005602Y0001181D02*
Y0001142D01*
X0005681D01*
X0005685D01*
X0005760D01*
X0001516Y0002067D02*
Y0001575D01*
Y0001472D01*
Y0001244D01*
Y0001142D01*
Y0000984D01*
X0001693D01*
X0001516Y0002067D02*
X0001693D01*
X0003287Y0000866D02*
Y0000669D01*
X0003209D01*
Y0000866D01*
X0002815D02*
X0002894D01*
X0004980D02*
X0005059D01*
X0002697D02*
Y0000669D01*
X0002618D01*
Y0000866D01*
X0004272D02*
Y0000669D01*
X0004193D01*
Y0000866D01*
X0003996D02*
X0004075D01*
X0005760Y0001457D02*
Y0001339D01*
X0002114Y0001968D02*
Y0002008D01*
X0005819Y0001142D02*
Y0001043D01*
X0006358Y0001244D02*
X0006476Y0001220D01*
X0006468Y0001142D02*
X0006358D01*
Y0001244D01*
Y0001472D01*
Y0001575D01*
Y0002067D01*
Y0001575D02*
X0006469D01*
X0006477Y0001497D02*
X0006358Y0001472D01*
X0001397Y0001497D02*
X0001516Y0001472D01*
X0004587Y0000866D02*
X0004665D01*
X0004390D02*
X0004468D01*
X0002272Y0001063D02*
X0002193D01*
Y0001142D01*
X0002272D01*
Y0001063D01*
X0002193Y0001142D02*
X0002189D01*
X0002272Y0001181D02*
Y0001142D01*
X0002189Y0001968D02*
Y0001457D01*
X0001516Y0001244D02*
X0001397Y0001220D01*
X0001516Y0001575D02*
X0001405D01*
X0001516Y0001142D02*
X0001405D01*
X0006181Y0000984D02*
X0006358D01*
Y0001142D01*
X0006181Y0002067D02*
X0006358D01*
X0003799Y0000866D02*
X0003878D01*
X0003602Y0000984D02*
X0003681D01*
Y0000866D01*
X0003602D01*
Y0000984D01*
X0003681Y0000866D02*
Y0000669D01*
X0003602D01*
Y0000866D01*
X0003405D02*
X0003484D01*
X0003012D02*
X0003090D01*
X0005685Y0001338D02*
Y0001142D01*
X0005681D01*
Y0001063D01*
X0005602D01*
Y0001142D01*
X0005685Y0001968D02*
Y0001457D01*
X0005177Y0000866D02*
X0005256D01*
X0004783D02*
X0004862D01*
X0002269Y0001455D02*
X0002186D01*
X0002112D01*
X0002111D01*
X0001974D01*
Y0001337D02*
X0002186D01*
X0002269D01*
X0001511Y0001470D02*
X0001393Y0001495D01*
X0001401Y0001573D02*
X0001511D01*
Y0001469D01*
X0001510Y0001129D02*
X0001399D01*
X0001391Y0001207D02*
X0001510Y0001232D01*
X0007575Y0001425D02*
Y0002575D01*
X0006930D01*
Y0001425D01*
X0007575D01*
X0014657Y-0009275D02*
X0014697D01*
Y-0008725D01*
X0014657D01*
X0013325Y-0008075D02*
Y-0006925D01*
X0012680D01*
Y-0008075D01*
X0013325D01*
X0012575D02*
Y-0006925D01*
X0011930D01*
Y-0008075D01*
X0012575D01*
X0011200Y0001300D02*
X0012300D01*
Y-0000800D01*
X0011200D01*
Y0001300D01*
X0012700D02*
X0013800D01*
Y-0000800D01*
X0012700D01*
Y0001300D01*
X0006925Y0001075D02*
Y-0000075D01*
X0007570D01*
Y0001075D01*
X0006925D01*
X0008750Y0001450D02*
X0009250D01*
X0009350Y0001350D01*
Y0000050D01*
X0008650D01*
Y0001350D01*
X0008750Y0001450D01*
X0008650Y0000850D02*
X0009350D01*
X0008000Y0001450D02*
X0008500D01*
X0008600Y0001350D01*
Y0000050D01*
X0007900D01*
Y0001350D01*
X0008000Y0001450D01*
X0007900Y0000850D02*
X0008600D01*
X0003825Y-0005325D02*
Y-0004175D01*
X0003180D01*
Y-0005325D01*
X0003825D01*
X0013325Y-0009825D02*
Y-0008675D01*
X0012680D01*
Y-0009825D01*
X0013325D01*
X0004350Y-0002700D02*
Y-0001300D01*
X0003650D01*
Y-0002700D01*
X0004350D01*
X0014303Y-0009157D02*
Y-0009118D01*
X0014697D01*
Y-0009157D01*
X0014303D01*
X0014343Y-0008725D02*
X0014303D01*
Y-0009275D01*
X0014343D01*
X0010325Y-0005075D02*
Y-0003925D01*
X0009680D01*
Y-0005075D01*
X0010325D01*
X0010925Y-0005425D02*
Y-0006575D01*
X0011570D01*
Y-0005425D01*
X0010925D01*
X0007175Y-0008925D02*
Y-0010075D01*
X0007820D01*
Y-0008925D01*
X0007175D01*
X0009575Y-0005075D02*
Y-0003925D01*
X0008930D01*
Y-0005075D01*
X0009575D01*
X0007825Y-0008325D02*
Y-0007175D01*
X0007180D01*
Y-0008325D01*
X0007825D01*
X0009175Y-0007425D02*
Y-0008575D01*
X0009820D01*
Y-0007425D01*
X0009175D01*
X0009573Y-0000437D02*
Y-0000566D01*
X0009519Y-0000414D02*
Y-0000590D01*
X0009465Y-0000428D02*
Y-0000576D01*
X0009578Y-0000442D02*
X0009449D01*
X0009601Y-0000496D02*
X0009425D01*
X0009587Y-0000550D02*
X0009439D01*
X0008556Y-0000816D02*
Y-0000702D01*
X0008213D01*
X0007702Y-0001213D01*
Y-0003298D01*
X0008560D01*
Y-0003164D01*
X0009432Y-0000820D02*
Y-0000702D01*
X0009787D01*
X0010298Y-0001213D01*
Y-0003298D01*
X0009444D01*
Y-0003176D01*
X0010175Y-0005425D02*
Y-0006575D01*
X0010820D01*
Y-0005425D01*
X0010175D01*
X0014825Y-0006575D02*
Y-0005425D01*
X0014180D01*
Y-0006575D01*
X0014825D01*
X0005075Y-0001075D02*
Y0000075D01*
X0004430D01*
Y-0001075D01*
X0005075D01*
X0008000Y-0008300D02*
X0008500D01*
X0008600Y-0008400D01*
Y-0009700D01*
X0007900D01*
Y-0008400D01*
X0008000Y-0008300D01*
X0007900Y-0008900D02*
X0008600D01*
X0002211Y-0001441D02*
Y-0001480D01*
X0002171Y-0001520D02*
X0001974D01*
X0001856Y-0001401D02*
Y-0001323D01*
X0001891Y-0001406D01*
X0001974Y-0001323D01*
X0002880D01*
Y-0001441D01*
X0001974D01*
X0001891Y-0001406D01*
X0002722Y-0009709D02*
Y-0008846D01*
X0002644Y-0008768D01*
X0002703D01*
X0002880D01*
Y-0008886D01*
Y-0009709D01*
Y-0009827D01*
X0001974D01*
Y-0009866D01*
X0002880D01*
Y-0009827D01*
X0002703Y-0002461D02*
X0002821Y-0002579D01*
X0002880D01*
Y-0002776D01*
X0002762D01*
X0002644Y-0002657D01*
Y-0002461D01*
X0002703D01*
X0002880D01*
Y-0002146D01*
X0002703D01*
X0002781Y-0002067D01*
X0002722D01*
X0002644Y-0002146D01*
X0002703D01*
X0002880Y-0008768D02*
Y-0008453D01*
X0002703D01*
X0002821Y-0008335D01*
X0002880D01*
Y-0008138D01*
Y-0002776D01*
X0002781Y-0002067D02*
X0002821Y-0002027D01*
X0002880D01*
Y-0001441D01*
X0002644Y-0002167D02*
Y-0002146D01*
Y-0001441D01*
Y-0008747D02*
Y-0008768D01*
Y-0009709D01*
X0001974Y-0009827D02*
X0001891Y-0009743D01*
X0001974Y-0009709D01*
X0002880D01*
Y-0001323D02*
Y-0001283D01*
X0001974D01*
Y-0001323D01*
Y-0001283D02*
X0001856D01*
X0001463D01*
Y-0009866D01*
X0001856D01*
Y-0009827D01*
Y-0009748D01*
X0001974Y-0009630D02*
X0002171D01*
X0002211Y-0009669D02*
Y-0009709D01*
X0002762Y-0002776D02*
Y-0008138D01*
X0002644Y-0008256D01*
Y-0007823D01*
X0002722D01*
Y-0003090D01*
X0002644D01*
Y-0002657D01*
X0002703Y-0008453D02*
X0002644D01*
Y-0008256D01*
X0002880Y-0008138D02*
X0002762D01*
X0001856Y-0009866D02*
X0001974D01*
X0001891Y-0009743D02*
X0001856Y-0009827D01*
X0002644Y-0002461D02*
Y-0002439D01*
X0002722Y-0001441D02*
Y-0002067D01*
X0002880Y-0002146D02*
Y-0002027D01*
Y-0002579D02*
Y-0002461D01*
Y-0008335D02*
Y-0008453D01*
X0002644Y-0008474D02*
Y-0008453D01*
X0002880Y-0008886D02*
X0002821D01*
X0002781Y-0008846D01*
X0002703Y-0008768D01*
X0002781Y-0008846D02*
X0002722D01*
X0002644Y-0007823D02*
Y-0003090D01*
X0001856Y-0001283D02*
Y-0001323D01*
X0002565Y-0001441D02*
Y-0002303D01*
Y-0008610D01*
Y-0009709D01*
X0008450Y0003200D02*
Y0001600D01*
X0010250D01*
Y0002300D01*
X0010150Y0002400D01*
X0010250Y0002500D01*
Y0003200D01*
X0008450D01*
X0007200Y-0006400D02*
X0008800D01*
Y-0004600D01*
X0008100D01*
X0008000Y-0004700D01*
X0007900Y-0004600D01*
X0007200D01*
Y-0006400D01*
X0006850Y0002900D02*
Y0002850D01*
X0007500D01*
X0007650Y0003000D01*
Y0004150D01*
X0006850D01*
Y0002900D01*
X0013425Y-0006925D02*
Y-0008075D01*
X0014070D01*
Y-0006925D01*
X0013425D01*
X0004675Y-0002675D02*
Y-0003825D01*
X0005320D01*
Y-0002675D01*
X0004675D01*
X0006289Y-0009559D02*
Y-0009520D01*
X0006329Y-0009480D02*
X0006526D01*
X0006644Y-0009598D02*
Y-0009677D01*
X0006609Y-0009594D01*
X0006526Y-0009677D01*
X0005620D01*
Y-0009559D01*
X0006526D01*
X0006609Y-0009594D01*
X0005777Y-0001291D02*
Y-0002153D01*
X0005856Y-0002232D01*
X0005797D01*
X0005620D01*
Y-0002114D01*
Y-0001291D01*
Y-0001173D01*
X0006526D01*
Y-0001134D01*
X0005620D01*
Y-0001173D01*
X0005797Y-0008539D02*
X0005679Y-0008421D01*
X0005620D01*
Y-0008224D01*
X0005738D01*
X0005856Y-0008342D01*
Y-0008539D01*
X0005797D01*
X0005620D01*
Y-0008854D01*
X0005797D01*
X0005718Y-0008933D01*
X0005777D01*
X0005856Y-0008854D01*
X0005797D01*
X0005620Y-0002232D02*
Y-0002547D01*
X0005797D01*
X0005679Y-0002665D01*
X0005620D01*
Y-0002862D01*
Y-0008224D01*
X0005718Y-0008933D02*
X0005679Y-0008972D01*
X0005620D01*
Y-0009559D01*
X0005856Y-0008833D02*
Y-0008854D01*
Y-0009559D01*
Y-0002253D02*
Y-0002232D01*
Y-0001291D01*
X0006526Y-0001173D02*
X0006609Y-0001257D01*
X0006526Y-0001291D01*
X0005620D01*
Y-0009677D02*
Y-0009716D01*
X0006526D01*
Y-0009677D01*
Y-0009716D02*
X0006644D01*
X0007037D01*
Y-0001134D01*
X0006644D01*
Y-0001173D01*
Y-0001252D01*
X0006526Y-0001370D02*
X0006329D01*
X0006289Y-0001331D02*
Y-0001291D01*
X0005738Y-0008224D02*
Y-0002862D01*
X0005856Y-0002744D01*
Y-0003177D01*
X0005777D01*
Y-0007909D01*
X0005856D01*
Y-0008342D01*
X0005797Y-0002547D02*
X0005856D01*
Y-0002744D01*
X0005620Y-0002862D02*
X0005738D01*
X0006644Y-0001134D02*
X0006526D01*
X0006609Y-0001257D02*
X0006644Y-0001173D01*
X0005856Y-0008539D02*
Y-0008560D01*
X0005777Y-0009559D02*
Y-0008933D01*
X0005620Y-0008854D02*
Y-0008972D01*
Y-0008421D02*
Y-0008539D01*
Y-0002665D02*
Y-0002547D01*
X0005856Y-0002526D02*
Y-0002547D01*
X0005620Y-0002114D02*
X0005679D01*
X0005718Y-0002153D01*
X0005797Y-0002232D01*
X0005718Y-0002153D02*
X0005777D01*
X0005856Y-0003177D02*
Y-0007909D01*
X0006644Y-0009716D02*
Y-0009677D01*
X0005935Y-0009559D02*
Y-0008697D01*
Y-0002390D01*
Y-0001291D01*
X0008400Y0002850D02*
Y0002900D01*
X0007750D01*
X0007600Y0002750D01*
Y0001600D01*
X0008400D01*
Y0002850D01*
X0014175Y-0006925D02*
Y-0008075D01*
X0014820D01*
Y-0006925D01*
X0014175D01*
X0014085Y0002039D02*
X0014045D01*
X0014006Y0002079D02*
Y0002276D01*
X0014124Y0002394D02*
X0014203D01*
X0014119Y0002359D01*
X0014203Y0002276D01*
Y0001370D01*
X0014085D01*
Y0002276D01*
X0014119Y0002359D01*
X0010423Y0001370D02*
X0010384D01*
Y0002276D01*
X0010423D01*
Y0001370D01*
X0011364D01*
Y0001429D01*
X0011403Y0001468D01*
Y0001527D01*
X0010541D01*
X0013065Y0001547D02*
X0012947Y0001429D01*
Y0001370D01*
X0012750D01*
Y0001488D01*
X0012868Y0001606D01*
X0013065D01*
Y0001547D01*
Y0001370D01*
X0013380D01*
Y0001547D01*
X0013459Y0001468D01*
Y0001527D01*
X0013380Y0001606D01*
Y0001547D01*
X0011364Y0001370D02*
X0011482D01*
X0011797D01*
Y0001547D01*
X0011915Y0001429D01*
Y0001370D01*
X0012112D01*
X0012750D01*
X0013459Y0001468D02*
X0013498Y0001429D01*
Y0001370D01*
X0014085D01*
X0013359Y0001606D02*
X0013380D01*
X0014085D01*
X0011403Y0001527D02*
X0011482Y0001606D01*
X0010541D01*
X0010423Y0002276D02*
X0010507Y0002359D01*
X0010541Y0002276D01*
Y0001370D01*
X0014203D02*
X0014242D01*
Y0002276D01*
X0014203D01*
X0014242D02*
Y0002394D01*
Y0002787D01*
X0010384D01*
Y0002394D01*
X0010423D01*
X0010502D01*
X0010620Y0002276D02*
Y0002079D01*
X0010581Y0002039D02*
X0010541D01*
X0011503Y0001606D02*
X0011482D01*
Y0001547D01*
X0011403Y0001468D01*
X0012750Y0001488D02*
X0012112D01*
X0011994Y0001606D01*
X0011797D01*
Y0001547D01*
X0012112Y0001370D02*
Y0001488D01*
X0010384Y0002394D02*
Y0002276D01*
X0010507Y0002359D02*
X0010423Y0002394D01*
X0013065Y0001606D02*
X0013086D01*
X0014085Y0001527D02*
X0013459D01*
X0013380Y0001370D02*
X0013498D01*
X0012947D02*
X0013065D01*
X0011915D02*
X0011797D01*
X0011776Y0001606D02*
X0011797D01*
X0011482Y0001547D02*
Y0001370D01*
X0011994Y0001606D02*
X0012868D01*
X0014242Y0002394D02*
X0014203D01*
X0014085Y0001685D02*
X0013222D01*
X0011640D01*
X0010541D01*
X0010075Y0000175D02*
Y0001325D01*
X0009430D01*
Y0000175D01*
X0010075D01*
X0010050Y-0007300D02*
X0008950D01*
Y-0005200D01*
X0010050D01*
Y-0007300D01*
X0013400Y-0008550D02*
Y-0009950D01*
X0014100D01*
Y-0008550D01*
X0013400D01*
X0005325Y-0006075D02*
Y-0004925D01*
X0004680D01*
Y-0006075D01*
X0005325D01*
X0013175Y-0005425D02*
Y-0006575D01*
X0013820D01*
Y-0005425D01*
X0013175D01*
G01X0001338Y0002677D02*
G03X0001299Y0002638I0000000J0000039D01*
G01X0006575D02*
G03X0006535Y0002678I0000040J0000000D01*
G01X0005898Y0001338D02*
G03X0005957Y0001397I0000000J0000059D01*
G03X0005898Y0001456I0000059J0000000D01*
G01X0001516Y0002067D02*
G03X0001417Y0002166I0000099J0000000D01*
G01X0006508Y0001181D02*
G03X0006476Y0001220I0000040J0000000D01*
G01X0006468Y0001142D02*
G03X0006507Y0001181I0000000J0000039D01*
G01X0006457Y0002165D02*
G03X0006359Y0002067I0000000J0000098D01*
G01X0006508Y0001535D02*
G03X0006469Y0001574I0000039J0000000D01*
G01X0006477Y0001497D02*
G03X0006508Y0001535I0000008J0000038D01*
G03X0006468Y0001575I0000040J0000000D01*
G01X0006476Y0001497D02*
G03X0006507Y0001535I0000008J0000038D01*
G01X0001974Y0001455D02*
G03X0001915Y0001396I0000000J0000059D01*
G03X0001974Y0001337I0000059J0000000D01*
G01X0001361Y0001534D02*
G03X0001393Y0001495I0000040J0000000D01*
G01X0001401Y0001573D02*
G03X0001362Y0001534I0000000J0000039D01*
G01X0001360Y0001169D02*
G03X0001399Y0001130I0000039J0000000D01*
G01X0001391Y0001207D02*
G03X0001360Y0001169I0000008J0000038D01*
G01X0009000Y-0003240D02*
G03X0010240Y-0002000I0000000J0001240D01*
G01X0007760D02*
G03X0009000Y-0003240I0001240J0000000D01*
Y-0000760D02*
G03X0007760Y-0002000I0000000J0001240D01*
G01X0010240D02*
G03X0009000Y-0000760I0001240J0000000D01*
G01X0009425Y-0000502D02*
G03X0009513Y-0000590I0000088J0000000D01*
Y-0000414D02*
G03X0009425Y-0000502I0000000J0000088D01*
G01X0009601D02*
G03X0009513Y-0000414I0000088J0000000D01*
Y-0000590D02*
G03X0009601Y-0000502I0000000J0000088D01*
G01X0002171Y-0001520D02*
G03X0002211Y-0001480I0000000J0000040D01*
G01X0001856Y-0001401D02*
G03X0001974Y-0001519I0000118J0000000D01*
Y-0009630D02*
G03X0001856Y-0009748I0000000J0000118D01*
G01X0002211Y-0009669D02*
G03X0002171Y-0009629I0000040J0000000D01*
G01X0002565Y-0002290D02*
G03X0002644Y-0002426I0000157J0000000D01*
Y-0002153D02*
G03X0002564Y-0002290I0000078J0000137D01*
G01X0002565Y-0008597D02*
G03X0002644Y-0008733I0000157J0000000D01*
Y-0008460D02*
G03X0002564Y-0008597I0000078J0000137D01*
G01X0002250Y-0008355D02*
G03X0002368Y-0008237I0000000J0000118D01*
G01X0002132D02*
G03X0002250Y-0008355I0000118J0000000D01*
Y-0008118D02*
G03X0002131Y-0008237I0000000J0000119D01*
G01X0002368D02*
G03X0002250Y-0008119I0000118J0000000D01*
Y-0007567D02*
G03X0002368Y-0007449I0000000J0000118D01*
G01X0002132D02*
G03X0002250Y-0007567I0000118J0000000D01*
Y-0007331D02*
G03X0002132Y-0007449I0000000J0000118D01*
G01X0002368D02*
G03X0002250Y-0007331I0000118J0000000D01*
Y-0006780D02*
G03X0002368Y-0006662I0000000J0000118D01*
G01X0002132D02*
G03X0002250Y-0006780I0000118J0000000D01*
Y-0006544D02*
G03X0002132Y-0006662I0000000J0000118D01*
G01X0002368D02*
G03X0002250Y-0006544I0000118J0000000D01*
Y-0005992D02*
G03X0002368Y-0005874I0000000J0000118D01*
G01X0002132D02*
G03X0002250Y-0005992I0000118J0000000D01*
Y-0005756D02*
G03X0002132Y-0005874I0000000J0000118D01*
G01X0002368D02*
G03X0002250Y-0005756I0000118J0000000D01*
Y-0005205D02*
G03X0002368Y-0005087I0000000J0000118D01*
G01X0002132D02*
G03X0002250Y-0005205I0000118J0000000D01*
Y-0004969D02*
G03X0002132Y-0005087I0000000J0000118D01*
G01X0002368D02*
G03X0002250Y-0004969I0000118J0000000D01*
Y-0004418D02*
G03X0002368Y-0004300I0000000J0000118D01*
G01X0002132D02*
G03X0002250Y-0004418I0000118J0000000D01*
Y-0004181D02*
G03X0002131Y-0004300I0000000J0000119D01*
G01X0002368D02*
G03X0002250Y-0004182I0000118J0000000D01*
Y-0003630D02*
G03X0002368Y-0003512I0000000J0000118D01*
G01X0002132D02*
G03X0002250Y-0003630I0000118J0000000D01*
Y-0003394D02*
G03X0002132Y-0003512I0000000J0000118D01*
G01X0002368D02*
G03X0002250Y-0003394I0000118J0000000D01*
Y-0002843D02*
G03X0002368Y-0002725I0000000J0000118D01*
G01X0002132D02*
G03X0002250Y-0002843I0000118J0000000D01*
Y-0002607D02*
G03X0002132Y-0002725I0000000J0000118D01*
G01X0002368D02*
G03X0002250Y-0002607I0000118J0000000D01*
Y-0002055D02*
G03X0002368Y-0001937I0000000J0000118D01*
G01X0002132D02*
G03X0002250Y-0002055I0000118J0000000D01*
Y-0001819D02*
G03X0002132Y-0001937I0000000J0000118D01*
G01X0002368D02*
G03X0002250Y-0001819I0000118J0000000D01*
Y-0009118D02*
G03X0002368Y-0009000I0000000J0000118D01*
G01X0002132D02*
G03X0002250Y-0009118I0000118J0000000D01*
Y-0008882D02*
G03X0002132Y-0009000I0000000J0000118D01*
G01X0002368D02*
G03X0002250Y-0008882I0000118J0000000D01*
G01X0006329Y-0009480D02*
G03X0006289Y-0009520I0000000J0000040D01*
G01X0006644Y-0009598D02*
G03X0006526Y-0009480I0000118J0000000D01*
Y-0001370D02*
G03X0006644Y-0001252I0000000J0000118D01*
G01X0006289Y-0001331D02*
G03X0006329Y-0001371I0000040J0000000D01*
G01X0005935Y-0008710D02*
G03X0005856Y-0008574I0000158J0000000D01*
Y-0008847D02*
G03X0005935Y-0008710I0000079J0000137D01*
Y-0002403D02*
G03X0005856Y-0002267I0000158J0000000D01*
Y-0002539D02*
G03X0005934Y-0002403I0000079J0000136D01*
G01X0006250Y-0002645D02*
G03X0006132Y-0002763I0000000J0000118D01*
G01X0006368D02*
G03X0006250Y-0002645I0000118J0000000D01*
Y-0002881D02*
G03X0006368Y-0002763I0000000J0000118D01*
G01X0006132D02*
G03X0006250Y-0002881I0000118J0000000D01*
Y-0003433D02*
G03X0006132Y-0003551I0000000J0000118D01*
G01X0006368D02*
G03X0006250Y-0003433I0000118J0000000D01*
Y-0003669D02*
G03X0006368Y-0003551I0000000J0000118D01*
G01X0006132D02*
G03X0006250Y-0003669I0000118J0000000D01*
Y-0004220D02*
G03X0006132Y-0004338I0000000J0000118D01*
G01X0006368D02*
G03X0006250Y-0004220I0000118J0000000D01*
Y-0004456D02*
G03X0006368Y-0004338I0000000J0000118D01*
G01X0006132D02*
G03X0006250Y-0004456I0000118J0000000D01*
Y-0005007D02*
G03X0006131Y-0005126I0000000J0000119D01*
G01X0006368D02*
G03X0006250Y-0005008I0000118J0000000D01*
Y-0005244D02*
G03X0006368Y-0005126I0000000J0000118D01*
G01X0006132D02*
G03X0006250Y-0005244I0000118J0000000D01*
Y-0005795D02*
G03X0006132Y-0005913I0000000J0000118D01*
G01X0006368D02*
G03X0006250Y-0005795I0000118J0000000D01*
Y-0006031D02*
G03X0006368Y-0005913I0000000J0000118D01*
G01X0006132D02*
G03X0006250Y-0006031I0000118J0000000D01*
Y-0006582D02*
G03X0006132Y-0006700I0000000J0000118D01*
G01X0006368D02*
G03X0006250Y-0006582I0000118J0000000D01*
Y-0006818D02*
G03X0006368Y-0006700I0000000J0000118D01*
G01X0006132D02*
G03X0006250Y-0006818I0000118J0000000D01*
Y-0007370D02*
G03X0006132Y-0007488I0000000J0000118D01*
G01X0006368D02*
G03X0006250Y-0007370I0000118J0000000D01*
Y-0007606D02*
G03X0006368Y-0007488I0000000J0000118D01*
G01X0006132D02*
G03X0006250Y-0007606I0000118J0000000D01*
Y-0008157D02*
G03X0006132Y-0008275I0000000J0000118D01*
G01X0006368D02*
G03X0006250Y-0008157I0000118J0000000D01*
Y-0008393D02*
G03X0006368Y-0008275I0000000J0000118D01*
G01X0006132D02*
G03X0006250Y-0008393I0000118J0000000D01*
Y-0008944D02*
G03X0006131Y-0009063I0000000J0000119D01*
G01X0006368D02*
G03X0006250Y-0008945I0000118J0000000D01*
Y-0009181D02*
G03X0006368Y-0009063I0000000J0000118D01*
G01X0006132D02*
G03X0006250Y-0009181I0000118J0000000D01*
Y-0001882D02*
G03X0006132Y-0002000I0000000J0000118D01*
G01X0006368D02*
G03X0006250Y-0001882I0000118J0000000D01*
Y-0002118D02*
G03X0006368Y-0002000I0000000J0000118D01*
G01X0006132D02*
G03X0006250Y-0002118I0000118J0000000D01*
G01X0014006Y0002079D02*
G03X0014045Y0002040I0000039J0000000D01*
G01X0014124Y0002394D02*
G03X0014006Y0002276I0000000J0000118D01*
G01X0010620D02*
G03X0010502Y0002394I0000118J0000000D01*
G01X0010581Y0002039D02*
G03X0010621Y0002079I0000000J0000040D01*
G01X0013210Y0001685D02*
G03X0013074Y0001606I0000000J0000158D01*
G01X0013347D02*
G03X0013210Y0001685I0000137J0000079D01*
G01X0011627D02*
G03X0011491Y0001606I0000000J0000158D01*
G01X0011764D02*
G03X0011627Y0001685I0000137J0000079D01*
G01X0011920Y0002000D02*
G03X0012038Y0001882I0000118J0000000D01*
Y0002118D02*
G03X0011920Y0002000I0000000J0000118D01*
G01X0012156D02*
G03X0012038Y0002118I0000118J0000000D01*
Y0001882D02*
G03X0012156Y0002000I0000000J0000118D01*
G01X0012707D02*
G03X0012825Y0001882I0000118J0000000D01*
Y0002118D02*
G03X0012707Y0002000I0000000J0000118D01*
G01X0012943D02*
G03X0012825Y0002118I0000118J0000000D01*
Y0001882D02*
G03X0012943Y0002000I0000000J0000118D01*
G01X0013494D02*
G03X0013613Y0001881I0000119J0000000D01*
Y0002118D02*
G03X0013495Y0002000I0000000J0000118D01*
G01X0013731D02*
G03X0013613Y0002118I0000118J0000000D01*
Y0001882D02*
G03X0013731Y0002000I0000000J0000118D01*
G01X0011132D02*
G03X0011250Y0001882I0000118J0000000D01*
Y0002118D02*
G03X0011132Y0002000I0000000J0000118D01*
G01X0011368D02*
G03X0011250Y0002118I0000118J0000000D01*
Y0001882D02*
G03X0011368Y0002000I0000000J0000118D01*
G54D43*
G01X0014163Y-0001337D02*
X0010837D01*
Y-0003512D01*
X0010965Y-0003640D01*
X0010837Y-0003768D01*
Y-0004535D01*
X0010965Y-0004663D01*
X0014163D01*
Y-0001337D01*
M02*
