%
T1C0.0079F200S100
X002400Y-001000
X002850Y001700
X003450Y-005550
X003470Y-000870
X003500Y-004050
X004100Y-009200
X004100Y001450
X004100Y002600
X004420Y001780
X004420Y002900
X004500Y-008800
X004700Y-001600
X004800Y001450
X006750Y001450
X007050Y-000350
X007450Y-000750
X007550Y-008650
X007550Y-005000
X007800Y-000100
X008550Y-002050
X008600Y-008000
X008650Y001550
X008750Y-009300
X008750Y-008600
X009050Y-002050
X009400Y001950
X009500Y-006300
X009600Y-003450
X009600Y-003000
X009600Y-002550
X009600Y-002050
X009600Y-001500
X009750Y-001100
X009600Y-000500
X010150Y-001500
X010150Y-000500
X010350Y-003450
X010350Y-003000
X010350Y-002550
X010350Y-002050
X010450Y000250
X010450Y000750
X010500Y-006750
X011150Y-003450
X011150Y-003000
X011150Y-002550
X011250Y-006750
X011750Y000250
X011800Y-000850
X011850Y-003450
X011850Y-003000
X011850Y-002600
X012000Y-006750
X012500Y-003450
X012500Y-003000
X012500Y-002600
X012750Y-006750
X013200Y-003450
X013200Y-003000
X013200Y-002600
X013250Y-000850
X013250Y000250
X013500Y-006750
X013750Y-003400
X013750Y-003000
X013750Y-002600
T2C0.0354F200S100
X002250Y-009000
X002250Y-008213
X002250Y-007425
X002250Y-006638
X002250Y-005850
X002250Y-005063
X002250Y-004276
X002250Y-003488
X002250Y-002701
X002250Y-001913
X006250Y-009087
X006250Y-008299
X006250Y-007512
X006250Y-006724
X006250Y-005937
X006250Y-005150
X006250Y-004362
X006250Y-003575
X006250Y-002787
X006250Y-002000
X011250Y002000
X012037Y002000
X012825Y002000
X013612Y002000
M30
